<?xml version="1.0" encoding="UTF-8" standalone="no"?><svg xmlns="http://www.w3.org/2000/svg" xmlns:xlink="http://www.w3.org/1999/xlink" xmlns:sketch="http://www.bohemiancoding.com/sketch/ns" width="30px" height="30px" viewBox="0 0 30 30" version="1.1"><title>business_041-area_chart-report-analytic-statistic-data</title><g sketch:type="MSPage"><g sketch:type="MSArtboardGroup" id="business" stroke="none" stroke-width="1" fill="none" fill-rule="evenodd"><g sketch:type="MSLayerGroup" transform="translate(-45.000000, -225.000000) translate(47.000000, 227.000000)" id="business_041-area_chart-report-analytic-statistic-data"><path d="M6.713 18.7l3.969 1.89 4.816-6.077 4.807 2.258 5.504-4.048.084-7.914a.5.5 0 0 0-.786-.618l-4.802 6.107-4.554-2.301a.5.5 0 0 0-.644.172l-4.425 6.752-3.969-1.873a.5.5 0 0 0-.667.242l-6 13a.5.5 0 1 0 .908.42l5.76-8.01z" id="shape" fill="#FFC107" sketch:type="MSShapeGroup"/><path d="M25.17 26.19s.208-14.248 0-14.066l-4.778 4.206-4.641-2.333a.5.5 0 0 0-.623.143l-4.438 5.81-3.944-1.566a.5.5 0 0 0-.577.154L.109 26.19c-.172.216 25.061 0 25.061 0z" id="shape" fill="#009688" sketch:type="MSShapeGroup"/><path d="M0 26.5a.5.5 0 0 0 .5.5h25a.5.5 0 0 0 .5-.5v-22a.5.5 0 1 0-1 0V26H1V.5a.5.5 0 1 0-1 0v26z" id="shape" fill="#607D8B" sketch:type="MSShapeGroup"/></g></g></g><metadata><rdf:RDF xmlns:rdf="http://www.w3.org/1999/02/22-rdf-syntax-ns#" xmlns:rdfs="http://www.w3.org/2000/01/rdf-schema#" xmlns:dc="http://purl.org/dc/elements/1.1/"><rdf:Description about="https://iconscout.com/legal#licenses" dc:title="business,area,chart,report,analytic,statistic,data" dc:description="business,area,chart,report,analytic,statistic,data" dc:publisher="Iconscout" dc:date="2017-08-25" dc:format="image/svg+xml" dc:language="en"><dc:creator><rdf:Bag><rdf:li>Xinh Studio</rdf:li></rdf:Bag></dc:creator></rdf:Description></rdf:RDF></metadata></svg>