<svg xmlns="http://www.w3.org/2000/svg" enable-background="new 0 0 64 64" viewBox="0 0 64 64"><polygon fill="#FF7DAF" points="52.7 24.2 45 28.2 52.7 32.3 60.5 28.2"/><polygon fill="none" stroke="#445A65" stroke-linecap="round" stroke-linejoin="round" stroke-miterlimit="10" stroke-width="2" points="52.7 24.2 45 28.2 52.7 32.3 60.5 28.2"/><polygon fill="#F93580" points="60.5 28.2 60.5 58.9 52.7 63 52.7 32.3"/><polyline fill="none" stroke="#445A65" stroke-linecap="round" stroke-linejoin="round" stroke-miterlimit="10" stroke-width="2" points="60.5 42 60.5 58.9 52.7 63 52.7 32.3 60.5 28.2 60.5 38"/><polygon fill="#FF5892" points="45 28.2 45 58.9 52.7 63 52.7 32.3"/><polyline fill="none" stroke="#445A65" stroke-linecap="round" stroke-linejoin="round" stroke-miterlimit="10" stroke-width="2" points="52.7 40.8 52.7 32.3 45 28.2 45 58.9 52.7 63 52.7 40.8"/><polygon fill="#FFD880" points="32 1 24.3 5.1 32 9.2 39.7 5.1"/><polygon fill="#F9B826" points="39.7 5.1 39.7 48 32 52.1 32 9.2"/><polygon fill="#FECB4D" points="24.3 5.1 24.3 48 32 52.1 32 9.2"/><polygon fill="none" stroke="#445A65" stroke-linecap="round" stroke-linejoin="round" stroke-miterlimit="10" stroke-width="2" points="32 1 24.3 5.1 32 9.2 39.7 5.1"/><polyline fill="none" stroke="#445A65" stroke-linecap="round" stroke-linejoin="round" stroke-miterlimit="10" stroke-width="2" points="39.7 19.8 39.7 48 32 52.1"/><line x1="39.7" x2="39.7" y1="5.1" y2="15.8" fill="none" stroke="#445A65" stroke-linecap="round" stroke-linejoin="round" stroke-miterlimit="10" stroke-width="2"/><polygon fill="none" stroke="#445A65" stroke-linecap="round" stroke-linejoin="round" stroke-miterlimit="10" stroke-width="2" points="24.3 5.1 24.3 48 32 52.1 32 9.2"/><polygon fill="#27D1FF" points="11.3 15.8 3.5 19.9 11.3 24 19 19.9"/><polygon fill="#00ADDB" points="19 19.9 19 37 11.3 41.1 11.3 24"/><polygon fill="#02BEFF" points="3.5 19.9 3.5 37 11.3 41.1 11.3 24"/><polygon fill="none" stroke="#445A65" stroke-linecap="round" stroke-linejoin="round" stroke-miterlimit="10" stroke-width="2" points="11.3 15.8 3.5 19.9 11.3 24 19 19.9"/><polyline fill="none" stroke="#445A65" stroke-linecap="round" stroke-linejoin="round" stroke-miterlimit="10" stroke-width="2" points="19 30.1 19 37 11.3 41.1 11.3 24 19 19.9 19 26.1"/><polygon fill="none" stroke="#445A65" stroke-linecap="round" stroke-linejoin="round" stroke-miterlimit="10" stroke-width="2" points="3.5 19.9 3.5 37 11.3 41.1 11.3 24"/></svg>