<svg xmlns="http://www.w3.org/2000/svg" enable-background="new 0 0 51 51" viewBox="0 0 51 51"><circle cx="25.5" cy="25.5" r="24" fill="#FED000"/><path fill="#F39F03" d="M40.32999,17.55482v16.47998c0,1.02002-0.83002,1.84985-1.84003,1.84985h-8.5l0.27002,0.91016
					l0.81,2.33008h0.77997c0.38,0,0.69,0.30981,0.69,0.68994c0,0.37988-0.31,0.68994-0.69,0.68994H21.14999
					c-0.38,0-0.69-0.31006-0.69-0.68994c0-0.38013,0.31-0.68994,0.69-0.68994h0.76996l0.82001-2.33008l0.27002-0.91016h-8.5
					c-1.02002,0-1.84003-0.82983-1.84003-1.84985V17.55482c0-1.02002,0.82001-1.8501,1.84003-1.8501h9.75v-2.69995
					c0-0.28003,0.22998-0.5,0.51001-0.5h3.46997c0.28003,0,0.51001,0.21997,0.51001,0.5v2.69995h9.73999
					C39.49997,15.70473,40.32999,16.53481,40.32999,17.55482z"/><polygon fill="#1D364C" points="30.313 38.809 20.677 38.809 21.737 35.796 22.318 33.86 28.681 33.86 29.262 35.796"/><path fill="#334861" d="M39.33408,16.5504v14.2656H11.66967V16.5504c0-1.0144,0.82072-1.84429,1.84429-1.84429h23.97582
				C38.50418,14.7061,39.33408,15.536,39.33408,16.5504z"/><path fill="#33ACFE" d="M38.41193,16.5504v14.2656H12.59181V16.5504c0-0.50717,0.40575-0.92215,0.92215-0.92215h23.97582
				C37.99695,15.62825,38.41193,16.04323,38.41193,16.5504z"/><path fill="#334861" d="M11.66592 30.81404v2.2251c0 1.01856.82573 1.8443 1.84429 1.8443h23.97582c1.01862 0 1.8443-.82574 1.8443-1.8443v-2.2251H11.66592zM30.84668 39.49991h-10.6971c-.3806 0-.68913-.30854-.68913-.68913v0c0-.3806.30853-.68913.68913-.68913h10.6971c.3806 0 .68913.30854.68913.68913v0C31.53581 39.19137 31.22727 39.49991 30.84668 39.49991z"/><circle cx="23.979" cy="32.849" r=".562" fill="#1D364C"/><circle cx="25.498" cy="32.849" r=".562" fill="#1D364C"/><circle cx="27.017" cy="32.849" r=".562" fill="#1D364C"/><path fill="#FFF" d="M32.32635,23.75391v2.83647c0,0.27863-0.22846,0.51263-0.51266,0.51263H19.18631
					c-0.28417,0-0.51266-0.234-0.51266-0.51263v-2.83647c0-0.27863,0.22849-0.51263,0.51266-0.51263h0.5127
					c0.28417,0,0.51266,0.234,0.51266,0.51263v1.81107h10.58224v-1.81107c0-0.27863,0.22849-0.51263,0.50712-0.51263h0.51266
					C32.0979,23.24128,32.32635,23.47528,32.32635,23.75391z"/><path fill="#FFF" d="M20.53489,19.56893c-0.32879-0.31754-0.10588-0.88037,0.35662-0.88037h1.85566
					c0.2842,0,0.51266-0.22856,0.51266-0.51277v-6.1687c0-0.27863,0.22849-0.50719,0.5127-0.50719h3.4661
					c0.27863,0,0.51266,0.22856,0.51266,0.50719v6.1687c0,0.2842,0.22849,0.51277,0.50712,0.51277h1.85009
					c0.4625,0,0.69099,0.56283,0.35665,0.88037l-4.6085,4.44687c-0.1003,0.1004-0.22849,0.14503-0.35665,0.14503
					s-0.25635-0.04462-0.35665-0.14503L20.53489,19.56893z"/></svg>