<svg xmlns="http://www.w3.org/2000/svg" enable-background="new 0 0 64 64" viewBox="0 0 64 64"><path fill="#E3ECFF" d="M18,42.4L3.4,48.4c1.6,3.8,3.9,7.2,6.7,10.1l11.2-11.2C19.9,45.9,18.7,44.2,18,42.4z"/><path fill="#F93580" d="M46,42.4c-0.8,1.9-1.9,3.5-3.3,4.9l11.2,11.2c2.9-2.9,5.2-6.3,6.7-10.1L46,42.4z"/><path fill="#B0CDF7" d="M18,30.7L3.4,24.7C1.8,28.3,1,32.3,1,36.5h15.8C16.8,34.5,17.2,32.5,18,30.7z"/><path fill="#C7D9F9" d="M16.8,36.5L16.8,36.5L1,36.5v0c0,4.2,0.8,8.2,2.4,11.9L18,42.4C17.2,40.6,16.8,38.6,16.8,36.5z"/><path fill="#FECB4D" d="M42.7,25.8l11.2-11.2c-2.9-2.9-6.3-5.2-10.1-6.7l-6.1,14.6C39.7,23.3,41.3,24.4,42.7,25.8z"/><path fill="#FF7DAF" d="M47.2,36.5H63c0-4.2-0.8-8.2-2.4-11.9L46,30.7C46.8,32.5,47.2,34.5,47.2,36.5z"/><path fill="#38FCC4" d="M21.3,25.8L10.1,14.6c-2.9,2.9-5.2,6.3-6.7,10.1L18,30.7C18.7,28.9,19.9,27.2,21.3,25.8z"/><path fill="#FF5892" d="M47.2,36.5c0,2.1-0.4,4-1.2,5.8l14.6,6.1c1.5-3.7,2.4-7.7,2.4-11.9l0,0H47.2L47.2,36.5z"/><path fill="#F9B826" d="M46,30.7l14.6-6.1c-1.6-3.8-3.9-7.2-6.7-10.1L42.7,25.8C44.1,27.2,45.3,28.9,46,30.7z"/><path fill="#1DE9B6" d="M26.2,22.5L20.1,7.9c-3.8,1.6-7.2,3.9-10.1,6.7l11.2,11.2C22.7,24.4,24.3,23.3,26.2,22.5z"/><path fill="#12D69E" d="M32,21.4V5.5c-4.2,0-8.2,0.8-11.9,2.4l6.1,14.6C28,21.8,29.9,21.4,32,21.4z"/><path fill="#FFD880" d="M37.8,22.5l6.1-14.6C40.2,6.4,36.2,5.5,32,5.5v15.8C34.1,21.4,36,21.8,37.8,22.5z"/><path fill="none" stroke="#445A65" stroke-linecap="round" stroke-linejoin="round" stroke-miterlimit="10" stroke-width="2" d="M18 42.4L3.4 48.4c1.6 3.8 3.9 7.2 6.7 10.1l11.2-11.2C19.9 45.9 18.7 44.2 18 42.4zM46 42.4c-.8 1.9-1.9 3.5-3.3 4.9l11.2 11.2c2.9-2.9 5.2-6.3 6.7-10.1L46 42.4zM18 30.7L3.4 24.7C1.8 28.3 1 32.3 1 36.5h15.8C16.8 34.5 17.2 32.5 18 30.7z"/><path fill="none" stroke="#445A65" stroke-linecap="round" stroke-linejoin="round" stroke-miterlimit="10" stroke-width="2" d="M16.8 36.5L16.8 36.5 1 36.5v0c0 4.2.8 8.2 2.4 11.9L18 42.4C17.2 40.6 16.8 38.6 16.8 36.5zM42.7 25.8l11.2-11.2c-2.9-2.9-6.3-5.2-10.1-6.7l-6.1 14.6C39.7 23.3 41.3 24.4 42.7 25.8zM47.2 36.5H63c0-4.2-.8-8.2-2.4-11.9L46 30.7C46.8 32.5 47.2 34.5 47.2 36.5zM21.3 25.8L10.1 14.6c-2.9 2.9-5.2 6.3-6.7 10.1L18 30.7C18.7 28.9 19.9 27.2 21.3 25.8zM47.2 36.5c0 2.1-.4 4-1.2 5.8l14.6 6.1c1.5-3.7 2.4-7.7 2.4-11.9l0 0H47.2L47.2 36.5z"/><path fill="none" stroke="#445A65" stroke-linecap="round" stroke-linejoin="round" stroke-miterlimit="10" stroke-width="2" d="M46 30.7l14.6-6.1c-1.6-3.8-3.9-7.2-6.7-10.1L42.7 25.8C44.1 27.2 45.3 28.9 46 30.7zM26.2 22.5L20.1 7.9c-3.8 1.6-7.2 3.9-10.1 6.7l11.2 11.2C22.7 24.4 24.3 23.3 26.2 22.5zM32 21.4V5.5c-4.2 0-8.2.8-11.9 2.4l6.1 14.6C28 21.8 29.9 21.4 32 21.4z"/><path fill="none" stroke="#445A65" stroke-linecap="round" stroke-linejoin="round" stroke-miterlimit="10" stroke-width="2" d="
		M37.8,22.5l6.1-14.6C40.2,6.4,36.2,5.5,32,5.5v15.8C34.1,21.4,36,21.8,37.8,22.5z"/><circle cx="32" cy="36.5" r="4.6" fill="#CC87FE"/><circle cx="32" cy="36.5" r="4.6" fill="none" stroke="#445A65" stroke-linecap="round" stroke-linejoin="round" stroke-miterlimit="10" stroke-width="2"/><path fill="#CC87FE" d="M33.6,32.2c-0.5-0.2-1-0.3-1.6-0.3s-1.1,0.1-1.6,0.3l1.6-8L33.6,32.2z"/><path fill="none" stroke="#445A65" stroke-linecap="round" stroke-linejoin="round" stroke-miterlimit="10" stroke-width="2" d="
		M33.6,32.2c-0.5-0.2-1-0.3-1.6-0.3s-1.1,0.1-1.6,0.3l1.6-8L33.6,32.2z"/></svg>