<svg xmlns="http://www.w3.org/2000/svg" enable-background="new 0 0 50 50" viewBox="0 0 50 50"><path fill="#529DF7" d="M7.339,17.29c-0.033,0.001-0.105-0.017-0.179-0.017c-0.048,0-0.102,0.007-0.15,0.044
		c-0.042,0.033-0.055,0.081-0.055,0.123c0.001,0.08,0.046,0.18,0.156,0.196c0.009,0.001,0.017,0.001,0.025,0.001
		c0.074-0.002,0.155-0.028,0.194-0.033c0.009,0.033,0.023,0.084,0.045,0.133c0.03,0.063,0.077,0.144,0.18,0.149
		c0.032,0,0.063-0.01,0.092-0.027c0.084-0.05,0.129-0.102,0.154-0.141c0.011-0.017,0.019-0.031,0.024-0.037
		c0.029-0.012,0.042-0.037,0.047-0.052c0.006-0.018,0.007-0.034,0.007-0.05c-0.005-0.093-0.034-0.221-0.117-0.293
		c-0.051-0.036-0.107-0.039-0.167-0.04c-0.095,0.001-0.187,0.016-0.244,0.043l0,0C7.349,17.289,7.345,17.29,7.339,17.29z"/><polygon fill="#BFBFBF" points="4.379 20.429 2.943 15.782 5.814 15.782"/><polygon fill="#B2B1B1" points="4.379 15.782 4.379 20.429 5.814 15.782"/><path fill="#DB4740" d="M6.597,14.199c1.133,2.316-1.146,4.595-3.462,3.462c-0.414-0.203-0.772-0.56-0.974-0.974
			c-1.133-2.316,1.146-4.595,3.462-3.462C6.037,13.427,6.394,13.784,6.597,14.199z"/><path fill="#E64A43" d="M5.891,13.973c1.082,1.631-0.671,3.383-2.301,2.301c-0.086-0.057-0.166-0.137-0.223-0.223
			c-1.082-1.631,0.671-3.383,2.301-2.301C5.754,13.806,5.834,13.887,5.891,13.973z"/><path fill="#EF6A6A" d="M5.607,14.181c0.207,0.589-0.336,1.132-0.925,0.925c-0.185-0.065-0.347-0.227-0.412-0.412
			c-0.207-0.589,0.336-1.132,0.925-0.925C5.381,13.834,5.542,13.996,5.607,14.181z"/><path fill="#529DF7" d="M16.86 31.208c-.113-.052-.281-.074-.327-.157-.042-.067-.109-.125-.18-.17-.072-.044-.142-.076-.213-.077-.016 0-.034.002-.053.01-.035.013-.083.028-.128.027-.04 0-.077-.009-.11-.035-.106-.077-.272-.172-.322-.221-.092-.081-.25-.12-.348-.124-.017.001-.018-.006-.062-.01-.024 0-.049.011-.068.026-.005-.045-.026-.085-.057-.113-.036-.034-.085-.05-.133-.05-.004 0-.008 0-.012 0 .027-.028.054-.048.058-.105 0-.039-.007-.099-.03-.159-.02-.057-.069-.132-.162-.133-.003-.001-.003 0-.003 0s-.001 0-.003-.003c-.023-.019-.049-.162-.169-.319-.142-.184-.317-.314-.495-.317-.02 0-.041.002-.061.006-.068.014-.125.028-.163.028-.047-.004-.063-.004-.103-.08-.085-.183-.186-.228-.217-.292-.031-.058-.095-.078-.137-.076-.041 0-.077.009-.094.01C13.24 28.84 13.24 28.84 13.24 28.84c-.015-.019-.04-.027-.064-.023.071-.118.105-.277.108-.366-.001-.016-.002-.03-.006-.046-.002-.009-.006-.02-.016-.033-.01-.012-.033-.025-.056-.025-.011 0-.023.003-.033.009-.038.023-.042.043-.058.064-.02.035-.04.077-.058.108-.004.005-.007.01-.01.015-.016-.026-.048-.068-.107-.109-.055-.039-.118-.054-.176-.054-.061 0-.118.015-.163.04-.044.025-.089.06-.093.128v.002c-.004-.008-.008-.017-.012-.027-.039-.086-.126-.116-.207-.116-.063 0-.13.019-.184.063-.012-.021-.029-.057-.043-.091-.012-.026-.024-.053-.04-.078-.015-.021-.033-.055-.09-.06-.107.005-.235.092-.312.249-.006.014-.012.027-.016.042 0-.021.002-.038.003-.049 0-.015.019-.055.04-.095.02-.043.045-.083.047-.14.005-.043-.036-.1-.084-.109-.014-.004-.029-.006-.043-.006-.084.003-.144.052-.201.093-.027.021-.052.042-.073.056-.01.008-.019.014-.025.018-.003.001-.005.003-.006.004-.099.029-.218.137-.306.271-.077.125-.113.189-.167.22-.01.006-.024.009-.038.009-.009 0-.017-.001-.024-.003v-.002c-.003-.048-.025-.065-.043-.089-.063-.061-.153-.128-.248-.133-.024-.002-.064.009-.085.045-.011.027-.122.082-.24.142-.01.006-.018.007-.026.007-.035.009-.109-.074-.12-.11-.04-.091-.067-.061-.084-.25-.001-.024-.002-.049-.002-.073 0-.164.032-.334.062-.431.005-.016.008-.033.008-.048-.003-.094-.059-.177-.122-.25-.067-.07-.13-.129-.218-.135-.005 0-.012 0-.022.002-.058.011-.104.044-.144.067-.04.025-.073.04-.09.039-.002 0-.004 0-.006-.001-.036-.007-.027-.007-.056-.022-.025-.013-.057-.021-.108-.024.012-.024.023-.054.03-.088.006-.029.007-.057.007-.085 0-.048-.004-.095-.004-.137.001-.077.011-.13.064-.177.082-.073.107-.179.107-.273 0-.059-.01-.114-.028-.16-.021-.045-.048-.092-.112-.105-.014-.003-.029-.004-.044-.004C9.105 26.506 8.991 26.54 8.91 26.54c-.012 0-.022-.001-.032-.003-.009 0-.019-.002-.028-.002-.13.002-.219.117-.22.246 0 .026.004.054.011.081.004.015.006.03.006.042 0 .031-.011.055-.023.072-.003.004-.007.007-.01.01-.018-.012-.053-.033-.102-.033-.056 0-.114.026-.179.083-.05.046-.08.055-.092.054-.016.005-.063-.027-.146-.111-.141-.138-.275-.262-.295-.444-.012-.104-.022-.207-.022-.297 0-.09.01-.167.03-.213.027-.065.04-.144.04-.218 0-.046-.005-.089-.019-.13-.009-.028-.024-.058-.05-.08 0-.001.001-.003.001-.003.03-.04.107-.096.137-.105.118-.047.244-.169.291-.259.01-.005.049-.012.1-.011.038 0 .083.002.13.002.143.004.125-.007.266.081.041.025.078.04.118.04.066.002.111-.047.127-.085.017-.04.021-.076.021-.102.002-.002.009-.055.103-.056.009 0 .017 0 .026.001.017.002.034.002.05.002.119 0 .25-.032.307-.032.004 0 .007.001.01.001.012.018.033.055.056.09.032.041.063.096.144.102.027.001.053-.01.073-.026.008-.006.015-.012.021-.018.014.092.036.204.07.303.037.102.078.196.171.238.019.005.029.028.042.086.007.027.013.058.032.09.018.033.059.065.107.069.005.001.011.001.016.001.044 0 .081-.025.105-.051.067-.082.089-.207.091-.315 0-.041-.003-.08-.015-.115-.017-.048-.046-.155-.077-.258-.035-.105-.064-.202-.111-.26-.012-.013-.027-.053-.026-.095 0-.062.024-.116.067-.135.079-.039.183-.13.288-.226.103-.096.202-.193.247-.239.026-.028.091-.066.151-.105.058-.042.128-.086.134-.182 0-.028-.01-.057-.026-.082-.055-.089-.079-.145-.086-.2.019.02.047.03.069.028.062-.003.097-.037.133-.074.033-.039.063-.085.065-.145 0-.018-.003-.038-.013-.056-.008-.017-.013-.038-.013-.053 0-.008.002-.015.002-.018h.004c.01.002.02.003.03.003.041.001.082-.018.106-.047.025-.029.035-.064.035-.098 0-.028-.007-.055-.02-.081.012-.011.045-.024.069-.024.009 0 .016.002.022.004.031.011.062.014.096.014.06 0 .127-.011.186-.028.058-.02.11-.035.148-.089.012-.018.018-.041.018-.061-.003-.063-.034-.091-.051-.123-.019-.031-.032-.059-.032-.092 0-.031.024-.074.065-.11.039-.036.094-.062.12-.065.035-.006.084-.006.13-.011.022-.002.045-.005.069-.014.023-.008.056-.029.067-.068.004-.007.014-.019.025-.031.002.044.005.097.015.147.006.034.015.069.037.101.022.032.065.059.111.058.08-.002.142-.045.195-.083.027-.019.05-.038.067-.052.009-.007.017-.013.022-.017.003-.002.006-.003.006-.003l0-.001c.033-.012.27-.073.321-.088.01-.004.098-.016.175-.037.039-.011.079-.024.114-.044.033-.021.074-.056.076-.115 0-.014-.003-.026-.007-.039-.039-.108-.073-.212-.126-.277-.014-.02-.043-.04-.077-.04-.053.003-.075.033-.096.055-.02.025-.038.052-.058.081-.016.024-.034.029-.041.029-.008-.002-.004 0-.007-.002-.003-.001-.006-.051-.007-.095-.002-.023-.003-.046-.011-.072-.006-.023-.036-.069-.087-.068-.029 0-.05.011-.069.024-.041.028-.069.058-.087.075-.001.001-.002.002-.003.003-.01-.011-.025-.03-.036-.048-.001-.002-.003-.004-.003-.006.024-.029.05-.072.052-.133 0-.041-.013-.085-.042-.129-.052-.083-.133-.126-.212-.125-.079.001-.151.033-.219.074-.073.043-.09.053-.125.063.002-.001.004-.003.005-.005.075-.079.189-.124.28-.23.004-.004.007-.007.025-.007.025 0 .071.014.105.031.035.017.059.034.059.034.021.013.047.014.068.003 0 .008-.001.016-.001.024.001.039.003.079.014.118.008.035.044.092.108.092.057-.003.112-.027.168-.057.026-.015.051-.031.073-.051.016-.017.038-.033.045-.069.005-.001.009-.001.014-.003.05-.008.109-.022.159-.063.07-.06.148-.056.231-.099.052-.035.068-.08.093-.112.025-.035.043-.046.048-.043.007.001.012.001.015.025 0 .018-.01.049-.054.081-.083.061-.119.153-.148.231-.025.078-.052.15-.061.152-.03.029-.051.068-.051.11 0 .036.018.073.046.095.028.023.064.033.102.033.011 0 .022-.002.033-.003.02-.003.039-.004.059-.004.035 0 .071.003.111.003.037 0 .078-.003.12-.017.011-.003.019-.004.024-.004.023-.002.043.019.06.049.012.026.05.048.078.046.054-.004.075-.029.096-.046.008-.007.014-.013.019-.018.002-.001.005-.001.008-.002.015-.003.038-.005.058-.005.038-.001.058.011.058.014.017.024.041.052.087.054.052-.002.075-.039.085-.062.011-.025.015-.051.015-.079 0-.033-.005-.067-.022-.1-.041-.08-.089-.153-.124-.237-.028-.077-.095-.146-.183-.143-.028 0-.057.005-.086.014-.013.004-.024.005-.03.005-.014 0-.017-.002-.033-.014-.015-.011-.036-.034-.068-.057-.006-.004-.013-.009-.018-.011.032-.066.057-.102.09-.182.007-.019.034-.059.06-.102.024-.044.052-.089.054-.151.004-.062-.053-.125-.12-.138-.08-.022-.129-.04-.151-.058-.024-.016-.03-.026-.041-.062-.023-.073-.08-.135-.141-.193-.031-.029-.062-.054-.09-.074-.032-.019-.052-.035-.096-.039-.025 0-.078 0-.123-.008-.022-.004-.04-.01-.05-.015-.001-.001-.003-.002-.004-.003-.026-.113-.15-.261-.214-.342-.029-.034-.105-.137-.177-.233-.037-.048-.072-.095-.102-.132-.031-.039-.048-.062-.071-.082-.016-.014-.042-.027-.073-.027-.092.01-.136.073-.226.209-.079.127-.141.155-.173.154-.014 0-.028-.003-.042-.011-.05-.024-.074-.033-.089-.043-.014-.01-.035-.029-.077-.088-.011-.016-.012-.022-.012-.023.001-.003.011-.014.027-.028.015-.017.051-.042.053-.1 0-.018-.005-.035-.012-.05-.043-.075-.116-.094-.191-.118-.077-.02-.161-.031-.225-.039-.035-.002-.083-.038-.146-.086-.131-.096-.203-.114-.348-.114-.174 0-.358.034-.396.033-.035-.002-.072.02-.09.046-.048.075-.042.159-.063.281-.003.021-.005.041-.005.059 0 .047.009.086.019.113.001.006.003.012.004.017-.033.009-.061.016-.086.026-.014.005-.026.011-.041.022-.013.01-.032.034-.032.066.002.041.024.06.038.074.016.015.036.026.06.039.038.019.105.09.154.156.033.043.059.083.074.105-.001.011-.004.026-.008.043-.009.036-.027.076-.055.1-.052.047-.108.083-.122.086-.001-.001-.003-.003-.004-.008-.037-.064-.1-.095-.158-.095-.027 0-.056.007-.081.026-.026.018-.044.053-.043.088 0 .018.005.037.012.055.024.056.057.095.078.125.022.031.03.05.031.075.001.053.018.105.034.162.016.056.03.114.03.15 0 .024-.006.034-.007.034-.018.016-.027.018-.048.019-.026 0-.061-.011-.108-.011-.01 0-.02.001-.03.002-.009-.007-.019-.028-.022-.04.04-.038.036-.076.038-.109-.001-.094-.035-.207-.035-.211-.007-.025-.028-.044-.054-.048-.027-.003-.053.01-.066.032 0 0-.01.018-.026.042-.007-.027-.019-.049-.028-.066-.017-.032-.024-.045-.025-.078.001-.054-.016-.107-.053-.144-.036-.037-.087-.053-.138-.053-.026 0-.054.004-.082.012-.011.003-.024.005-.04.005-.078.003-.209-.056-.396-.096-.214-.045-.285-.069-.459-.173-.076-.046-.142-.065-.199-.065-.073.001-.123.027-.156.037-.007-.02-.016-.061-.03-.102-.016-.047-.046-.113-.123-.135-.071-.017-.122-.012-.126-.018-.002-.002-.001.002-.008-.009-.004-.011-.014-.038-.019-.084-.003-.023-.004-.043-.004-.061.001-.058.011-.083.053-.131.042-.047.12-.108.241-.199.143-.109.21-.191.258-.24.05-.047.066-.063.165-.079.048-.007.089-.009.125-.009.049 0 .087.004.122.004.024-.001.048 0 .078-.017.033-.018.049-.062.046-.09 0-.01.002-.033.006-.06.008.007.016.013.024.019.02.015.038.028.05.037-.001 0-.001 0-.001 0-.046.047-.078.074-.082.135-.001.057.05.088.077.092.03.008.058.009.088.009.069-.002.132-.032.189-.06.048-.024.087-.049.097-.055.007-.003.025-.012.048-.021.03-.012.069-.022.093-.021.01 0 .016.001.018.002l.002 0c.02.037.033.079.054.122 0 0 0 .002.002.003-.03-.024-.068-.036-.11-.038-.05-.001-.106.026-.142.076-.011.013-.019.034-.019.052.009.072.052.083.082.102.034.016.074.026.116.027.035-.001.084-.008.116-.058.009-.017.013-.036.013-.053-.002-.02-.006-.037-.013-.053.025.021.059.036.097.034.052-.001.102-.021.15-.052.045-.031.093-.077.094-.15.001-.059-.038-.112-.094-.146-.089-.057-.162-.083-.217-.106-.056-.022-.091-.041-.134-.092-.02-.024-.035-.042-.05-.057.045-.019.135-.054.162-.065.003-.002.065-.014.119-.04.054-.024.128-.075.129-.17 0-.017-.003-.034-.007-.05-.024-.088-.084-.14-.133-.165-.02-.011-.039-.019-.052-.025.024-.017.061-.038.087-.049.002-.002.031-.008.061-.007.031 0 .067.003.093.006.027.004.046.007.046.007.005 0 .02.003.04.003.021-.001.048-.002.079-.014.014-.003.03-.014.045-.03.004.009.01.019.017.029.02.021.052.034.079.032.015 0 .029-.003.045-.007.029-.007.048-.01.06-.01.029.001.034.008.082.042.001.002.001.005.001.009 0 .02-.01.058-.025.087-.007.016-.016.029-.024.038-.008.009-.013.012-.013.012-.021.011-.047.025-.072.041-.021.02-.053.031-.061.093 0 .041.032.07.053.079.022.011.046.015.076.019.142.015.244.015.247.015.019 0 .037-.009.051-.024.001-.002.091-.108.136-.213 0 0 .001-.002.001-.003.012.007.034.021.055.035.016.01.034.017.052.024-.172.062-.233.162-.266.236-.014.029-.025.047-.029.052-.005.003 0 .003-.022.005-.016 0-.045-.004-.087-.015-.065-.019-.121-.028-.171-.028-.082-.003-.163.035-.195.107-.02.043-.025.089-.025.139 0 .048.006.097.018.14.006.021.014.041.028.061.023.037.07.056.116.037.048-.025.11-.026.199-.06.001-.001.02-.005.047-.004.093-.001.256.026.348.026.015 0 .03 0 .046-.003.002 0 .01.003.022.01.023.014.053.038.083.062.033.022.052.048.111.054.01 0 .022-.002.032-.006.022.015.077.066.127.109.017.013.039.026.068.026.033 0 .058-.019.068-.031.013-.014.02-.025.025-.032.006.003.015.009.026.019.066.058.071.076.078.086.001.003.017.036.05.045.02.005.029.005.042.005h.013c.069 0 .233.015.233.015.017.002.035-.004.049-.015.013-.011.022-.028.023-.046 0 0 .001-.002.002-.011.002-.012.009-.031.017-.041.008-.009.008-.011.022-.012.004 0 .01.001.016.002.03.006.07.031.105.057.018.013.035.025.052.037.018.01.031.024.07.026.023.002.058-.017.069-.04.012-.022.012-.038.012-.054 0-.008 0-.015-.001-.023-.006-.054-.003-.107-.012-.166-.008-.059-.037-.125-.097-.179-.059-.052-.129-.091-.186-.123-.028-.016-.053-.03-.071-.042-.007-.006-.015-.01-.019-.014l0 0c-.01-.016-.018-.035-.022-.047.052.002.166.04.225.087.076.053.142.12.244.125.035 0 .072-.012.101-.036.065-.054.149-.077.212-.145.043-.052.129-.186.13-.187.013-.019.015-.043.005-.063-.01-.02-.028-.035-.05-.038-.802-.405-.616-.312-.716-.317-.04.002-.059.013-.085.021-.023.009-.045.015-.059.014-.016-.004-.014.008-.033-.035-.023-.068-.035-.148-.048-.215-.007-.035-.013-.066-.023-.094-.011-.027-.023-.062-.073-.08-.037-.011-.175-.035-.325-.066-.073-.015-.147-.031-.206-.045-.058-.014-.108-.031-.109-.033-.1-.059-.803-.413-.903-.417-.101 0-.436.048-.555.048-.014 0-.025-.001-.025-.001-.017-.003-.034-.004-.053-.004-.109 0-.286.036-.361.049-.019.003-.044.014-.06.033-.016.021-.019.044-.019.06.005.067.035.114.032.141-.006.015.013.005-.034.024-.023.006-.045.011-.061.015.005-.024.01-.056.017-.092.004-.026.006-.05.006-.073 0-.07-.021-.133-.063-.177-.016-.017-.036-.031-.057-.041h.008c.029 0 .059.001.088.005.167.017.403.042.573.042.028 0 .052-.001.076-.002.087-.005.147-.025.19-.057.043-.031.061-.075.068-.094.004-.011.006-.02.006-.029-.003-.044-.026-.058-.037-.069C10.12 16.841 9.74 16.932 9.324 16.9c-.065-.006-.138-.008-.208-.008-.07 0-.136.002-.19.008H8.917c-.051.006-.118-.061-.201-.119-.03-.02-.093-.075-.159-.125-.158-.12-.125-.089-.497-.196-.055-.016-.126-.034-.182-.051-.028-.009-.051-.016-.064-.022H7.814c-.001-.002-.003-.005-.004-.007-.007-.012-.029-.029-.054-.027-.033.002-.043.016-.05.022-.017.022-.013.024-.018.032-.006.021-.012.05-.012.087 0 .053.013.133.091.178.091.049.242.14.356.194.067.03.147.045.218.065.072.019.127.048.141.072.097.133.322.202.327.207l.015.003.263.03c-.065.034-.151.066-.224.101-.04.018-.076.037-.108.062-.029.024-.061.06-.062.113-.001.023.007.046.018.065.021.035.019.062.024.116.003.053.029.128.104.188.066.057.123.099.19.121-.007-.001-.013-.001-.019-.001-.055.001-.095.028-.142.063-.022.016-.039.03-.052.039-.004-.007-.008-.017-.012-.027-.054-.127-.177-.22-.214-.248-.023-.034-.106-.155-.178-.226-.02-.021-.044-.036-.068-.048.075-.011.15-.02.193-.026.092-.018.122-.098.123-.161.003-.053-.032-.132-.115-.142-.016-.001-.043-.014-.075-.033-.032-.018-.071-.043-.127-.043-.009 0-.017 0-.027.002.014-.017.023-.038.021-.063 0-.014-.002-.027-.007-.04-.04-.105-.144-.156-.239-.157-.069-.002-.152.034-.18.117-.004.012-.006.024-.006.037.006.078.063.108.108.128.05.021.106.032.159.032.006 0 .011 0 .018 0-.031.016-.065.034-.098.053-.036.024-.072.048-.101.075-.027.027-.057.053-.06.109 0 .01.001.022.006.035.025.057.083.096.172.105C8.093 17.606 8.08 17.63 8.073 17.66 8.072 17.673 8.07 17.687 8.07 17.7c.002.091.04.164.082.28.028.075.058.199.057.275.001.021-.002.037-.005.046-.087.016-.11.035-.187.06-.008.003-.013.004-.015.004H8c0 0-.007-.006-.012-.026-.006-.018-.01-.047-.01-.08-.001-.1-.022-.188-.021-.227 0-.007 0-.011.001-.013l.001-.001c.005-.009.01-.019.011-.04.002-.02-.016-.053-.036-.062-.019-.01-.031-.009-.039-.01-.051.003-.094.023-.155.022-.016 0-.034-.001-.05-.006-.022-.005-.045-.007-.066-.007-.041 0-.078.008-.11.025-.03.018-.063.048-.065.099.003.065.052.098.102.117.042.014.067.057.067.094-.002.029-.01.043-.032.053-.017.008-.089.016-.171.015-.167 0-.386-.02-.484-.02-.076 0-.162.011-.228.011-.032 0-.06-.003-.075-.008-.016-.006-.014-.008-.014-.008-.002-.002-.001-.003-.001-.003s-.001-.001.004-.006c.016-.023.096-.053.137-.05h.051c.116-.003.343-.003.458-.183.022-.036.035-.073.035-.11-.002-.095-.08-.142-.14-.161-.064-.021-.132-.026-.179-.026-.076-.002-.126-.025-.239-.157-.019-.023-.021-.036-.021-.046-.001-.015.011-.04.032-.069.018-.03.052-.053.057-.118 0-.012-.002-.026-.007-.037-.006-.017-.017-.031-.03-.042h.001c.012 0 .024-.002.036-.005.084-.034.096-.1.124-.149.012-.026.023-.048.03-.06 0 0 0 0 .001 0 .048-.005.119-.021.185-.021.03 0 .054.003.068.009.014.005.014.008.015.01.014.034.022.055.04.079.017.025.06.04.081.038.028-.001.041-.004.067-.004.008 0 .017 0 .028.001.007 0 .012.001.017.001.085-.001.149-.052.192-.1.044-.052.072-.1.081-.147.002-.008.002-.014.002-.02-.002-.095-.094-.19-.245-.192-.016 0-.032.002-.049.004-.025.003-.066.004-.117.004-.087 0-.2-.004-.303-.004-.069 0-.134.002-.189.008-.055.009-.098.012-.144.052h0c-.045.051-.046.107-.048.157 0 .061.01.124.01.15-.012.019-.014.038-.014.054 0 .032.011.061.031.087.005.007.011.014.019.02-.007-.001-.015-.001-.022-.001-.065.001-.135.017-.193.015H6.474c.007-.006.016-.015.031-.026.023-.018.066-.049.074-.109.007-.054.049-.246.049-.246.004-.015.002-.03-.004-.042-.005-.003-.033-.103-.151-.113-.025 0-.053.008-.077.022-.072.045-.094.06-.107.057-.006 0-.014 0-.026-.003v0c-.006-.001-.024-.033-.049-.071-.023-.037-.074-.087-.146-.086-.015 0-.031.002-.048.006-.162.034-.212.165-.232.178-.014.017-.076.041-.092.039-.001 0-.001 0-.001 0-.04-.026-.219-.146-.219-.146-.008-.006-.017-.009-.027-.011.071-.007.157-.038.207-.037.008 0 .013.002.016.002.034.031.075.04.11.04.036 0 .07-.009.101-.025.028-.016.065-.044.066-.099v-.013c0-.002 0-.002 0-.005-.001-.02.009-.081.01-.14-.001-.032-.003-.066-.018-.1-.014-.035-.055-.072-.102-.074-.005 0-.011-.001-.018-.001-.145.006-.271.125-.407.176-.069.026-.109.088-.108.148 0 .051.033.109.091.126-.039-.003-.097-.008-.154-.014-.05-.005-.1-.014-.135-.023-.013-.003-.024-.007-.031-.009-.027-.076-.115-.176-.281-.173-.017 0-.035.001-.054.003-.102.011-.229.05-.34.086-.055.017-.106.035-.144.047-.019.006-.037.011-.048.014-.006.002-.011.003-.014.003-.015 0-.038.004-.057.022-.019.019-.023.043-.022.057 0 .019.004.032.007.042-.025.002-.053.005-.084.018-.041.017-.079.058-.093.111-.002.009-.004.02-.004.031-.002.032.019.066.041.081.066.039.127.029.201.032.002 0 .005.001.011.001.054 0 .128 0 .194-.005.068-.005.124-.007.176-.035.012-.01.133-.048.189-.045H4.76c.002.032.011.061.022.089-.005-.001-.009-.001-.014-.001-.012-.001-.024-.001-.034-.001-.079-.002-.135.029-.169.05-.037.022-.048.031-.09.032-.011 0-.025-.002-.041-.005-.05-.009-.092-.012-.129-.011-.085 0-.138.014-.215.014-.019 0-.04-.001-.065-.003-.062-.005-.114-.011-.161-.012-.042 0-.083.004-.123.027-.04.022-.066.065-.075.11-.012.051-.031.121-.053.172-.011.025-.024.047-.032.058-.004.003-.006.005-.007.006-.033.002-.062.012-.087.028-.024.018-.052.046-.054.094 0 .048.037.084.071.099.037.018.082.027.147.03.103.012.092.023.112.045.009.013.023.039.054.061.032.022.072.031.121.031.011 0 .023 0 .036-.001.107-.008.209-.011.297-.029.087-.018.174-.056.213-.147.005-.014.011-.025.016-.034.058.091.195.286.196.289l.01.01c.002.001.09.087.157.137-.008.007-.017.013-.024.012-.006 0-.012-.001-.024-.01-.069-.05-.149-.064-.218-.079-.069-.014-.126-.033-.141-.05-.051-.047-.115-.059-.188-.072-.072-.011-.153-.015-.223-.015-.063 0-.115.003-.15.009-.005.001-.012.001-.019.001-.034 0-.084-.011-.13-.022-.049-.012-.087-.025-.129-.026-.043.003-.062.018-.09.033-.034.023-.073.052-.104.079-.02-.037-.045-.08-.063-.111-.014-.024-.047-.049-.082-.048-.065.007-.082.04-.108.061-.011.011-.022.021-.03.028-.001.001-.002.002-.003.003-.033-.011-.137-.074-.255-.076-.034 0-.071.007-.107.021-.076.03-.115.067-.136.082-.022.014-.027.02-.094.022-.015 0-.033-.001-.055-.002-.178-.012-.225-.046-.314-.049-.014 0-.029.002-.045.005-.075.014-.075.014-.075.014-.034.006-.057.039-.053.073-.001.001.004.021-.047.058-.032.022-.059.044-.081.058-.01.008-.019.012-.025.014-.002.002-.004.002-.006.003-.002-.003-.005-.006-.011-.013-.064-.102-.145-.122-.168-.13-.003 0-.024-.015-.059-.032-.035-.017-.085-.033-.144-.032-.034 0-.074.005-.116.016-.02.006-.047.009-.075.009-.066 0-.021.395-.088.377-.017-.004-.149.458-.164.454v.667c.019.003.037.343.056.343.036-.003.174.045.297.093.063.025.124.049.176.068.054.019.089.033.131.035.012-.002.086.02.141.064.059.044.103.104.108.175.007.091.023.153.066.197.045.044.1.047.134.047.011 0 .022 0 .03 0 .018-.001.079.015.124.039.022.012.042.026.053.037.005.005.008.009.009.011 0 .027-.01.109-.01.192.003.109.007.241.118.315.052.03.103.071.152.106.05.034.087.069.154.073.016.001.035-.004.051-.014.056-.042.05-.085.054-.124 0-.032-.004-.067-.011-.1.008.011.017.021.025.03.024.023.048.049.096.053.003.002.011.007.022.016.041.035.091.123.088.165 0 .008-.002.014-.003.018-.01.026-.014.053-.014.081.002.121.08.257.227.264.015-.005.077.034.128.088.027.025.052.053.075.076.026.024.039.043.08.059.005 0 .029.016.044.035.008.01.015.02.019.028.001.003.004.007.004.008h0c.001.042.017.109.033.194.015.081.03.173.03.214 0 .097-.038.523-.05.689-.001.01-.001.02-.001.032.003.194.112.46.243.619.057.067.117.175.169.272.056.1.097.185.156.235.021.016.052.066.089.116.036.048.088.109.177.111.007 0 .015-.001.023-.002.005-.001.009-.001.012-.001.027.001.05.01.087.053.036.043.076.115.123.213.048.1.098.239.146.358.024.06.047.113.071.158.026.044.043.08.094.105.021.008.056.03.08.053.025.024.036.049.035.051 0 .002 0 0-.002.003-.046.06-.111.144-.117.239 0 .024.007.056.032.081.025.023.057.03.086.03.075-.001.124-.024.134-.021.004.003.009-.007.05.051.046.07.096.124.131.166.036.043.05.073.048.086v.005c-.001.006-.002.014-.002.022 0 .073.05.12.091.143.038.021.077.033.1.039.001.002.002.003.004.005.018.019.047.064.084.107.037.04.079.088.155.091.041 0 .081-.021.11-.052.03-.031.046-.074.046-.113C6.1 26.17 6.038 26.104 5.98 26.044c-.058-.059-.125-.11-.15-.136C5.817 25.9 5.81 25.853 5.798 25.773c-.013-.078-.045-.181-.146-.274-.074-.072-.106-.127-.136-.186.099.119.215.237.282.309.046.048.127.186.199.306.037.061.071.118.103.162.016.023.031.041.047.058.016.014.03.032.068.037.013.007.071.06.11.109.038.044.07.087.08.102.005.01.018.036.031.069.017.041.032.094.032.115 0 .003-.001.005-.001.006-.015.025-.017.05-.018.073.007.12.074.281.177.36.095.064.443.258.494.289.01.008.054.073.101.131.051.061.12.133.223.135.134-.003.227.025.227.037.011.012.039.054.074.092.036.036.076.08.15.084.042.002.084-.025.108-.06.039-.056.062-.091.078-.105.015-.012.02-.017.07-.019.035.001.056.013.085.042.028.029.056.073.091.115.032.038.09.104.153.163.067.057.128.113.215.118.007 0 .014-.001.02-.002H8.72c.01-.001.045.012.082.034.039.02.077.049.138.052.022 0 .049-.007.069-.022.002 0 .003-.002.008-.002C9.04 28.1 9.109 28.142 9.15 28.17c.05.027.187.12.183.241v.015c0 .009 0 .02 0 .031-.004.195.148.267.209.301.062.036.163.14.222.212.047.055.107.078.155.098.025.01.047.019.063.026.008.004.014.007.018.009.004.003.003.003.003.003.009.008.021.031.041.057.02.025.058.056.111.056.039-.001.075-.015.112-.039.09-.061.114-.15.119-.208h.003c.032-.001.063.008.073.018.014.011.043.071.063.13.011.03.021.06.032.086.013.026.019.047.046.072 0 0 0 .001.002.001.005.007.022.043.033.084.013.048.023.107.023.164 0 .038-.004.074-.013.105-.028.091-.037.177-.046.238-.004.023-.007.042-.01.054-.034.011-.047.035-.062.052-.027.036-.049.08-.073.119-.022.04-.049.071-.057.074-.05.03-.114.093-.176.163-.059.074-.115.134-.121.219 0 .005 0 .012.001.021.009.047.036.107.06.178.023.067.044.141.043.181 0 .008 0 .015-.001.02-.004.024-.039.075-.079.133-.037.059-.08.132-.08.225 0 .021.002.043.007.064.029.116.124.175.193.227.075.051.121.094.12.127.009.095.062.214.115.337.051.12.104.243.113.301.019.101.085.181.139.268.056.084.1.167.1.249.002.141.096.241.186.308.093.069.184.107.23.119.002-.002.051.031.095.072.048.042.098.089.155.119.069.035.139.114.199.227.035.068.044.178.043.25 0 .029-.001.051-.001.067.001.036-.037.51-.075.776-.007.055-.01.11-.01.159.001.124.017.228.016.294.001.045-.008.065-.012.067-.05.056-.14.109-.147.223-.001.038.015.076.042.108.002.003.004.005.004.006-.003.005-.02.025-.041.043-.013.011-.025.021-.036.034-.012.014-.03.032-.031.07.003.045.02.083.035.144.016.057.03.123.03.171 0 .023-.004.04-.008.049-.055.114-.092.267-.127.349-.023.064-.109.154-.11.295 0 .019.001.04.005.06.002.009.002.016.002.02-.004.02.004.008-.027.035-.03.02-.08.077-.077.159-.004.078.043.134.069.153.024.025.019.008.024.045 0 .008-.001.019-.002.033-.012.076-.031.122-.05.169-.019.047-.04.101-.04.174 0 .072.018.146.034.21.016.061.031.121.029.122.002.001-.011.05-.036.102-.025.055-.061.119-.102.176-.078.11-.148.182-.154.29 0 .01.002.02.003.031.01.053.036.095.058.131.01.018.02.035.025.046.002.004.003.008.005.011-.007.014-.032.057-.055.101-.028.057-.059.123-.059.196 0 .007 0 .016.001.026.006.082.08.126.115.133.016.005.028.009.034.011-.007.009-.02.024-.036.041-.02.025-.054.052-.057.113-.002.033.016.066.038.086.045.045.09.062.109.078.018.018.024.017.027.066 0 .011-.001.026-.003.042-.002.015-.003.03-.003.046 0 .198.199.265.194.277.017.02.047.06.083.097.034.033.07.069.131.078.003.017.015.039.032.049.016.01.029.012.039.012.014.004.072.034.13.06.066.03.132.059.203.061.123-.002.315-.062.365-.08.001-.002.09-.02.166-.039.04-.01.08-.02.114-.033.034-.015.062-.017.094-.064.006-.011.01-.024.01-.038-.001-.042-.031-.064-.044-.071-.052-.024-.102-.023-.166-.031-.062-.006-.128-.016-.162-.03-.037-.013-.116-.077-.178-.147-.064-.067-.118-.15-.122-.171-.007-.024-.013-.062-.012-.101-.002-.075.023-.147.048-.158.099-.069.312-.279.36-.322.037-.037.059-.084.083-.14.02-.054.037-.111.037-.163-.002-.023.001-.053-.035-.086-.035-.025-.059-.023-.086-.027-.041-.004-.086-.002-.121-.005-.013-.002-.025-.003-.033-.005 0 0 0-.002 0-.003-.001-.007.008-.045.09-.113.071-.059.121-.129.16-.187.038-.058.069-.108.081-.116.051-.047.16-.14.207-.269.008-.023.013-.041.014-.065.001-.017-.005-.045-.027-.064-.021-.02-.045-.022-.059-.022-.046.003-.076.018-.099.018-.003-.002-.006-.007-.012-.016-.015-.025-.029-.072-.036-.112.02.005.045.014.071.023.053.019.113.041.171.054.02.004.038.007.055.007.027 0 .06-.008.084-.033.024-.026.029-.055.029-.077-.002-.056-.022-.101-.027-.137-.001-.007-.001-.017-.001-.027 0-.03.006-.067.015-.088.001-.003.002-.005.004-.008.042.018.082.017.132.019.156-.001.37-.036.421-.05.05-.02.06-.045.086-.077.067-.093.155-.262.189-.312.03-.047.053-.096.054-.152.002-.05-.025-.104-.07-.135-.005-.003-.011-.011-.02-.021.06.02.118.036.18.037.1.001.195-.05.292-.16.16-.181.297-.298.319-.46.008-.099.045-.197.075-.231.011.009.034.023.073.026.034 0 .067-.02.086-.044.02-.024.035-.055.052-.096.035-.092.063-.125.1-.165.036-.04.084-.088.125-.179.018-.039.024-.078.024-.115-.003-.117-.053-.222-.05-.286.001-.034.006-.049.032-.072.144-.116.407-.265.407-.266 0 0 .016-.009.051-.026.035-.015.089-.038.161-.059.066-.019.14-.024.211-.033.068-.01.148-.025.193-.103.056-.105.107-.298.172-.385.067-.097.145-.225.148-.343 0-.023-.004-.048-.015-.072 0-.002 0-.006 0-.01-.001-.038.021-.128.045-.212.024-.088.049-.169.05-.235 0-.006-.001-.013-.001-.02-.012-.07-.045-.146-.045-.23.001-.066.017-.129.088-.197.098-.094.197-.209.274-.312.078-.106.132-.183.148-.254.002-.018.041-.117.078-.219.037-.105.074-.22.074-.317v-.024C17.114 31.453 16.977 31.273 16.86 31.208zM48.975 18.777c.006-.02.009-.04.009-.059-.004-.123-.078-.244-.074-.319 0-.025.005-.038.016-.052.03-.036.045-.079.045-.12-.001-.081-.048-.144-.099-.191-.055-.047-.12-.083-.183-.098-.04-.01-.09-.011-.15-.012-.105 0-.237.007-.349.007-.102.002-.195-.011-.201-.019-.085-.049-.201-.111-.302-.114-.028 0-.061.005-.09.03-.043.041-.077.11-.115.179-.017.033-.034.065-.045.09-.015-.006-.037-.022-.064-.071-.057-.091-.161-.115-.268-.135-.108-.017-.226-.019-.314-.019-.038 0-.072 0-.094 0-.136 0-.276.031-.41.046-.076.009-.13.023-.165.022-.034-.001-.052-.004-.095-.046-.114-.118-.267-.171-.294-.201-.039-.031-.074-.035-.121-.043-.047-.006-.102-.009-.162-.009-.1 0-.211.008-.311.023-.176.024-.354.028-.405.028-.011-.005-.028-.014-.052-.027-.043-.024-.103-.06-.176-.112-.078-.054-.156-.101-.222-.135-.069-.033-.116-.055-.169-.058-.051.001-.224.033-.363.033-.067.002-.122-.014-.122-.017-.085-.072-.168-.123-.251-.134.055-.012.123-.033.193-.054.099-.031.188-.061.188-.061.019-.006.035-.022.041-.041.006-.019.004-.04-.007-.057-.001-.002-.029-.047-.075-.094-.047-.046-.115-.101-.208-.103-.05.001-.137-.017-.215-.036-.081-.018-.148-.038-.2-.039-.023-.001-.051.007-.07.023-.013.011-.02.022-.024.029-.006 0-.016-.002-.03-.005-.081-.018-.167-.057-.259-.059-.041 0-.087.01-.124.041-.021.017-.058.042-.093.069-.033.03-.074.058-.079.127-.001.035.019.067.043.087.024.02.052.032.087.044.106.033.205.033.277.037.077.003.102.016.102.022.012.022.013.034.015.046.002.021-.02.051-.023.118.001.002-.018.059-.048.105-.027.047-.072.092-.079.092 0 0-.001.001-.008.001-.014.002-.054-.011-.11-.013-.043 0-.097.011-.152.045-.036.024-.145.034-.242.032H42.21c-.035 0-.068 0-.097.003-.019.003-.037.003-.055.013-.009-.008-.02-.02-.031-.031-.026-.024-.053-.057-.115-.06-.015 0-.031.003-.046.011-.05.026-.097.077-.154.126-.052.049-.116.082-.121.079-.052-.005-.151-.097-.145-.176 0-.068-.011-.139-.026-.201-.018-.063-.029-.111-.074-.153-.028-.019-.045-.021-.07-.027-.07-.015-.181-.022-.276-.023-.046 0-.088.002-.121.008-.048.007-.152.018-.253.035-.05.009-.1.019-.143.031-.043.015-.078.026-.111.061-.023.034-.16.086-.228.082-.015.002-.049-.015-.105-.048-.055-.031-.131-.07-.236-.087-.145-.023-.404-.037-.557-.037-.059.001-.093 0-.128.009.001 0 0 0-.006 0-.011 0-.034-.003-.05-.009.025-.025.055-.058.083-.096.039-.056.08-.119.081-.196.001-.044-.02-.095-.061-.125-.149-.112-.404-.102-.511-.12-.075-.01-.157-.028-.264-.028-.049 0-.101.003-.16.013-.071.012-.124.036-.161.054l-.011.006c-.004-.015-.011-.018-.014-.021-.015-.015-.016-.013-.023-.018-.016-.009-.049-.026-.114-.059-.162-.083-.278-.115-.372-.115-.065-.001-.119.017-.159.041-.022.013-.038.025-.049.038-.019.024-.007.011-.016.019-.01.007-.042.026-.117.059-.194.088-.307.133-.353.147h-.001c-.023.001-.114-.018-.192-.041-.04-.011-.079-.023-.109-.035-.015-.005-.027-.01-.037-.013-.004-.002-.007-.004-.009-.005v0c-.028-.021-.054-.023-.079-.024-.084.002-.188.043-.293.092-.119.06-.196.124-.262.12-.01 0-.022-.001-.034-.004-.059-.015-.129-.022-.201-.022-.103 0-.21.015-.297.057-.11.054-.213.058-.354.174-.052.044-.138.085-.211.112-.054.02-.099.033-.119.039-.045-.003-.218-.014-.32-.014-.044 0-.095-.001-.142.007-.023.003-.045.009-.07.022-.024.012-.053.046-.052.086.002.045.024.073.051.103.065.067.168.118.263.166.002.001.004.002.006.003-.024-.012-.051-.022-.082-.035-.08-.032-.123-.039-.141-.046-.017-.008-.037-.021-.099-.088-.074-.08-.159-.121-.241-.121-.077 0-.147.038-.189.099-.045.067-.048.144-.057.2-.003.028-.008.051-.012.061-.037.01-.069.021-.083.023-.002-.005-.004-.014-.005-.026-.004-.051-.007-.123-.015-.186-.004-.031-.009-.06-.018-.087-.005-.014-.011-.027-.023-.043-.011-.014-.035-.033-.066-.032-.065.007-.077.044-.103.079-.042.072-.069.104-.092.136-.024.029-.045.075-.043.124.007.103.059.153.055.232 0 .013 0 .026-.003.043-.012.062-.019.118-.019.163 0 .029.001.053.011.08.006.018.026.043.054.055-.082.096-.174.225-.203.265-.022.012-.069.037-.12.062-.018.009-.037.018-.056.026.037-.044.084-.093.121-.119.101-.08.17-.201.176-.305 0-.024-.005-.051-.025-.076-.018-.026-.058-.214-.055-.304-.001-.023.003-.04.003-.04.006-.031.07-.095.075-.192.002-.054-.034-.111-.091-.142-.117-.07-.204-.161-.322-.215-.017-.008-.036-.012-.054-.012-.094.006-.142.072-.193.127-.049.057-.096.118-.12.132-.055.039-.082.085-.099.106-.019.022-.019.026-.061.034-.1.015-.172.102-.172.205-.001.082.051.167.149.22.071.04.123.074.153.101.014.014.024.025.028.032 0 .002.001.003.001.004-.003 0-.006.001-.011 0-.027 0-.074-.01-.111-.023-.038-.012-.065-.023-.065-.023-.031-.016-.17-.092-.29-.095-.072.003-.197-.069-.318-.09-.038-.006-.085-.009-.136-.009-.101.004-.204.003-.278.078-.024.028-.057.074-.095.112-.037.039-.078.06-.088.057-.003 0-.005 0-.008-.002-.03-.018-.05-.036-.075-.055-.023-.019-.061-.041-.107-.04-.037.001-.074.012-.119.031-.024.011-.049.014-.077.014-.046.001-.097-.012-.155-.013-.045-.001-.106.013-.145.063-.012.015-.022.029-.029.038-.024-.009-.073-.028-.149-.057-.058-.022-.104-.033-.147-.033-.077-.001-.127.041-.161.067-.036.028-.068.052-.145.068-.046.01-.088.013-.128.013-.069 0-.129-.011-.186-.011-.051-.002-.118.013-.156.071-.02.028-.039.06-.059.09.006-.018.013-.035.021-.053.021-.05.046-.096.048-.156 0-.027-.01-.062-.035-.086-.057-.049-.122-.051-.191-.053-.053.001-.106.006-.151.015-.047.014-.083.018-.12.058-.034.045-.034.086-.035.13 0 .077.016.157.037.21.002.005.006.015.009.029-.016-.022-.05-.048-.088-.046-.008 0-.017 0-.027.002-.032.007-.063.017-.093.029.01-.014.017-.031.018-.055-.004-.063-.046-.085-.079-.104-.113-.061-.236-.127-.423-.158-.186-.031-.413-.031-.677-.146-.274-.12-.337-.166-.463-.201-.101-.026-.584-.121-.94-.123-.077 0-.148.005-.21.017-.163.032-.459.115-.723.196-.132.041-.257.082-.351.115-.048.017-.087.031-.119.044-.033.014-.048.019-.075.039-.041.039-.067.093-.113.162-.044.068-.101.146-.177.216-.165.155-.474.497-.677.542-.133.034-.266.114-.371.192-.052.04-.097.079-.13.116-.031.04-.058.059-.064.119.003.051.023.104.043.168.02.058.036.121.037.14-.007.018-.008.033-.008.05 0 .057.022.124.059.193.038.068.093.137.173.173.067.029.146.042.22.042.035 0 .069-.003.1-.009-.001.001-.002.001-.004.001-.059.024-.119.054-.15.122-.027.067-.053.162-.054.254.001.048.007.096.035.14.012.018.027.036.042.056-.044-.009-.089-.014-.133-.014-.089 0-.181.02-.25.083-.087.078-.219.222-.266.273-.031.004-.085.012-.14.025-.021.005-.042.011-.062.018 0-.006-.001-.012-.002-.017-.023-.144-.151-.306-.287-.383-.032-.014-.095-.094-.147-.174-.054-.081-.099-.161-.154-.209v0c-.004-.022.035-.096.038-.184 0-.04-.012-.087-.044-.126-.049-.06-.1-.091-.144-.111-.043-.021-.077-.033-.119-.065-.036-.026-.077-.042-.116-.041-.114.004-.179.092-.23.162-.005.007-.008.009-.008.009-.008.004-.052-.024-.121-.028-.017 0-.037.003-.056.011-.076.029-.107.109-.104.171 0 .075.028.146.062.199.014.019.03.047.051.08-.022-.005-.045-.008-.067-.008-.022 0-.045.003-.067.008-.085.016-.129.079-.157.119-.014.02-.024.037-.032.043-.001.002-.002.003-.003.003-.04 0-.084.007-.126.03-.043.022-.082.075-.079.137 0 .017.002.034.006.052.018.07.04.126.038.143 0 .004 0 .004 0 .004s0 .002-.007.007c-.045.025-.062.076-.061.115.001.056.023.108.056.153.033.044.078.085.143.095.011.003.022.003.033.003.131-.003.235-.094.309-.13.094-.049.246-.148.251-.331 0-.076-.007-.149-.023-.212.009.005.019.011.028.016.06.028.139.053.201.078.014.006.027.011.039.016-.047.035-.099.08-.147.127-.063.066-.119.128-.14.198-.003.01-.004.02-.004.031.009.101.085.135.141.174.017.009.034.019.05.027-.006.017-.011.038-.011.062-.004.032.019.083.062.101.013.007.03.011.046.011.076-.007.097-.052.123-.074.027-.025.044-.036.06-.035.075-.003.262.066.386.074-.091.021-.189.047-.285.066-.086.017-.136.053-.17.075-.036.022-.059.036-.137.044-.054.005-.098.016-.134.034-.034.017-.072.047-.074.103.001.045.03.076.059.093.029.017.063.029.106.037.072.014.172.049.249.095.079.046.126.104.126.132.002.02.002.042.002.063 0 .107-.024.221-.072.324v-.001c-.004.005-.04.015-.088.015-.089 0-.21-.02-.306-.022-.09.001-.261-.026-.406-.026-.073 0-.142.005-.202.032-.116.065-.127.198-.131.318 0 .096.015.191.033.258.009.028.011.052.011.071-.001.06-.024.09-.054.118-.048.047-.064.108-.065.173 0 .056.015.119.063.166.021.019.049.065.076.11.031.044.046.091.114.117.016.005.029.005.041.005.048 0 .099-.012.142-.012.038 0 .057.009.062.016.02.024.048.077.074.124.014.024.027.047.042.067.002.003.005.006.007.008-.004.001-.006.004-.01.005-.079.053-.154.119-.212.17-.029.026-.054.048-.073.063-.008.006-.014.011-.018.013-.03.004-.047.018-.067.033-.067.053-.148.164-.209.344-.043.126-.038.24-.043.322-.006.087-.015.118-.052.138-.144.079-.395.242-.51.378-.063.077-.116.212-.177.359-.06.145-.123.298-.181.387-.048.073-.066.15-.065.22 0 .144.07.263.081.327.017.077.05.176.049.281 0 .075-.016.151-.065.227-.072.109-.107.196-.128.251-.01.027-.02.046-.024.053 0 0 0 .001-.001.001-.01.003-.022.007-.036.019-.016.012-.029.039-.028.059.004.041.018.051.026.066.029.04.069.085.081.157.002.009.002.019.002.03 0 .05-.02.113-.021.189-.003.09.046.195.177.265.233.134.328.237.385.401.078.213.393.504.395.509.001.001.224.24.341.347.047.044.087.072.142.073.049.001.089-.034.106-.064.019-.032.029-.065.038-.102.005-.02.018-.035.072-.051.052-.014.13-.019.215-.019.124 0 .226.025.355.026.042 0 .087-.003.135-.011.198-.036.383-.18.433-.202.059-.03.177-.113.278-.112.034 0 .064.009.096.031.067.051.093.105.118.171.024.064.04.141.096.211.043.053.108.079.168.079.105-.002.199-.06.28-.133.015-.012.026-.024.034-.031.018.017.047.041.087.068.084.053.116.1.113.125 0 .017-.009.046-.05.092-.08.086-.093.193-.099.291-.006.1-.008.197-.04.29-.03.085-.05.144-.05.202-.001.045.016.091.045.123.028.032.063.056.106.084.042.023.15.186.235.348.09.164.168.325.213.389.009.01.019.054.018.114 0 .06-.006.135-.006.212 0 .085.007.174.045.254.063.125.118.224.114.267-.002.019-.004.027-.023.047-.102.091-.298.277-.312.605-.002.028-.002.055-.002.082 0 .27.059.462.108.569.051.104.176.389.243.504.054.087.132.347.142.499.002.025.003.052.003.08 0 .055-.004.113-.004.169.001.084.004.166.049.235.054.075.096.221.221.355.043.045.081.133.102.207.022.074.031.134.031.134l.003.013c0 0 .008.022.018.066.011.045.023.109.029.188.007.083.012.156.037.225.024.069.072.131.146.174.075.044.139.074.209.074h.003c.057 0 .113-.027.149-.073.001-.001.011-.01.035-.018.068-.026.21-.04.327-.039.046 0 .089.001.123.005.014.001.025.001.038.001.184-.001.368-.112.528-.243.176-.149.415-.512.5-.612.038-.047.106-.118.165-.195.059-.077.114-.155.117-.248 0-.013-.001-.024-.003-.034-.015-.072-.034-.137-.034-.177.003-.033.004-.039.028-.055.049-.029.135-.075.212-.126.076-.055.152-.099.171-.194.002-.01.002-.018.002-.027-.002-.139-.093-.466-.117-.545-.002-.002-.002-.004-.002-.008-.005-.039.067-.167.157-.297.036-.056.133-.12.228-.171.048-.026.095-.049.134-.071.041-.023.071-.038.1-.07.062-.078.198-.328.229-.547.004-.034.006-.067.006-.1-.001-.129-.024-.258-.023-.344-.001-.038.006-.067.011-.078.018-.038.029-.078.028-.119 0-.1-.057-.183-.14-.272-.036-.033-.064-.146-.074-.256-.006-.056-.01-.109-.015-.156-.007-.047-.007-.079-.028-.12-.003-.005-.01-.04-.009-.081 0-.052.007-.117.019-.167.006-.025.013-.046.02-.058.002-.005.004-.008.006-.01.04-.02.063-.049.092-.084.087-.112.199-.307.271-.403.051-.069.148-.207.248-.331.096-.124.215-.233.241-.231.096-.023.186-.097.265-.185.079-.088.141-.185.152-.281-.001-.032.093-.207.187-.36.046-.08.094-.158.131-.225.037-.069.064-.116.072-.167.003-.031.033-.128.06-.228.027-.103.056-.211.057-.299-.001-.037-.004-.073-.027-.109-.035-.045-.08-.048-.116-.049-.185.004-.524.167-.583.194-.069.034-.215.131-.379.131-.01 0-.02-.001-.03-.001-.044-.004-.054-.015-.06-.023-.007-.008-.012-.026-.012-.055 0-.039.009-.088.01-.137 0-.009-.001-.018-.001-.028-.006-.032-.02-.071-.039-.112.007.006.013.009.021.014.03.013.058.016.089.016.082 0 .181-.025.273-.054.091-.03.165-.06.208-.089.048-.039.485-.284.598-.29.094-.009.154-.055.203-.093.048-.037.089-.069.171-.09.218-.054.361-.233.484-.348.142-.138.289-.438.341-.548.026-.067.13-.131.138-.265 0-.032-.008-.065-.025-.096-.043-.08-.129-.155-.22-.222-.093-.065-.181-.118-.256-.131-.004-.001-.004 0-.014-.011-.011-.017-.024-.054-.037-.093-.006-.019-.013-.039-.027-.059-.013-.021-.044-.048-.084-.047-.035-.002-.07.019-.086.04-.047.061-.048.103-.125.15-.064.039-.123.091-.174.13-.046.037-.089.058-.104.061 0-.006.001-.012.001-.019.002-.048-.015-.132-.096-.208-.07-.069-.117-.111-.141-.141-.023-.031-.027-.041-.028-.083-.002-.056-.028-.093-.057-.134-.089-.113-.241-.261-.247-.33-.001-.005-.001-.009-.001-.014-.001-.034.021-.085.052-.123.027-.035.064-.055.073-.055.001.001.002.003.003.006.061.123.108.355.305.467.076.042.152.1.22.153.069.052.122.098.178.122.015.006.029.008.043.008.074-.004.127-.047.185-.082.028-.018.055-.035.075-.046.011-.006.019-.009.026-.012.021.022.067.09.111.154.055.075.107.152.19.189.074.029.195.041.314.052.119.009.229.013.264.013.013 0 .043.001.08.001.052 0 .121-.002.186-.014.063-.014.128-.03.17-.096.022-.04.035-.05.042-.052.005-.003.015-.004.04-.004.018.017.059.078.097.136.046.064.081.131.158.163.056.017.111.022.146.038.033.019.045.022.049.089 0 .005 0 .011-.001.018-.002.013-.002.026-.002.04 0 .1.023.191.059.262.037.07.086.128.161.144.007.001.014.001.019.001.091-.007.151-.069.214-.126-.001.118-.004.268-.011.34 0 .008-.001.016-.001.024.003.182.142.63.142.635l.002.006c.001.001.188.466.241.577.029.059.093.163.153.272.059.104.107.22.104.258 0 .072.007.161.024.239.009.039.02.075.04.106.017.03.051.067.104.068.058-.002.085-.036.11-.066.068-.091.124-.253.187-.359.008-.014.016-.029.023-.043-.012.028-.02.059-.031.094-.017.073-.029.161-.029.248 0 .064.007.127.024.183.017.054.046.109.107.135.021.009.043.012.064.012.089-.002.145-.065.177-.127.034-.064.052-.136.053-.2-.001-.035-.004-.067-.025-.101-.011-.011-.033-.094-.057-.165-.012-.036-.026-.072-.047-.106-.019-.031-.055-.068-.111-.069-.022 0-.044.007-.062.017v0c-.028.019-.045.039-.057.063.073-.158.096-.344.129-.472.041-.166.039-.437.039-.544 0-.068.046-.139.216-.228.205-.11.328-.371.467-.493.089-.081.125-.179.173-.242.048-.062.088-.1.223-.103.151 0 .22.001.279-.014.066-.017.093-.063.125-.1.02-.024.038-.044.052-.055.003-.002.006-.004.007-.005.004.009.011.025.015.047.024.101.091.205.155.297.063.09.13.17.143.191.029.045.092.185.091.332 0 .011-.001.024-.001.036-.002.031-.003.063-.003.096 0 .08.006.159.021.223.008.032.017.061.033.087.014.025.045.056.092.057.059-.005.079-.037.106-.063.059-.069.115-.178.136-.216.01-.008.029-.021.05-.035.033-.022.077-.039.091-.039.001.004.004.014.004.03v.013c-.002.035-.003.072-.003.108 0 .213.029.423.027.543.002.094.051.203.103.301.017.031.034.06.051.086-.004 0-.006 0-.009 0-.06.009-.097.055-.115.098-.019.044-.024.091-.026.139.002.067.012.13.045.182.045.062.092.069.115.092.026.022.059.06.089.188.066.281.193.555.244.662.036.073.106.136.177.199.071.061.144.119.176.151.028.029.067.045.104.045.091-.003.157-.076.16-.166 0-.026-.007-.054-.021-.079-.056-.095-.151-.232-.156-.307-.015-.122-.081-.29-.184-.478-.11-.193-.201-.244-.251-.345-.043-.082-.137-.189-.209-.266.023-.003.048-.021.055-.037.009-.019.009-.032.01-.043-.002-.025.022-.116.048-.207.024-.088.049-.181.053-.261.028.022.07.056.118.096.071.059.139.156.185.237.047.081.072.145.072.145l.013.019c0 0 .04.043.083.097.042.051.089.119.092.135.013.048.068.075.102.071.058-.002.105-.028.151-.061.045-.033.086-.075.11-.127.043-.091.038-.099.121-.128.043-.014.105-.021.167-.051.063-.03.123-.095.143-.193.02-.094.077-.216.077-.361.001-.089-.022-.185-.087-.281-.15-.223-.224-.375-.35-.494-.044-.04-.094-.129-.128-.207-.019-.042-.034-.08-.043-.107.065-.069.227-.245.29-.32.015-.019.025-.021.034-.021.016-.002.046.019.05.06.001.003.001.005.001.008.002.023-.019.065-.053.13-.034.065-.073.151-.086.27-.002.018-.003.034-.003.051 0 .167.103.275.214.278.041.001.086-.018.111-.058.026-.037.07-.102.109-.164.018-.031.037-.061.051-.089.013-.029.025-.047.028-.085.001-.035-.022-.065-.036-.076-.038-.036-.05-.017-.065-.125v-.012c0-.046.022-.09.052-.122.028-.032.066-.048.075-.046.033.021.059.019.089.021.157-.003.459-.092.636-.202.21-.137.327-.405.425-.49.055-.051.176-.16.285-.28.107-.124.21-.242.216-.372 0-.008-.001-.016-.002-.024-.025-.149.016-.389-.094-.623-.097-.204-.218-.343-.268-.423.022-.012.061-.031.108-.05.068-.029.149-.067.211-.133.048-.051.072-.109.072-.164-.006-.112-.082-.186-.172-.191-.008 0-.018.002-.029.004-.052.012-.182.046-.239.046-.01 0-.017-.001-.017-.001-.019.004-.068-.065-.173-.166-.015-.015-.015-.022-.016-.029-.001-.012.008-.032.022-.048.007-.008.015-.014.021-.017.002-.001.004-.003.006-.003.007.001.013.002.02.002.078-.006.125-.053.187-.103.055-.047.109-.1.145-.137-.015.052-.025.109-.026.161 0 .029.002.058.017.088.013.031.048.059.086.064.007.002.014.002.019.002.092-.004.166-.066.243-.119.036-.027.071-.054.097-.073.002-.001.004-.002.006-.003.014.038.033.102.03.148 0 .021-.003.038-.007.046-.021.053-.031.113-.031.167 0 .029.002.056.011.083.008.023.033.067.088.069.007 0 .016-.001.023-.003.053-.019.078-.05.11-.077.007-.007.015-.013.022-.019.033.042.067.08.067.139 0 .019-.004.04-.014.067-.032.096-.105.146-.114.256 0 .062.041.114.1.155.055.038.106.059.159.059.111-.004.162-.079.229-.119.122-.091.173-.294.179-.455-.001-.054-.007-.103-.033-.148-.033-.056-.086-.134-.13-.207-.034-.054-.062-.112-.07-.137.024-.013.077-.029.128-.053.05-.023.118-.068.119-.156-.001-.085.067-.16.14-.198.058-.031.1-.082.141-.125.016-.018.031-.034.043-.046.026.023.056.036.089.052.049.019.104.032.159.032.054 0 .118-.013.16-.07.052-.078.384-.416.582-.592.215-.194.296-.423.347-.638.015-.061.032-.116.048-.169.001.021.003.042.003.063 0 .033-.002.067-.004.102-.003.047-.006.105-.006.168 0 .085.003.176.008.252.003.037.005.072.01.1.005.029.007.048.022.076.016.03.044.063.081.095.036.031.078.062.139.064.018 0 .036-.004.053-.011.065-.041.058-.091.061-.131-.001-.061-.014-.132-.025-.195-.013-.061-.024-.122-.023-.127 0 0 .001-.007.007-.018.015-.036.077-.086.084-.084.04-.013.055-.045.061-.064.007-.022.007-.042.007-.062-.001-.105-.039-.255-.093-.348-.027-.048-.06-.085-.082-.113 0-.001-.002-.002-.002-.003.017-.015.029-.033.042-.051.021-.035.038-.073.039-.116 0-.023-.007-.054-.032-.078-.003-.006-.007-.025-.014-.048-.005-.026-.044-.083-.105-.081-.017 0-.033.003-.049.009-.006.004-.069.003-.128.012-.022.004-.045.01-.067.023-.047-.075-.114-.129-.205-.131-.009 0-.018 0-.029.002-.137.023-.197.091-.273.091-.001-.007-.002-.016-.001-.027 0-.024.003-.052.003-.08 0-.016 0-.03-.008-.051-.004-.021-.04-.057-.076-.054-.043.003-.059.021-.078.034-.026.022-.05.046-.071.065-.007.006-.014.011-.019.015.002-.005.007-.015.017-.026.05-.06.194-.139.314-.186.12-.05.241-.181.362-.302.058-.06.116-.118.163-.159.045-.043.088-.064.089-.063.014-.002.034-.002.058-.002.118 0 .324.022.529.022.042 0 .083-.001.125-.003.231-.014.361-.107.392-.098.007.001.006 0 .016.007.095.08.263.165.407.168.011 0 .022-.001.034-.002.051-.007.086-.008.126-.037.034-.024.06-.055.148-.13.168-.146.333-.218.439-.358.04-.061.164-.124.212-.12.003 0 .007 0 .009 0 .001.019.001.04.001.061v.047c.001.037 0 .075.017.115.016.044.071.079.122.075.009 0 .017-.001.025-.002-.044.034-.079.062-.102.078-.049.036-.156.076-.266.125-.11.051-.227.114-.303.223-.11.159-.202.244-.202.435 0 .015 0 .029.001.045.018.189.158.386.154.52 0 .03-.006.055-.019.079-.108.196-.145.456-.146.459-.005.032.014.062.044.072.029.012.062-.001.079-.029 0 0 .036-.061.098-.142.062-.082.15-.184.25-.262.226-.174.358-.413.426-.492.016-.024.085-.054.154-.082.035-.015.069-.03.102-.055.03-.024.062-.065.061-.117-.002-.082.057-.217.097-.343.008-.023.012-.045.012-.065 0-.041-.018-.073-.027-.088-.009-.016-.008-.014-.009-.02 0-.005.003-.023.02-.057.041-.085.058-.143.093-.173.033-.031.106-.062.29-.062.298 0 .269.018.416.019.035 0 .08-.002.142-.004.164-.008.281-.064.386-.124.105-.061.2-.124.335-.167.22-.069.405-.119.501-.117.029 0 .048.005.054.008.037.019.077.028.116.028.03-.001.06-.005.09-.021.029-.015.058-.053.057-.096-.001-.04-.019-.072-.043-.103-.041-.048-.095-.097-.139-.143-.017-.018-.033-.034-.044-.049.037-.01.077-.022.117-.043C48.902 18.905 48.952 18.853 48.975 18.777zM44.563 34.351c-.082-.107-.137-.208-.133-.238l.001-.004c.001-.005.001-.011.001-.016.001-.052-.026-.097-.059-.125-.095-.076-.231-.095-.29-.155-.035-.03-.071-.128-.094-.239-.024-.112-.042-.238-.077-.338-.07-.199-.204-.325-.325-.486-.051-.067-.098-.191-.132-.298-.017-.053-.033-.102-.047-.141-.006-.019-.014-.036-.023-.052-.007-.007-.011-.021-.024-.033.064-.039.101-.106.135-.167.044-.082.082-.172.101-.192.008-.015.089-.052.15-.048.026 0 .048.006.059.012.011.007.013.009.016.02.027.151.114.307.283.408.117.067.234.138.334.143.036.006.101-.028.106-.083.002-.012.002-.021.002-.029-.001-.063-.024-.151-.058-.239-.038-.086-.077-.17-.158-.211-.026-.009-.098-.081-.15-.158-.053-.076-.091-.169-.089-.19-.001-.089-.066-.141-.116-.172-.053-.033-.105-.059-.13-.086-.057-.045-.127-.29-.359-.349-.172-.041-.21-.107-.423-.233-.132-.079-.328-.107-.486-.107-.063 0-.118.005-.165.015-.023.005-.043.012-.064.024-.004.002-.009.005-.015.009-.024-.017-.057-.036-.098-.052-.087-.035-.165-.035-.211-.04-.023-.002-.037-.006-.042-.01-.004-.003-.005-.002-.011-.017-.023-.068-.077-.135-.161-.135-.071.002-.132.044-.191.115-.021.025-.04.045-.056.064-.015.02-.035.037-.038.083-.001.026.015.053.031.066.046.035.089.039.176.06.076.016.133.026.164.036l.001 0c-.004.007-.009.015-.016.025-.064.091-.12.186-.122.276-.006.04.028.107.086.115.014.002.026.003.039.003.076-.001.18-.027.236-.026.002 0 .004.001.007.001 0 .01.001.027.013.049.019.034.049.048.083.059.035.012.082.023.154.036.236.048.253.119.314.188.018.022.05.062.077.104.012.017.022.035.03.051-.044.01-.081.035-.111.062-.038.038-.07.075-.074.136-.004.038.037.09.078.093.016.003.03.004.045.004.074 0 .177-.02.229-.02h.001c.015.039.044.099.083.162.048.07.102.15.196.17-.011.017-.015.033-.025.057-.035.094-.074.265-.074.412.002.073.007.14.044.198.012.018.019.046.019.085.002.118-.078.306-.128.446-.005.014-.01.022-.012.026-.005-.001-.013-.004-.024-.011-.051-.029-.127-.112-.202-.167-.138-.098-.311-.161-.378-.246-.002-.002-.005-.005-.005-.02-.001-.033.024-.103.054-.173.029-.071.063-.142.065-.218 0-.025-.006-.052-.02-.078-.052-.079-.136-.082-.21-.085-.066.001-.134.01-.191.02-.028.005-.052.009-.071.013-.004.001-.009.002-.013.002-.011-.013-.035-.039-.058-.065-.034-.034-.072-.079-.144-.082-.052 0-.082.039-.093.063-.016.036-.025.076-.03.116-.024-.029-.049-.062-.077-.096-.014-.015-.024-.028-.035-.038-.013-.009-.02-.024-.061-.027-.04-.002-.069.038-.07.051-.004.016-.004.025-.004.035 0 .023.003.048.003.076 0 .047-.008.096-.037.13-.056.067-.078.091-.097.13-.017.038-.017.06-.041.132-.008.025-.017.036-.02.039-.004.003-.003.003-.003.003h-.002c-.008.006-.076-.035-.137-.121-.048-.066-.102-.104-.164-.105-.097.006-.14.072-.174.087-.071.05-.096.128-.131.209-.029.077-.058.159-.067.174v-.001c-.011.014-.086.051-.16.083-.075.037-.151.067-.2.123-.048.06-.066.142-.082.225-.011.063-.018.123-.02.164-.026.006-.078.012-.129.018-.069.011-.142.02-.202.068-.023.02-.055.027-.099.028-.052.001-.114-.013-.173-.014-.055.003-.089.027-.136.058-.135.089-.325.265-.395.317-.091.075-.107.199-.111.309.002.079.011.148.045.204.034.047.093.163.097.201-.059.044-.072.114-.075.196 0 .095.033.212.121.318.095.118.094.151.096.192 0 .012-.001.027-.001.045 0 .014 0 .03.003.047.008.059.037.104.069.144.032.041.07.083.118.154.009.013.011.022.011.03.002.019-.03.068-.085.114-.051.049-.113.086-.147.156-.009.02-.012.041-.012.061.007.137.125.24.19.313.049.048.114.059.175.059.097 0 .199-.03.274-.06.068-.027.129-.071.185-.108.053-.038.105-.068.118-.07.027-.005.138-.014.233-.019.097-.005.185-.009.185-.009.024-.002.044-.014.056-.034 0 0 .126-.226.21-.34.011-.018.043-.031.095-.031.043-.001.093.009.131.019.038.01.062.02.062.02.023.008.046.004.065-.01 0 0 .003-.003.016-.011.04-.025.153-.088.374-.143.056-.014.093-.019.116-.019.024.001.026.004.027.004 0 0 0-.001.001.004.008.01.018.095.105.13.122.047.268.079.334.139.009.008.014.02.015.05.001.063-.037.154-.05.221 0 .002-.002.008-.002.016-.001.044.033.079.06.089.027.013.053.015.079.016.041 0 .085-.009.124-.026.038-.017.082-.041.096-.104.006-.039.042-.096.134-.168-.002.024-.004.052-.004.081 0 .041.004.086.019.129.007.017.015.032.028.048.013.014.037.03.064.03.031-.002.049-.013.061-.025.011.02.02.036.022.047.016.047.044.058.063.07.03.018.06.033.08.051.019.019.03.034.031.072 0 .076-.001.137.005.188.007.05.013.097.057.136.037.025.058.022.085.029.081.014.174.027.225.13.032.064.068.114.138.118.07-.004.097-.049.121-.08.022-.033.041-.067.054-.088h.003c.035-.006.15.063.17.093.018.024.051.037.077.036.076-.006.115-.05.176-.089.059-.041.126-.085.196-.107.093-.031.132-.04.174-.064.045-.03.055-.064.077-.103.06-.114.094-.343.2-.51.116-.188.272-.507.275-.775-.002-.246-.008-.801-.16-1.088C44.742 34.588 44.642 34.461 44.563 34.351z"/><path fill="#529DF7" d="M29.842 17.762L29.842 17.762c.095.036.244.049.367.13.087.057.192.094.295.095h.002c.079 0 .161-.026.217-.093.037-.044.05-.096.05-.144 0-.05-.014-.095-.036-.134-.021-.037-.049-.072-.1-.086-.001 0 0-.001 0-.001-.001-.002-.003-.006-.003-.014 0-.017.012-.057.087-.107.167-.108.338-.237.503-.262.098-.015.273-.028.432-.028.13 0 .254.009.307.026.02.006.039.008.058.008.106-.002.197-.065.279-.134.079-.07.145-.148.18-.206.012-.02.019-.043.019-.066-.002-.062-.044-.101-.082-.122-.042-.022-.089-.034-.139-.034-.067 0-.144.023-.188.093-.005.023-.123.06-.237.056-.09.001-.184-.015-.198-.023-.023-.009-.038-.009-.057-.009-.089.001-.25.033-.413.063-.158.032-.321.062-.361.061-.099.002-.157.069-.206.124-.052.058-.103.116-.177.155-.178.092-.418.228-.503.272-.094.055-.159.16-.166.265C29.769 17.687 29.791 17.743 29.842 17.762zM10.32 19.296c-.02 0-.043.004-.066.012l0 0c-.054.016-.103.059-.103.12.01.095.085.133.162.138.021 0 .044-.005.065-.014.051-.024.084-.074.083-.124 0-.035-.014-.068-.04-.093C10.396 19.31 10.359 19.296 10.32 19.296zM12.331 26.988L12.331 26.988 12.331 26.988c-.095.025-.123.116-.123.186 0 .042.01.086.033.124.022.037.067.073.122.073 0 0 .001 0 .001 0 .018 0 .037-.004.055-.01.081-.028.121-.106.118-.172-.002-.093-.057-.198-.174-.204-.01 0-.02 0-.031.003l0 0H12.331zM11.682 26.781c-.082 0-.157.019-.206.029-.075.021-.135.082-.205.143-.065.06-.119.118-.119.118-.017.018-.023.044-.016.066.008.023.026.041.05.046.003 0 .14.031.24.031.053-.002.093.041.181.097.026.016.054.021.079.021.058-.001.107-.024.15-.042.021-.009.04-.018.054-.023.002-.001.004-.002.006-.002.006.006.015.016.023.025.018.014.024.04.083.047.05-.001.075-.044.081-.064.009-.026.012-.051.014-.089.001-.009.002-.017.002-.026-.002-.227-.192-.328-.3-.358C11.759 26.784 11.72 26.781 11.682 26.781z"/><polygon fill="#529DF7" points="10.602 22.446 10.608 22.439 10.602 22.446"/><path fill="#529DF7" d="M10.486 22.646c.033-.041.068-.081.095-.11.01-.011.02-.02.028-.026.014.003.026.002.039.003.058 0 .135-.013.195-.013.017 0 .031.001.042.003-.029.014-.078.034-.13.057-.059.028-.094.038-.132.053-.038.015-.079.044-.108.09-.007.015-.052.043-.11.07-.009.005-.02.01-.03.015C10.396 22.759 10.439 22.703 10.486 22.646zM10.288 22.245c.012.019.021.039.028.058-.001 0-.002-.001-.003-.002-.017-.018-.029-.041-.031-.067C10.285 22.239 10.287 22.242 10.288 22.245zM10.25 22.873c-.008.006-.014.013-.02.021-.032.04-.086.072-.117.081.006-.008.011-.017.015-.026.002-.001.003-.003.006-.004C10.155 22.925 10.205 22.896 10.25 22.873zM9.916 22.16c.01 0 .02 0 .033-.005l-.022-.063.024.059.001.003c.011-.003.058-.008.107-.007.037 0 .078.002.113.005-.016.009-.017.021-.022.024-.017.03-.026.062-.035.108-.009.044-.017.095-.017.145 0 .04.003.079.024.117.002.003.002.004.002.007.002.005-.013.035-.04.058-.013.011-.028.021-.04.027 0 0-.001 0-.002 0-.01-.026-.026-.085-.024-.146 0-.016 0-.031.002-.047.001-.012.001-.022.001-.032 0-.108-.055-.213-.15-.259C9.886 22.158 9.901 22.16 9.916 22.16zM9.774 22.129c-.005 0-.009 0-.013 0-.01 0-.02.001-.031.002-.18.022-.256.192-.288.212-.043.044-.046.088-.056.141-.007.052-.011.11-.011.161 0 .051.002.093.009.124.002.007.003.028.003.051 0 .035-.005.077-.016.101-.013.027-.014.025-.023.026-.001 0-.003 0-.005 0 0 0-.004.002-.015-.027-.009-.027-.014-.071-.014-.116 0-.056.006-.113.011-.145.002-.015.002-.03.002-.047 0-.071-.012-.163-.012-.245 0-.053.006-.102.018-.129.029-.081.156-.129.251-.141.003 0 .008 0 .015 0 .036-.001.099.014.157.029C9.763 22.127 9.768 22.128 9.774 22.129zM8.801 21.812L8.801 21.812c.009-.009.074-.024.171-.068l-.027-.06.028.06c.078-.036.149-.093.213-.139.056-.044.112-.072.126-.073.081.093.2.194.314.226-.005.014-.013.034-.023.051-.009.015-.018.028-.026.036 0 .001-.001.002-.003.003-.04-.001-.159-.033-.263-.033-.037-.003-.028-.005-.037-.012-.004-.004-.007-.013-.018-.027-.008-.014-.038-.039-.073-.038-.009 0-.02.001-.031.005-.048.015-.165.044-.253.097-.017.011-.045.018-.067.017-.017 0-.03-.004-.034-.007C8.797 21.825 8.801 21.813 8.801 21.812zM9.689 18.673c-.005.001-.011.003-.018.005-.015.004-.025.005-.031.005-.016-.001-.009 0-.02-.008-.003-.003-.006-.008-.014-.014C9.635 18.664 9.664 18.668 9.689 18.673zM9.152 18.027c.024 0 .048-.002.075-.004.022-.002.043-.003.065-.003.063 0 .122.008.166.016.008.001.015.002.022.004 0 .01-.002.02-.003.032-.004.021-.009.042-.015.056-.003.006-.005.011-.007.013-.02.009-.06.018-.103.035-.044.017-.1.057-.119.126 0 .003-.001.005-.002.008.002-.017.004-.034.004-.052 0-.053-.014-.121-.071-.169-.032-.027-.061-.055-.098-.069C9.093 18.025 9.121 18.028 9.152 18.027z"/><polygon fill="#529DF7" points="8.189 17.545 8.185 17.52 8.19 17.545"/><path fill="#529DF7" d="M14.653,30.449c-0.016,0.023-0.014,0.035-0.105,0.059c-0.022,0.005-0.04,0.006-0.054,0.006
			c-0.008,0-0.014,0-0.02-0.001c0.007-0.005,0.015-0.01,0.027-0.013c0.049-0.012,0.102-0.033,0.155-0.061
			C14.656,30.444,14.654,30.447,14.653,30.449z"/><circle cx="14.876" cy="30.799" r=".001" fill="#529DF7"/><path fill="#529DF7" d="M24.325 23.519c-.005.002-.099-.019-.177-.02-.041.001-.085.004-.127.033-.022.014-.039.047-.037.073.006.068.042.093.076.129.036.032.075.06.111.078.015.006.041.03.067.059.028.027.053.062.107.08l0 0 0 0 0 0c.019.006.037.008.057.008.037-.001.081-.006.122-.031.041-.023.081-.076.078-.139 0-.023-.004-.048-.011-.073C24.53 23.529 24.363 23.515 24.325 23.519zM40.78 28.092c0 0-.003 0-.006 0-.048.004-.061.025-.078.042-.045.053-.089.138-.091.231 0 .025.004.052.016.078l-.001-.002c-.052-.062-.116-.129-.215-.132-.024 0-.048.005-.072.015-.032.016-.039.033-.052.05-.034.054-.066.134-.068.216 0 .031.005.065.028.097.022.034.066.053.107.051.068 0 .173.014.252.014.027 0 .051-.001.076-.008.013-.004.027-.009.043-.021.015-.013.03-.038.029-.063-.001-.024-.009-.04-.018-.054-.016-.023-.042-.069-.076-.118.03.028.074.041.119.04.006 0 .012 0 .019-.001.129-.003.213-.101.209-.197C40.999 28.217 40.914 28.105 40.78 28.092zM44.212 37.577c-.077.006-.13.051-.194.089-.031.02-.061.039-.083.052-.011.007-.021.012-.028.014l-.002.001c-.057-.016-.182-.07-.182-.07-.026-.012-.058-.005-.077.018-.033.039-.054.08-.054.126.004.085.064.121.095.151.036.03.05.048.048.068 0 .005-.001.009-.001.017-.004.015-.007.032-.007.048-.001.046.023.094.06.116.035.023.072.027.106.027.074-.002.144-.024.185-.042.043-.023.057-.052.083-.09.067-.113.144-.296.147-.414 0-.013-.001-.027-.005-.041C44.296 37.606 44.244 37.573 44.212 37.577z"/><path fill="#529DF7" d="M40.857 28.667c-.015-.013-.034-.019-.053-.017-.019.003-.037.013-.047.03-.05.077-.085.127-.107.153-.009.009-.015.015-.019.018-.011-.005-.04-.024-.081-.043-.026-.013-.054-.019-.081-.019-.081.001-.151.043-.206.09-.054.051-.098.103-.102.178 0 .017.003.035.012.053.031.053.08.06.116.065.058.008.122.005.175.012.054.008.078.022.085.04.023.049.037.083.059.114.02.033.065.059.105.059.002 0 .004 0 .007-.001.03 0 .058-.007.093-.016.081-.02.143-.079.191-.146.048-.068.08-.145.081-.222 0-.022-.002-.043-.01-.065C41.025 28.815 40.86 28.672 40.857 28.667zM40.518 32.29c.021.024.053.033.078.033 0 0 .001 0 .003 0 .077-.004.13-.049.183-.087.032-.025.059-.049.074-.063.022-.005.057-.014.094-.029.03-.012.062-.028.09-.054.028-.025.053-.066.053-.114-.002-.07-.041-.122-.086-.164-.047-.039-.105-.07-.172-.072-.051-.001-.11.026-.142.079-.031.052-.081.108-.125.167-.043.059-.085.121-.087.201 0 .007 0 .015.002.024C40.486 32.239 40.495 32.268 40.518 32.29zM40.158 30.474c.009 0 .021-.001.031-.002.14-.015.438-.061.485-.06.079-.008.103-.058.133-.1.027-.046.047-.09.05-.141-.001-.014-.002-.031-.015-.052-.012-.021-.044-.038-.067-.036-.076.003-.385.07-.46.094-.001 0-.003 0-.007 0-.029 0-.087-.008-.136-.017-.048-.007-.091-.016-.091-.016-.023-.004-.048.003-.063.023-.036.042-.056.089-.056.139 0 .047.022.094.059.123C40.058 30.46 40.105 30.474 40.158 30.474zM22.646 23.178c-.069.005-.106.052-.143.12-.007.013-.013.03-.013.047 0 .043.029.073.053.085.024.014.048.018.074.018.043 0 .102-.015.13-.078l0 0c.009-.02.011-.039.011-.057 0-.028-.006-.055-.022-.081C22.722 23.207 22.69 23.178 22.646 23.178z"/><path fill="#529DF7" d="M40.166 31.084c0 .047.012.113.062.189.093.14.242.151.292.151.012 0 .019-.001.021-.001.034-.002.061-.033.06-.068 0-.003-.003-.095-.025-.204-.023-.107-.056-.232-.157-.303-.018-.012-.037-.026-.053-.038.008 0 .016.001.023.001.059-.001.11-.013.152-.041.041-.027.069-.076.068-.127 0-.022-.005-.044-.014-.066-.047-.092-.136-.092-.207-.095-.087 0-.177.017-.22.026-.001 0-.004.001-.007.001-.019 0-.056-.011-.084-.025-.028-.014-.048-.026-.048-.026-.018-.012-.041-.014-.061-.006-.06.021-.095.081-.103.13-.011.051-.014.105-.025.177-.013.09-.075.163-.08.268-.003.045.023.098.066.128.022.017.049.025.074.025.089-.005.14-.064.193-.108.024-.023.047-.045.066-.059C40.165 31.032 40.164 31.051 40.166 31.084zM27.772 18.742c.099 0 .21-.018.337-.063-.027.048-.024.092-.025.132 0 .012 0 .025 0 .037 0 .018-.001.036-.002.046-.04.013-.059.024-.077.024-.017 0-.047-.006-.101-.048-.064-.047-.103-.071-.156-.073-.036-.001-.068.02-.081.036-.014.015-.021.022-.022.024-.014.014-.091.059-.119.063 0-.001 0-.002 0-.002-.002-.029-.003-.052-.003-.073v-.016c.003-.041-.003-.09-.029-.138C27.576 18.72 27.667 18.742 27.772 18.742zM26.831 19.545c.014-.034.015-.029.04-.034.03-.001.086.022.127.057.021.017.039.036.05.052.008.011.011.02.013.025 0 0-.002.001-.004.002-.007.003-.019.006-.035.006-.038 0-.095-.016-.135-.041-.042-.024-.059-.053-.056-.06 0-.003 0-.003 0-.005l-.062-.02L26.831 19.545zM26.482 22.657c.094-.077.179-.231.258-.385.055-.106.105-.117.141-.118.007 0 .014.001.019.001.014.012.064.078.101.146.042.074.082.155.098.193.014.043.065.077.106.074.056-.002.093-.028.128-.049.033-.023.064-.047.074-.053.071-.046.148-.135.17-.243 0-.006.009-.023.046-.039.021-.01.048-.017.08-.022-.013.008-.025.015-.035.017-.021.008-.039.016-.057.032-.017.014-.033.042-.033.07.004.058.038.082.069.107.033.024.076.045.13.067.127.048.269.212.442.326.08.051.118.138.117.189-.002.034-.01.038-.012.039l0 0c-.068.021-.288.047-.417.046-.029 0-.055-.002-.071-.004-.075-.003-.224-.141-.412-.18-.052-.01-.106-.015-.16-.015-.131.002-.266.025-.338.137-.006.019-.062.039-.141.037-.067 0-.138-.009-.193-.009-.068.001-.119.035-.162.061.006-.036.011-.076.011-.113-.003-.046 0-.106-.06-.146C26.381 22.788 26.444 22.681 26.482 22.657zM25.395 19.101c.086-.102.113-.191.112-.259 0-.031-.005-.058-.009-.076.01-.001.023-.003.04-.003.089-.006.181-.012.255-.012.039 0 .073.002.097.005-.033.035-.095.088-.164.136-.097.07-.208.141-.287.185-.018.01-.034.02-.05.033C25.392 19.106 25.393 19.103 25.395 19.101zM23.698 20.094c-.001-.008.023-.057.054-.089.012-.012.023-.024.033-.032.012.066.038.133.063.198.027.073.051.144.049.174 0 .005 0 .009 0 .01-.008.027-.012.054-.012.082.001.038.008.077.031.111.023.034.068.059.113.058.01 0 .021-.001.029-.003.097-.017.559-.136.56-.136l.014-.005c.002-.006.156-.067.165-.23 0-.013-.002-.026-.005-.039 0-.005-.001-.008-.001-.011-.002-.027.03-.089.074-.141.043-.054.091-.097.114-.126.027-.034.102-.12.107-.231.003-.064-.044-.136-.122-.162-.056-.02-.105-.035-.133-.049-.011-.005-.017-.01-.021-.013 0-.003.003-.009.008-.018.01-.016.029-.039.056-.068.076-.075.116-.069.203-.083.069-.008.158-.034.251-.121-.034.049-.049.105-.048.158 0 .072.025.139.061.189.019.027.043.095.07.158.014.031.03.063.054.091.023.028.063.054.11.054.013 0 .026-.002.037-.005.125-.037.251-.124.336-.12.007 0 .012 0 .017.001.029.004.062.005.096.005.117 0 .267-.016.314-.019.012.01.037.035.055.061.015.019.025.041.032.056-.08.017-.204.008-.405.022-.106.008-.218.012-.308.019-.045.004-.083.009-.116.017-.016.005-.031.009-.049.02-.016.009-.042.033-.042.071.002.036.017.05.027.062.035.036.083.06.128.09.016.012.031.023.043.032-.009.005-.019.005-.029.006-.045.004-.125-.044-.232-.06-.007 0-.015 0-.022 0-.101.002-.16.077-.2.148-.042.072-.07.156-.089.216-.011.033-.013.067-.013.098 0 .04.004.078.004.105 0 .009 0 .015-.001.021-.007-.001-.017-.005-.028-.009-.123-.049-.226-.069-.306-.069-.051 0-.093.007-.13.028-.039.024-.192.086-.316.13-.013.005-.022.006-.025.006-.009-.008-.067-.085-.179-.085-.005 0-.009 0-.012 0-.164 0-.164 0-.164 0l-.009.001-.071.011c-.024-.025-.062-.076-.068-.133 0-.009-.001-.018-.001-.027 0-.059.016-.125.018-.188.001-.036-.01-.096-.066-.124-.031-.013-.057-.016-.088-.016-.034 0-.072.005-.11.014C23.643 20.186 23.688 20.154 23.698 20.094zM24.983 23.186c-.014-.01-.238-.195-.34-.248-.085-.043-.235-.131-.297-.257-.047-.091-.121-.142-.172-.184-.054-.044-.075-.068-.075-.104 0-.003 0-.006.001-.008 0-.011.001-.017.003-.02l0 0c.002-.001.003-.001.004-.001.028 0 .116.052.166.117.113.132.366.3.44.392.11.122.231.166.252.262C24.971 23.153 24.977 23.169 24.983 23.186zM22.397 21.441l0 .001c-.014.029-.014.034-.046.041-.008.001-.018.002-.026.004C22.35 21.475 22.374 21.459 22.397 21.441zM27.125 30.656c-.022.04-.048.076-.07.098-.011.011-.022.018-.028.022l-.002.001c-.005-.005-.011-.017-.015-.037-.007-.027-.012-.066-.011-.106-.002-.09.021-.198.03-.213 0 0 .001-.002.006-.006.017-.013.068-.028.11-.028.001 0 .003 0 .004 0 .021 0 .038.002.048.007.002 0 .004.001.005.002.001.005.003.013.003.024C27.206 30.473 27.172 30.576 27.125 30.656z"/><path fill="#529DF7" d="M27.175 24.812c-.008.015-.01.016-.01.016s-.006.004-.031.004c-.04.001-.083-.001-.127.01-.037-.054-.09-.102-.17-.105-.016 0-.033.003-.051.008-.071.022-.168.033-.265.07.002-.007.003-.015.003-.022 0-.017-.004-.036-.014-.051-.039-.052-.087-.061-.138-.071-.051-.009-.108-.011-.168-.011-.097 0-.197.006-.267.006-.131.003-.261-.109-.413-.15-.014-.003-.029-.005-.044-.005-.091.002-.167.054-.239.117-.072.062-.14.141-.199.211-.046.054-.068.057-.092.058-.036.003-.094-.033-.185-.036-.022.004-.105-.038-.167-.085-.064-.046-.115-.093-.115-.093l-.016-.01c0 0-.056-.027-.123-.055-.068-.027-.142-.056-.209-.058-.001.001-.02-.005-.044-.021-.039-.024-.087-.064-.131-.098-.021-.018-.043-.034-.063-.048-.021-.011-.036-.025-.072-.028-.005-.002-.026-.017-.041-.034-.014-.015-.021-.032-.021-.038 0 0 .001-.001.003-.002.017-.01.037-.01.074-.015.018-.003.045-.008.07-.033.024-.026.031-.059.031-.088-.002-.05-.015-.11-.045-.211-.062-.218-.204-.303-.325-.299-.079 0-.144.027-.184.048 0 0-.005.002-.013.004-.07.016-.284.022-.457.021-.134 0-.246-.002-.268-.002-.038.002-.062.012-.11.028-.133.046-.358.142-.45.191-.106.055-.293.126-.362.163-.002 0-.005.001-.009.001-.042 0-.148-.021-.247-.022.012-.027.024-.055.037-.082.008-.015.015-.029.021-.039.026.01.053.013.079.013.092-.001.196-.038.269-.047.085-.012.139-.07.186-.12.045-.051.087-.103.132-.132.026-.018.046-.032.062-.05.016-.017.033-.042.033-.074-.002-.041-.021-.06-.03-.075-.01-.015-.02-.029-.028-.048-.001-.002-.001-.003-.001-.005-.002-.006.017-.045.057-.087.039-.043.092-.091.136-.142.022-.028.058-.034.119-.04.03-.003.063-.006.098-.021.036-.015.072-.052.085-.099.02-.065.032-.144.05-.203.009-.029.019-.053.026-.063.001-.003.003-.004.005-.005.085.013.218.087.335.091.08-.005.146-.052.216-.099.066-.046.13-.098.145-.106v-.002l0 .001c.004-.002.016-.005.031-.005.028 0 .064.008.088.022.026.014.04.03.045.058.019.095.088.174.154.24.067.067.134.117.167.136.037.022.127.057.223.097.047.02.092.04.13.057.037.017.066.035.066.035.032.026.11.162.13.267.016.074.055.14.135.145.078-.002.115-.071.122-.135.001-.013.001-.024.001-.035 0-.069-.017-.146-.019-.191.005 0 .01 0 .015 0 .095 0 .173-.038.179-.039.021-.009.034-.029.038-.052v-.003c.053.113.129.213.155.256.012.018.056.12.096.218.041.1.081.2.103.244.019.042.068.068.107.065.098-.006.171-.075.226-.123.02-.02.063-.044.108-.079.044-.034.092-.091.1-.173 0-.008 0-.014 0-.021-.001-.089-.055-.15-.104-.197-.025-.023-.052-.044-.074-.061.01-.006.022-.012.033-.017.037-.02.078-.039.112-.071.037-.039.104-.087.123-.092.001 0 .001.001.001.001.011.014.025.133.026.238.001.054.002.107.004.153.003.047.003.078.017.114.021.044.049.059.08.081.046.03.105.059.157.089.051.027.094.061.097.068.068.088.183.107.278.111.042-.003.08-.001.12-.036.002 0 .004 0 .007 0 .051-.001.182.043.224.056.017.006.031.007.045.007.085-.002.206-.041.295-.066.042-.014.082-.031.104-.04.001.006.001.013.001.021 0 .008 0 .017-.001.027-.01.191-.055.487-.161.609C27.215 24.712 27.191 24.781 27.175 24.812zM28.458 27.88c-.034-.039-.042-.065-.093-.086v0c-.011-.005-.062-.054-.106-.116-.046-.063-.093-.144-.118-.22-.064-.183-.151-.413-.261-.561-.085-.111-.154-.431-.258-.653-.098-.206-.186-.477-.277-.678-.01-.025-.022-.048-.034-.071.055-.017.11-.031.14-.03.005 0 .009 0 .011.001.036.128.166.341.187.484.012.104.082.158.123.18.041.029.044.021.052.072.008.088.043.216.084.335.02.059.042.114.062.16.023.045.035.078.066.107.02.018.091.091.157.166.065.074.131.161.141.188.037.09.084.202.121.422.019.112.038.246.066.36.004.016.009.032.014.048C28.507 27.949 28.482 27.911 28.458 27.88zM29.638 22.629c.014.03.058.047.078.045.031-.001.042-.007.048-.006.005.001.004-.001.01.005.056.042.081.121.135.222.035.064.093.091.131.104.032.012.051.019.068.032-.009.011-.026.03-.044.05-.025.029-.06.062-.062.126-.001.037.02.074.047.098.026.02.07.129.095.238.024.101.038.204.045.253-.012.009-.049.029-.094.039-.055.014-.12.022-.162.022-.014 0-.025-.002-.032-.002-.07-.011-.334-.115-.427-.148-.016-.014-.053-.126-.049-.202 0-.026.003-.049.007-.061.011.002.021.002.031.002.054.001.107-.021.145-.055.039-.033.075-.076.13-.134.027-.029.046-.066.046-.106 0-.054-.032-.092-.063-.115-.091-.069-.239-.096-.288-.114 0 0 0 0-.002-.002-.025-.014-.093-.103-.148-.195-.058-.092-.111-.191-.142-.242-.011-.018-.017-.041-.017-.068-.001-.067.044-.161.142-.238l.001-.001c.001 0 .006-.001.013-.001.044-.003.141.038.239.039.039 0 .084-.008.122-.037.096-.071.19-.155.232-.189.023 0 .087.014.138.037.055.021.098.059.097.065.023.054.061.1.094.145.017.022.03.042.04.057 0 .001 0 .003.001.004-.029.011-.088.027-.137.026-.052.001-.093-.016-.101-.029-.031-.038-.079-.058-.124-.057-.127.004-.242.118-.257.275-.002.015-.002.028-.002.041C29.623 22.579 29.624 22.601 29.638 22.629zM33.793 18.245c-.036.017-.073.025-.105.025-.059-.001-.089-.025-.092-.043-.014-.062-.068-.112-.128-.118.011-.005.02-.009.031-.011.067-.019.157-.047.21-.046.02 0 .031.004.032.006 0 .002.001-.003.004.013.006.058.028.104.045.135.007.014.013.025.017.033C33.802 18.24 33.798 18.242 33.793 18.245zM34.588 17.917c0 .001-.002.002-.002.002-.008.007-.019.01-.027.01-.014-.004-.03.002-.041-.068-.007-.068-.012-.122-.052-.171-.021-.023-.043-.04-.071-.054.04.02.076.038.105.054.016.009.029.017.039.025.004.003.007.006.008.007v-.001c.017.024.046.114.045.166C34.592 17.901 34.59 17.912 34.588 17.917z"/><path fill="#529DF7" d="M23.518 23.022c-.073 0-.125.047-.155.097-.03.051-.046.111-.046.169.001.052.012.107.054.149.039.039.086.067.14.067.077-.002.136-.055.178-.125l-.057-.034.057.034c.02-.033.028-.069.028-.103 0-.066-.027-.124-.06-.168C23.62 23.063 23.584 23.026 23.518 23.022zM18.326 17.434c.013-.001.026-.002.041-.002.066-.001.144.015.216.016.038-.001.076-.004.116-.027.039-.025.062-.076.061-.124 0-.003 0-.006-.001-.01l-.066.001.066-.003c-.002-.033-.002-.067-.002-.1-.001-.121.014-.239.042-.288.013-.027.036-.055.059-.082.021-.029.049-.046.055-.107.002-.035-.026-.07-.05-.08-.028-.016-.056-.017-.074-.017-.01 0-.016 0-.023 0-.015 0-.015-.001-.018-.002-.003-.003-.016-.015-.031-.056-.008-.023-.011-.044-.011-.063-.001-.075.056-.144.103-.19.036-.036.128-.145.238-.257.107-.111.235-.221.297-.241.154-.057.265-.194.272-.328.002-.053-.032-.117-.092-.139-.073-.029-.191-.075-.319-.076-.095 0-.199.027-.282.111-.072.072-.13.14-.18.185-.08.069-.128.076-.193.059-.061-.015-.104-.073-.146-.159-.041-.085-.074-.188-.135-.271-.059-.074-.078-.205-.093-.322-.007-.059-.014-.114-.033-.163-.014-.047-.061-.106-.131-.105-.01 0-.02.001-.03.003-.092.018-.131.025-.148.028-.093-.018-.23-.031-.322-.007-.058.016-.108.038-.15.06.002-.007.003-.015.003-.024-.006-.064-.042-.081-.067-.099-.029-.017-.057-.028-.087-.032-.201-.026-.539-.137-.771-.137-.178.002-.292.059-.445.062-.228.009-.519-.015-.732.139-.07.051-.155.083-.226.102-.034.01-.066.017-.091.024-.012.003-.023.006-.035.01-.012.005-.023.005-.045.03-.049.065-.088.154-.124.228-.019.036-.037.069-.052.088l-.001.001c-.017-.023-.036-.061-.053-.1-.012-.024-.026-.049-.045-.073-.045-.055-.114-.066-.18-.016-.088.069-.081.169-.082.247v.008c0 .074-.003.139-.034.185-.031.05-.115.079-.201.078-.063.001-.125-.017-.137-.027-.067-.046-.157-.088-.353-.086-.236 0-.427.039-.564.09-.102.038-.231.102-.231.211-.001.023.006.046.017.065.005.008.005.012.005.014 0 .003-.001.009-.018.021-.015.011-.041.018-.059.018-.006 0-.012-.001-.015-.002l0 0c-.027-.029-.062-.035-.09-.035-.067.001-.132.031-.193.074-.056.044-.112.102-.115.188 0 .005.001.014.002.021 0 .008.001.02.001.03 0 .04-.01.078-.024.099-.016.022-.025.029-.047.03-.006 0-.013-.001-.02-.002-.02-.005-.041-.008-.06-.008-.146.002-.242.12-.251.238-.005.011-.064.051-.126.072-.034.012-.067.022-.092.029-.014.003-.025.006-.033.008-.003 0-.005.001-.007.001h0c-.001 0-.001 0-.001 0-.005 0-.014 0-.024 0-.039 0-.107.001-.17.011-.031.005-.062.011-.092.024-.025.011-.067.039-.068.095.001.045.026.073.052.097.064.058.135.068.183.067.008-.001.016-.001.023-.001.026 0 .051.001.082.009.023.003.075.054.117.115.048.062.073.124.14.162.093.045.21.006.269-.085.011-.018.022-.041.031-.065.016.023.039.045.071.06.035.015.07.019.107.019.109-.001.247-.035.288-.034.004 0 .004 0 .004 0 .031.005.135.022.244.046.107.023.224.056.255.076.064.038.149.06.228.094.079.031.144.073.163.112.024.042.047.19.061.323.008.067.014.132.023.186.01.057.008.088.037.133.014.019.044.035.068.034.009 0 .017-.002.024-.004-.026.083-.027.182.013.258.02.036.048.076.11.08.022-.001.056 0 .084.003-.012.016-.027.037-.04.057-.026.04-.055.079-.057.139 0 .003 0 .009 0 .015.014.097.109.32.147.388.039.055.091.072.145.097.006.002.011.004.016.006-.012.032-.011.063.006.095.016.028.042.091.075.151.034.06.07.123.139.158.032.015.113.07.183.127.07.055.136.128.136.138.015.045.069.071.102.067.061-.002.107-.029.152-.053.012-.006.023-.012.033-.018.006.021.013.045.021.07.018.048.055.118.14.128.015.001.029.002.042.002.002 0 .004 0 .005 0 .101 0 .167-.054.243-.131.12-.12.088-.27.096-.343.003-.032.004-.061.007-.076.003.001.005.001.008.001.133.043.232-.032.232-.166 0-.007 0-.015 0-.022-.007-.068-.031-.128-.029-.154 0-.012.002-.011.002-.013.002-.002.011-.01.042-.015.095-.018.166-.065.221-.102.055-.038.093-.06.113-.057.056-.001.203.022.31.022.027 0 .052-.002.077-.007.023-.005.051-.012.077-.047.044-.074.103-.176.165-.237.01-.01.019-.017.025-.02.003-.003.006-.004.007-.004v0c.083-.011.308-.031.511-.071.107-.022.212-.07.298-.11.075-.039.148-.068.163-.07.069.007.174.014.232-.024.016-.01.039-.037.039-.071-.001-.022-.008-.038-.017-.051.037.006.075.003.11-.006.124-.029.176-.137.172-.213-.001-.049-.012-.088-.036-.122-.015-.015-.045-.121-.077-.198-.006-.014-.009-.027-.009-.036.002-.012.002-.016.011-.025C18.252 17.454 18.277 17.441 18.326 17.434z"/><path fill="#529DF7" d="M14.08 17.715c-.01-.003-.024-.005-.043-.005-.014-.001-.031.001-.049.006.008-.013.015-.024.02-.032.004-.001.01-.002.017-.002.031-.003.082.016.108.033C14.11 17.715 14.091 17.715 14.08 17.715zM14.306 17.998c-.002.019-.007.046-.012.067-.011-.006-.02-.009-.028-.012.011-.031.019-.066.024-.102.011.025.017.044.015.046V17.998zM17.78 17.827c.001-.017.011-.047.022-.069.003-.006.006-.012.009-.017.015.003.034.009.049.016.032.016.04.03.039.038 0 0 0 .001 0 .005-.001.004-.001.012-.001.021 0 .017.001.036.004.053C17.868 17.85 17.828 17.832 17.78 17.827zM19.592 19.094c.009-.006.061-.025.107-.03.052-.008.1-.01.1-.01.015-.001.03-.007.041-.018.002-.001.036-.033.073-.078.035-.047.078-.098.08-.174.001-.027-.01-.061-.033-.084l0 0 0 0c-.092-.092-.251-.137-.341-.151-.007-.002-.015-.002-.022-.002-.116.008-.166.073-.306.072-.124.001-.22.038-.262.036-.021-.001-.021-.001-.031-.012-.082-.087-.23-.112-.341-.117-.024 0-.047.002-.068.007-.022.007-.05.015-.07.051-.005.013-.015.023-.033.044-.016.02-.037.056-.036.1 0 .038.012.077.035.126.033.068.061.123.093.167.032.041.071.08.133.082.008 0 .014 0 .019-.001.017-.003.05-.007.085-.007.036 0 .075.003.101.011.013.004.022.009.027.011 0 0 .001.001.002.001.02.075.091.161.205.161h.004c.034 0 .071-.007.11-.021.07-.024.136-.044.191-.067C19.509 19.171 19.559 19.147 19.592 19.094zM29.718 32.727c-.029-.084-.061-.162-.145-.195l-.022.062.022-.062c-.021-.007-.042-.011-.062-.011-.052-.001-.096.026-.126.058-.081.095-.112.24-.189.338-.058.076-.12.147-.17.195-.026.025-.049.044-.066.055-.008.005-.015.009-.019.011-.007-.002-.012-.002-.018-.002-.058.003-.12.029-.187.078-.063.048-.125.128-.125.235 0 .035.007.073.021.111.038.097.056.195.056.278 0 .097-.025.175-.058.213-.033.041-.042.089-.042.135.004.146.082.333.08.442 0 .011-.001.02-.002.029-.004.025-.007.051-.007.076 0 .074.021.146.074.197.052.051.127.073.213.073h.005c.093 0 .174-.023.234-.079.06-.057.097-.134.136-.235.079-.208.092-.405.162-.555.042-.091.076-.221.106-.341.029-.118.056-.231.07-.264.039-.096.107-.345.109-.529 0-.015-.001-.03-.002-.044C29.762 32.909 29.746 32.811 29.718 32.727zM39.995 32.296c.001 0 .005 0 .007 0 .068 0 .143-.062.147-.149 0-.008 0-.013 0-.02 0-.052-.02-.1-.053-.131-.033-.032-.075-.046-.116-.046-.07-.002-.146.047-.164.133l0 0c-.002.012-.003.025-.003.037C39.814 32.231 39.907 32.296 39.995 32.296zM11.115 26.807c-.005-.072-.046-.119-.095-.173-.051-.049-.108-.095-.187-.097-.007 0-.015 0-.024.002 0 0-.001 0-.004 0-.02.002-.085-.021-.146-.06-.061-.037-.125-.088-.168-.132-.133-.133-.336-.124-.413-.127-.06.002-.148.029-.237.056-.086.027-.163.053-.163.053-.025.008-.042.031-.044.057-.001.008-.001.016-.001.025-.001.049.018.102.059.13.04.026.08.028.12.029.048-.001.1-.007.153-.007.07 0 .158-.006.239-.006.05 0 .097.002.13.008.016.003.029.007.036.01.004.002.006.004.007.004l0 0 0 0c.041.057.111.102.183.152.071.047.145.094.166.116.062.054.147.069.225.071.031 0 .06-.003.089-.013.026-.009.064-.031.075-.078l-.065-.014.065.014C11.115 26.82 11.115 26.813 11.115 26.807zM10.668 27.155L10.668 27.155c-.095.025-.123.116-.123.185 0 .044.009.087.033.125.022.037.067.072.122.072h.002c.018 0 .036-.003.053-.009.083-.027.123-.106.12-.171-.002-.093-.057-.197-.173-.205C10.69 27.151 10.679 27.152 10.668 27.155zM10.812 26.054c-.005-.092-.082-.149-.175-.151-.008 0-.017 0-.028.002-.075.008-.13.075-.128.139 0 .038.014.074.043.102.028.028.07.045.113.045h.002c.016 0 .03-.002.045-.005l-.013-.065.013.065C10.753 26.174 10.812 26.121 10.812 26.054zM39.237 32.002c.027-.013.051-.046.054-.077l-.065-.01.065.008c.001-.006.002-.013.002-.02-.003-.079-.05-.138-.098-.188-.053-.048-.1-.089-.17-.093-.012.001-.114-.021-.196-.044-.086-.022-.164-.044-.164-.044-.016-.005-.034-.004-.049.004-.032.019-.078.031-.121.059-.004-.003-.009-.007-.014-.01-.089-.058-.181-.057-.242-.06-.031-.002-.055-.005-.066-.01-.012-.005-.014-.005-.021-.021-.031-.077-.082-.137-.16-.138-.012 0-.024.002-.035.005.003-.15.033-.32.075-.377l0 0c.031-.045.046-.097.046-.146 0-.039-.01-.079-.034-.112-.023-.035-.067-.059-.114-.058-.008 0-.017 0-.026.002.003 0 .001 0 .001 0s-.01-.002-.029-.018c-.058-.048-.143-.192-.271-.3-.166-.138-.284-.223-.43-.412-.159-.206-.356-.331-.446-.428-.105-.106-.239-.157-.336-.159-.014 0-.028.001-.042.005-.044.005-.092.056-.089.104.003.054.027.09.056.133.044.06.104.122.157.175.051.051.101.097.105.102.023.028.113.122.202.233.089.107.165.241.16.283.002.11.063.247.129.379.068.132.136.241.181.287.038.037.13.105.222.184.092.075.18.168.191.201.032.07.076.127.15.139.003.123.092.193.122.22.061.043.158.06.274.064.025 0 .051-.002.077-.005.042-.005.089-.013.133-.025.015-.005.03-.01.045-.016.003.002.004.004.007.007.086.094.174.162.31.159.019 0 .038-.001.059-.003.009-.001.018-.001.026-.001.086-.001.203.037.294.038C39.185 32.018 39.21 32.016 39.237 32.002zM41.215 29.998c-.085.104-.154.29-.156.433 0 .035.004.068.018.099.012.032.043.064.082.075.012.004.024.005.037.005.116-.011.155-.11.196-.203.038-.099.059-.212.059-.304 0-.031-.002-.059-.009-.086-.008-.026-.02-.058-.057-.079l0 0c-.014-.008-.031-.012-.048-.012C41.278 29.93 41.246 29.963 41.215 29.998zM42.829 23.469c-.038.091-.072.177-.102.238-.014.03-.028.054-.038.065-.001.002-.002.004-.003.005-.027.003-.048.012-.079.023-.108.043-.268.121-.346.209-.003.002-.018.005-.038.005-.085.002-.236-.047-.341-.048-.036.001-.081.002-.116.05-.042.064-.141.155-.205.214-.001.006-.046.018-.1.033-.053.011-.132.07-.127.165 0 .019.002.039.006.06.021.097.054.188.094.26.042.069.084.133.172.139.055 0 .116-.021.164-.071.049-.049.079-.126.079-.222 0-.002 0-.003 0-.005.014.004.036.012.058.022.037.014.077.034.128.034.007 0 .014 0 .022-.001.095-.021.149-.089.185-.168.017.012.038.023.063.03.029.009.056.013.082.013.072 0 .13-.035.161-.076.024-.033.037-.065.042-.095.023-.013.08-.038.134-.059.069-.029.129-.047.175-.084.008-.01.074-.044.134-.076.031-.017.06-.035.087-.054.025-.021.052-.04.065-.086.008-.049.007-.142.014-.239.003-.048.008-.094.014-.126.003-.014.006-.024.009-.031.015-.006.037-.013.062-.029.032-.019.064-.068.061-.12 0-.05-.017-.102-.052-.176-.039-.082-.063-.164-.087-.231-.007-.019-.014-.036-.022-.053.051-.012.101-.026.155-.03.159-.013.303-.06.345-.075.002 0 .005 0 .008 0 .031 0 .088-.001.147-.02.054-.015.13-.062.131-.154 0-.016-.002-.03-.005-.044-.025-.093-.102-.143-.175-.171-.073-.027-.15-.035-.205-.035-.019 0-.034 0-.05.003-.012-.011-.039-.037-.066-.064-.036-.032-.081-.072-.152-.074-.013-.001-.028.002-.042.006-.078.025-.115.089-.139.144-.018.045-.028.085-.032.118-.023.014-.075.039-.123.066-.058.037-.132.071-.141.17-.001.035.016.069.04.094.016.017.033.032.051.043-.048.064-.047.145-.055.226C42.868 23.29 42.861 23.396 42.829 23.469zM39.036 29.615c-.023.036-.038.073-.05.1-.006.014-.011.025-.015.032-.001.004-.003.007-.004.007-.037.033-.073.045-.176.076-.121.041-.157.149-.18.224-.012-.008-.028-.019-.043-.029-.039-.024-.075-.054-.136-.058-.024-.001-.057.011-.076.035-.035.047-.036.094-.037.153 0 .133.037.325.102.501.048.133.134.239.216.312.086.073.152.117.223.123.063 0 .185.001.257.027.048.016.125.028.205.029.052 0 .104-.005.152-.025.046-.017.098-.067.096-.135 0-.004 0-.007 0-.011-.005-.053-.01-.111-.01-.168 0-.102.018-.2.081-.266.048-.053.101-.098.145-.152.043-.053.079-.121.078-.204 0-.037-.006-.076-.019-.117-.054-.157-.135-.275-.128-.315 0-.012 0-.014.011-.025.038-.039.081-.067.122-.098.037-.029.086-.073.086-.145 0-.013 0-.032-.017-.052-.016-.021-.045-.028-.059-.028-.04.003-.049.014-.066.019-.015.006-.029.01-.034.009-.001-.001-.003-.001-.003-.001-.004 0-.006 0-.02-.022-.015-.029-.034-.097-.04-.216-.001-.024-.009-.051-.03-.073-.021-.022-.05-.029-.071-.029-.064.004-.108.036-.154.076-.043.041-.082.09-.091.156-.001.006-.001.014-.001.021 0 .042.014.075.022.099.002.006.004.01.006.015-.013.002-.034.004-.061.003C39.172 29.462 39.08 29.54 39.036 29.615zM40.016 26.076c-.044.087-.069.185-.07.269.001.038.005.075.023.109.016.034.057.065.103.065 0 0 .002 0 .003 0 .004 0 .008 0 .013 0 .104-.019.154-.104.203-.193.046-.092.076-.196.076-.283 0-.033-.004-.065-.021-.098-.016-.032-.059-.061-.1-.059-.008 0-.017.001-.026.003l0 0C40.121 25.912 40.06 25.992 40.016 26.076zM39.855 27.582c0 .038.01.076.027.119l0 0c.042.099.12.174.183.236.033.031.061.059.079.08.007.008.011.015.015.02-.063.072-.244.212-.282.381-.001.007-.002.014-.002.025 0 .014.002.034.017.055.015.02.042.029.06.029h.002c.058-.005.078-.03.117-.058.107-.087.256-.255.317-.351.03-.043.067-.052.123-.061.028-.004.057-.005.089-.013.031-.007.073-.025.095-.068.038-.076.037-.076.037-.076.01-.018.01-.039 0-.058-.008-.019-.025-.032-.045-.036 0 0-.136-.03-.241-.072-.025-.01-.049-.013-.07-.013-.034.001-.067.008-.089.013.001-.011.005-.026.01-.042.026-.094.064-.127.109-.166.042-.033.113-.085.112-.185 0-.018-.002-.036-.006-.056-.021-.105-.07-.177-.123-.22-.054-.043-.101-.059-.143-.06-.044-.006-.097.041-.101.076-.018.095.008.16-.054.211-.047.039-.099.071-.145.112C39.899 27.443 39.855 27.504 39.855 27.582z"/><polygon fill="#BFBFBF" points="34.083 32.595 31.408 23.933 36.758 23.933"/><polygon fill="#B2B1B1" points="34.083 23.933 34.083 32.595 36.758 23.933"/><path fill="#DB4740" d="M38.217,20.982c2.112,4.317-2.136,8.565-6.453,6.453c-0.772-0.378-1.438-1.044-1.816-1.816
				c-2.111-4.317,2.136-8.563,6.452-6.452C37.174,19.544,37.84,20.21,38.217,20.982z"/><path fill="#E64A43" d="M36.817,20.437c2.22,3.114-1.213,6.547-4.328,4.328c-0.078-0.056-0.152-0.129-0.207-0.207
				c-2.22-3.114,1.213-6.547,4.328-4.328C36.688,20.286,36.761,20.36,36.817,20.437z"/><path fill="#EF6A6A" d="M36.373,20.949c0.385,1.098-0.626,2.109-1.724,1.724c-0.345-0.121-0.647-0.422-0.768-0.768
				c-0.385-1.098,0.626-2.109,1.724-1.724C35.951,20.303,36.252,20.604,36.373,20.949z"/><polygon fill="#BFBFBF" points="23.706 23.241 21.102 14.811 26.309 14.811"/><polygon fill="#B2B1B1" points="23.706 14.811 23.706 23.241 26.309 14.811"/><path fill="#82A30D" d="M27.688,11.858c2.164,4.256-2.064,8.484-6.321,6.321c-0.698-0.355-1.29-0.947-1.645-1.645
				c-2.163-4.256,2.065-8.484,6.321-6.321C26.741,10.568,27.334,11.16,27.688,11.858z"/><path fill="#91AF0E" d="M26.775,12.123c1.127,2.568-1.339,5.034-3.907,3.906c-0.574-0.252-1.072-0.75-1.324-1.324
				c-1.126-2.568,1.339-5.033,3.907-3.906C26.025,11.051,26.523,11.549,26.775,12.123z"/><path fill="#ADCD30" d="M25.934,11.905c0.377,1.07-0.609,2.056-1.679,1.679c-0.334-0.118-0.626-0.41-0.744-0.744
				c-0.377-1.07,0.609-2.056,1.679-1.679C25.523,11.279,25.816,11.571,25.934,11.905z"/><polygon fill="#BFBFBF" points="12.849 36.111 10.064 27.096 15.633 27.096"/><polygon fill="#B2B1B1" points="12.849 27.096 12.849 36.111 15.633 27.096"/><path fill="#F5C52E" d="M17.152,24.025c2.198,4.493-2.223,8.914-6.716,6.716c-0.804-0.393-1.497-1.086-1.89-1.89
				c-2.198-4.493,2.223-8.914,6.716-6.716C16.066,22.528,16.759,23.221,17.152,24.025z"/><path fill="#FFCD30" d="M15.688,23.449c2.324,3.246-1.26,6.831-4.507,4.507c-0.076-0.054-0.148-0.126-0.202-0.202
				c-2.324-3.246,1.26-6.831,4.507-4.507C15.562,23.301,15.634,23.373,15.688,23.449z"/><path fill="#FFDA63" d="M15.232,23.99c0.401,1.143-0.652,2.195-1.794,1.794c-0.359-0.126-0.673-0.439-0.799-0.799
				c-0.401-1.143,0.652-2.196,1.795-1.794C14.793,23.317,15.106,23.631,15.232,23.99z"/><polygon fill="#BFBFBF" points="43.269 36.02 41.231 29.421 45.307 29.421"/><polygon fill="#B2B1B1" points="43.269 29.421 43.269 36.02 45.307 29.421"/><path fill="#F5C52E" d="M46.453,27.244c1.517,3.24-1.639,6.396-4.879,4.879c-0.643-0.301-1.188-0.846-1.489-1.489
				c-1.517-3.24,1.639-6.396,4.879-4.879C45.607,26.056,46.152,26.601,46.453,27.244z"/><path fill="#FFCD30" d="M45.363,26.773c1.665,2.363-0.929,4.957-3.293,3.293c-0.069-0.049-0.136-0.115-0.185-0.185
				c-1.665-2.363,0.929-4.957,3.293-3.293C45.247,26.637,45.314,26.704,45.363,26.773z"/><path fill="#FFDA63" d="M45.031,27.2c0.239,0.798-0.48,1.516-1.278,1.278c-0.299-0.089-0.565-0.355-0.654-0.654
				c-0.239-0.798,0.48-1.517,1.278-1.278C44.676,26.635,44.942,26.901,45.031,27.2z"/></svg>