<svg xmlns="http://www.w3.org/2000/svg" id="Icon_Set" enable-background="new 0 0 64 64" viewBox="0 0 64 64"><path fill="#607D8B" d="M57.5,53.5h-43c-1.654,0-3-1.346-3-3V21c0-0.276,0.224-0.5,0.5-0.5h48c0.276,0,0.5,0.224,0.5,0.5v29.5
			C60.5,52.154,59.154,53.5,57.5,53.5z M12.5,21.5v29c0,1.103,0.897,2,2,2h43c1.103,0,2-0.897,2-2v-29H12.5z"/><path fill="#607D8B" d="M24,53.5c-0.276,0-0.5-0.224-0.5-0.5V21c0-0.276,0.224-0.5,0.5-0.5s0.5,0.224,0.5,0.5v32
			C24.5,53.276,24.276,53.5,24,53.5z"/><path fill="#40c4ff" d="M57.5,13H36v8h24v-5.5C60,14.119,58.881,13,57.5,13z"/><path fill="#607D8B" d="M60,21.5H36c-0.276,0-0.5-0.224-0.5-0.5v-8c0-0.276,0.224-0.5,0.5-0.5h21.5c1.654,0,3,1.346,3,3V21
			C60.5,21.276,60.276,21.5,60,21.5z M36.5,20.5h23v-5c0-1.103-0.897-2-2-2h-21V20.5z"/><path fill="#ffd740" d="M36,13H14.5c-1.381,0-2.5,1.119-2.5,2.5V21h24V13z"/><path fill="#607D8B" d="M36,21.5H12c-0.276,0-0.5-0.224-0.5-0.5v-5.5c0-1.654,1.346-3,3-3H36c0.276,0,0.5,0.224,0.5,0.5v8
			C36.5,21.276,36.276,21.5,36,21.5z M12.5,20.5h23v-7h-21c-1.103,0-2,0.897-2,2V20.5z"/><path fill="#607D8B" d="M36,53.5c-0.276,0-0.5-0.224-0.5-0.5V21c0-0.276,0.224-0.5,0.5-0.5s0.5,0.224,0.5,0.5v32
			C36.5,53.276,36.276,53.5,36,53.5z"/><path fill="#607D8B" d="M60 29.5H12c-.276 0-.5-.224-.5-.5s.224-.5.5-.5h48c.276 0 .5.224.5.5S60.276 29.5 60 29.5zM60 37.5H12c-.276 0-.5-.224-.5-.5s.224-.5.5-.5h48c.276 0 .5.224.5.5S60.276 37.5 60 37.5zM60 45.5H12c-.276 0-.5-.224-.5-.5s.224-.5.5-.5h48c.276 0 .5.224.5.5S60.276 45.5 60 45.5z"/><circle cx="48" cy="53" r="7.5" fill="#4db6ac"/><path fill="#607D8B" d="M46.586 55.829c-.133 0-.26-.053-.354-.146l-2.829-2.829c-.195-.195-.195-.512 0-.707s.512-.195.707 0l2.475 2.475 4.95-4.95c.195-.195.512-.195.707 0s.195.512 0 .707l-5.303 5.304C46.846 55.776 46.719 55.829 46.586 55.829zM17 6h-4c-.276 0-.5-.224-.5-.5S12.724 5 13 5h4c.276 0 .5.224.5.5S17.276 6 17 6z"/><path fill="#607D8B" d="M15 8c-.276 0-.5-.224-.5-.5v-4C14.5 3.224 14.724 3 15 3s.5.224.5.5v4C15.5 7.776 15.276 8 15 8zM8 14H4c-.276 0-.5-.224-.5-.5S3.724 13 4 13h4c.276 0 .5.224.5.5S8.276 14 8 14z"/><path fill="#607D8B" d="M6 16c-.276 0-.5-.224-.5-.5v-4C5.5 11.224 5.724 11 6 11s.5.224.5.5v4C6.5 15.776 6.276 16 6 16zM15 58.5h-1c-.276 0-.5-.224-.5-.5s.224-.5.5-.5h1c.276 0 .5.224.5.5S15.276 58.5 15 58.5zM33 58.5H17c-.276 0-.5-.224-.5-.5s.224-.5.5-.5h16c.276 0 .5.224.5.5S33.276 58.5 33 58.5z"/><g><path fill="#607D8B" d="M58,8.5h-1c-0.276,0-0.5-0.224-0.5-0.5s0.224-0.5,0.5-0.5h1c0.276,0,0.5,0.224,0.5,0.5S58.276,8.5,58,8.5z"/></g><g><path fill="#607D8B" d="M55,8.5H39c-0.276,0-0.5-0.224-0.5-0.5s0.224-0.5,0.5-0.5h16c0.276,0,0.5,0.224,0.5,0.5S55.276,8.5,55,8.5z"/></g></svg>
