<svg xmlns="http://www.w3.org/2000/svg" enable-background="new 0 0 52 52" viewBox="0 0 52 52"><circle cx="19.558" cy="9.901" r="3.865" fill="#DD92FF"/><path d="M23.41899,9.96836c-0.03615,2.13069-1.78921,3.8386-3.9199,3.80245c-1.38421-0.02348-2.57987-0.76329-3.24001-1.86048
					c0.47151,0.21166,0.99896,0.32915,1.54185,0.33836c2.1307,0.03615,3.89702-1.65787,3.93317-3.78856
					c0.0129-0.75998-0.192-1.48298-0.57549-2.08679C22.51919,6.99374,23.44593,8.38056,23.41899,9.96836z" opacity=".07"/><circle cx="45.325" cy="5.865" r="3.865" fill="#2FCBFF"/><path d="M49.18594,5.93219c-0.03616,2.13069-1.78921,3.8386-3.91991,3.80245c-1.38421-0.02348-2.57987-0.76329-3.24001-1.86048
					c0.4715,0.21166,0.99896,0.32915,1.54185,0.33836c2.1307,0.03615,3.89702-1.65787,3.93317-3.78856
					c0.0129-0.75998-0.192-1.48298-0.57549-2.08679C48.28614,2.95757,49.21288,4.34439,49.18594,5.93219z" opacity=".07"/><circle cx="32.442" cy="17.964" r="3.865" fill="#F5BA42"/><path d="M36.30246,18.03085c-0.03615,2.13069-1.78921,3.8386-3.91991,3.80245c-1.38421-0.02348-2.57987-0.76328-3.24001-1.86048
					c0.47151,0.21166,0.99896,0.32915,1.54185,0.33836c2.1307,0.03615,3.89702-1.65787,3.93318-3.78856
					c0.01289-0.75998-0.19201-1.48298-0.57549-2.08679C35.40266,15.05622,36.32941,16.44304,36.30246,18.03085z" opacity=".07"/><g><circle cx="6.675" cy="21.028" r="3.865" fill="#FF5975"/><path d="M10.53552,21.09524c-0.03615,2.13069-1.78921,3.8386-3.91991,3.80246c-1.38421-0.02348-2.57987-0.76329-3.24001-1.86048
					c0.47151,0.21166,0.99896,0.32915,1.54185,0.33836c2.1307,0.03615,3.89702-1.65787,3.93318-3.78856
					c0.0129-0.75998-0.192-1.48298-0.57549-2.08679C9.63571,18.12062,10.56246,19.50744,10.53552,21.09524z" opacity=".07"/></g><g><path fill="#DD92FF" d="M24.22833,28.99094v19.45001c0,0.22003-0.04004,0.41998-0.12,0.60999
				c-0.08002,0.19-0.20001,0.36005-0.34003,0.48999c-0.27997,0.28003-0.65997,0.46002-1.08997,0.46002h-6.24005
				c-0.42999,0-0.81-0.16998-1.08996-0.46002c-0.28003-0.27997-0.46002-0.66998-0.46002-1.09998V28.99094
				c0-0.85999,0.70001-1.54999,1.56-1.54999h6.22003C23.53833,27.44095,24.22833,28.13095,24.22833,28.99094z"/><path d="M24.22833,28.99094v19.45001c0,0.22003-0.04004,0.41998-0.12,0.60999c-0.08002,0.17999-0.20001,0.35004-0.34003,0.48999
				c-0.27997,0.28003-0.65997,0.46002-1.08997,0.46002h-6.24005c-0.42999,0-0.81-0.16998-1.08996-0.46002
				c-0.29004-0.26996-0.47003-0.66998-0.47003-1.09998v-1.83002h0.01001c3.45001-0.60999,6.08002-3.63,6.08002-7.23999V27.44095
				h1.70001C23.53833,27.44095,24.22833,28.13095,24.22833,28.99094z" opacity=".07"/></g><g><path fill="#F5BA42" d="M37.10833,34.21097v14.22998c0,0.85999-0.70001,1.56-1.55005,1.56h-6.23999
				c-0.42999,0-0.81-0.16998-1.08997-0.46002c-0.28003-0.27997-0.46002-0.66998-0.46002-1.09998V34.21097
				c0-0.85999,0.70001-1.54999,1.56-1.54999h6.22998C36.40832,32.66098,37.10833,33.35099,37.10833,34.21097z"/><path d="M37.10833,34.21097v14.22998c0,0.85999-0.70001,1.56-1.55005,1.56h-6.23999c-0.42999,0-0.81-0.16998-1.08997-0.46002
				c-0.29004-0.26996-0.47003-0.66998-0.47003-1.09998v-1.83002h0.01001c3.45001-0.60999,6.08002-3.63,6.08002-7.23999v-6.70996
				h1.70996C36.40832,32.66098,37.10833,33.35099,37.10833,34.21097z" opacity=".07"/></g><g><path fill="#2FCBFF" d="M50,23.77838v24.66685c0,0.85566-0.69911,1.55478-1.55477,1.55478h-6.23998
				c-0.85566,0-1.55477-0.69911-1.55477-1.55478V23.77838c0-0.86611,0.69911-1.55477,1.55477-1.55477h6.23998
				C49.30089,22.22361,50,22.91228,50,23.77838z"/><path d="M49.99829,23.78098v24.65998c0,0.85999-0.69995,1.56-1.54999,1.56h-6.23999c-0.85999,0-1.56-0.70001-1.56-1.56v-1.83002
				c3.45001-0.59998,6.09003-3.63,6.09003-7.23999V22.22098h1.70996C49.29834,22.22098,49.99829,22.91098,49.99829,23.78098z" opacity=".07"/></g><g><path fill="#FF5975" d="M11.34832,36.30094v12.14001c0,0.85999-0.70001,1.56-1.54999,1.56H3.55829
				c-0.85999,0-1.56-0.70001-1.56-1.56V36.30094c0-0.87,0.70001-1.56,1.56-1.56h6.24005
				C10.64831,34.74094,11.34832,35.43094,11.34832,36.30094z"/><path d="M11.34832,36.30094v12.14001c0,0.85999-0.70001,1.56-1.54999,1.56H3.55829c-0.85999,0-1.56-0.70001-1.56-1.56v-1.83002
				c3.45001-0.59998,6.09003-3.63,6.09003-7.23999v-4.63h1.71002C10.64831,34.74094,11.34832,35.43094,11.34832,36.30094z" opacity=".07"/><path fill="#607D8B" d="M6.59229 25.89258c.00586 0 .07813.00049.08398.00049 2.63623 0 4.81787-2.14502 4.86328-4.78223.01489-.88037-.22473-1.69977-.62622-2.41986l5.70868-4.9314c.79657.60809 1.77698.98779 2.85358 1.00604.00586 0 .0791.00049.08447.00049 1.36444 0 2.59912-.58154 3.48669-1.50134l4.84729 3.03473c-.18439.49768-.30743 1.02466-.31689 1.58185-.04541 2.68213 2.09961 4.90137 4.78174 4.94678.00586 0 .07813.00049.08398.00049 2.63672 0 4.81836-2.14551 4.86328-4.78223.01611-.95251-.25439-1.84021-.72034-2.5993l5.95624-5.59375c.76709.53693 1.69611.85913 2.70062.87616.00586 0 .07813.00049.08398.00049 2.63623 0 4.81787-2.14502 4.86328-4.78223C50.23535 3.26514 48.08984 1.0459 45.32373 1c-2.63623 0-4.81787 2.14502-4.86328 4.78223-.01617.9552.25537 1.84546.72003 2.60596l-5.96143 5.59857c-.78223-.54352-1.73578-.87079-2.77863-.88812-1.3653 0-2.60071.58234-3.48853 1.50323l-4.84662-3.03406c.18488-.49823.30804-1.026.31757-1.58392.04541-2.68262-2.09961-4.90186-4.86572-4.94775-2.63672 0-4.81836 2.14551-4.86328 4.78271-.01495.88177.22504 1.70245.62488 2.4234l-5.7149 4.93671c-.81067-.6134-1.81482-.99738-2.93048-1.01587-2.63623 0-4.81787 2.14502-4.86328 4.78223C1.76465 23.62793 3.91016 25.84717 6.59229 25.89258zM42.46045 5.81641c.02637-1.55273 1.31055-2.81592 2.9126-2.81592h.00049c1.58008.02637 2.84326 1.3335 2.81641 2.91309-.02637 1.55322-1.31104 2.81641-2.86328 2.81641-.10015-.00098-.14996-.00147-.0498-.00049C43.65941 8.70247 42.43458 7.34269 42.46045 5.81641zM32.48975 15.09912h.00049c1.57959.02637 2.84277 1.3335 2.81592 2.91309-.02637 1.55322-1.31055 2.81641-2.86328 2.81641-.10015-.00098-.14996-.00147-.0498-.00049-1.57959-.02637-2.84277-1.3335-2.81592-2.9126C29.60352 16.3623 30.88721 15.09912 32.48975 15.09912zM19.60645 7.03662h.00049c1.57959.02637 2.84277 1.3335 2.81592 2.91309-.02637 1.55322-1.31055 2.81641-2.86279 2.81641-.10016-.00097-.15045-.00146-.05029-.00049-1.58255-.02626-2.8432-1.32925-2.81592-2.9126C16.72021 8.2998 18.00391 7.03662 19.60645 7.03662zM6.72266 18.16357h.00049c1.58008.02637 2.84326 1.3335 2.81641 2.91309-.02637 1.55322-1.31104 2.81641-2.86328 2.81641-.10016-.00098-.14996-.00147-.0498-.00049-1.58008-.02637-2.84326-1.3335-2.81641-2.91309C3.83643 19.42676 5.12061 18.16357 6.72266 18.16357zM22.67285 26.44092h-6.22949c-1.40869 0-2.55469 1.146-2.55469 2.55469v19.44971c0 1.40869 1.146 2.55469 2.55469 2.55469h6.22949c1.40869 0 2.55518-1.146 2.55518-2.55469V28.99561C25.22803 27.58691 24.08154 26.44092 22.67285 26.44092zM23.22803 48.44531C23.22803 48.75098 22.979 49 22.67285 49h-6.22949c-.30078 0-.55469-.25391-.55469-.55469V28.99561c0-.30566.24902-.55469.55469-.55469h6.22949c.31152 0 .55518.24365.55518.55469V48.44531zM35.55664 31.6582h-6.22949c-1.40869 0-2.55518 1.14648-2.55518 2.55518v14.23193C26.77197 49.854 27.91846 51 29.32715 51h6.22949c1.40869 0 2.55469-1.146 2.55469-2.55469V34.21338C38.11133 32.80469 36.96533 31.6582 35.55664 31.6582zM36.11133 48.44531c0 .30078-.25391.55469-.55469.55469h-6.22949c-.30615 0-.55518-.24902-.55518-.55469V34.21338c0-.31152.24365-.55518.55518-.55518h6.22949c.30566 0 .55469.24902.55469.55518V48.44531zM48.44531 21.22363h-6.24023c-1.40869 0-2.55469 1.146-2.55469 2.55469v24.66699c0 1.40869 1.146 2.55469 2.55469 2.55469h6.24023C49.854 51 51 49.854 51 48.44531V23.77832C51 22.36963 49.854 21.22363 48.44531 21.22363zM49 48.44531C49 48.74609 48.74609 49 48.44531 49h-6.24023c-.30078 0-.55469-.25391-.55469-.55469V23.77832c0-.31104.24365-.55469.55469-.55469h6.24023c.31104 0 .55469.24365.55469.55469V48.44531zM9.79492 33.74512H3.55469C2.146 33.74512 1 34.8916 1 36.30029v12.14502C1 49.854 2.146 51 3.55469 51h6.24023c1.40869 0 2.55469-1.146 2.55469-2.55469V36.30029C12.34961 34.8916 11.20361 33.74512 9.79492 33.74512zM10.34961 48.44531C10.34961 48.74609 10.0957 49 9.79492 49H3.55469C3.25391 49 3 48.74609 3 48.44531V36.30029c0-.30615.24902-.55518.55469-.55518h6.24023c.30566 0 .55469.24902.55469.55518V48.44531z"/></g></svg>
