<?xml version="1.0" standalone="no"?>
<!DOCTYPE svg PUBLIC "-//W3C//DTD SVG 20010904//EN"
 "http://www.w3.org/TR/2001/REC-SVG-20010904/DTD/svg10.dtd">
<svg version="1.0" xmlns="http://www.w3.org/2000/svg"
 width="881.000000pt" height="529.000000pt" viewBox="0 0 881.000000 529.000000"
 preserveAspectRatio="xMidYMid meet">
<metadata>
Created by potrace 1.16, written by Peter Selinger 2001-2019
</metadata>
<g transform="translate(0.000000,529.000000) scale(0.100000,-0.100000)"
fill="#8e181d" stroke="none">
<path d="M3030 5270 c0 -4 -9 -10 -20 -13 -24 -6 -38 -36 -21 -46 14 -9 4 -41
-14 -41 -6 0 -26 7 -44 16 -23 12 -45 14 -77 9 -44 -6 -55 -20 -32 -43 10 -10
10 -15 -1 -21 -8 -5 -11 -16 -8 -25 5 -13 3 -15 -12 -6 -14 7 -22 6 -31 -5
-14 -17 1 -65 27 -86 8 -7 19 -21 24 -31 6 -11 -17 8 -50 41 -73 73 -95 79
-85 24 4 -21 12 -44 18 -52 9 -12 5 -13 -26 -8 -32 5 -37 3 -41 -16 -2 -12 -5
-3 -6 19 -1 46 -26 78 -41 54 -5 -8 -26 -19 -47 -25 -28 -8 -38 -16 -37 -31 0
-14 -6 -20 -20 -20 -17 1 -21 -5 -22 -29 -1 -56 -4 -65 -20 -65 -17 0 -44 -23
-44 -38 0 -5 -9 -17 -21 -28 -22 -20 -49 -66 -49 -83 0 -6 11 -13 25 -17 14
-3 25 -9 26 -13 10 -79 2 -96 -51 -105 -22 -3 -40 -12 -40 -19 0 -6 -15 -19
-32 -27 -48 -22 -54 -60 -16 -99 18 -18 41 -31 55 -31 22 0 24 -2 13 -15 -7
-8 -21 -15 -31 -15 -24 0 -32 -16 -19 -40 8 -15 8 -20 -1 -20 -18 0 31 -50 59
-61 16 -6 30 -5 43 5 11 8 28 12 39 9 10 -3 21 0 24 5 4 7 28 2 64 -12 42 -17
56 -27 54 -40 -2 -9 6 -29 17 -44 11 -16 23 -41 26 -58 4 -16 13 -48 21 -70
13 -42 11 -71 -8 -110 -14 -31 -6 -59 19 -62 16 -2 23 3 26 20 4 20 4 20 6 -4
1 -21 6 -28 20 -28 21 0 37 -17 27 -28 -4 -3 -16 -1 -26 6 -36 22 -48 15 -55
-33 -6 -34 -3 -48 9 -60 21 -22 56 -10 57 18 l0 22 9 -23 c11 -26 3 -52 -22
-70 -10 -7 -16 -17 -13 -22 3 -4 -1 -10 -9 -13 -14 -6 -16 -51 -2 -64 3 -3 1
-12 -4 -19 -8 -8 -4 -25 13 -55 13 -24 22 -50 20 -56 -3 -7 3 -13 13 -13 13 0
15 -3 7 -11 -14 -14 17 -91 35 -84 8 3 12 -7 12 -30 0 -24 5 -35 15 -35 8 0
15 -4 15 -8 0 -8 67 -41 98 -47 16 -4 45 51 48 90 4 54 57 164 88 185 17 10
34 16 38 13 12 -6 68 53 91 96 11 22 22 31 32 27 17 -6 145 41 145 54 0 4 17
25 37 45 29 29 34 38 22 46 -11 7 -11 9 4 9 24 0 24 81 0 105 -12 13 -13 19
-4 24 9 6 9 19 3 49 -9 40 -9 41 19 47 22 5 29 12 29 30 0 13 7 30 15 39 17
17 20 36 5 36 -5 0 -10 10 -9 23 0 12 3 16 6 10 5 -15 39 -17 47 -4 10 16 -5
41 -24 41 -20 0 -36 33 -25 50 3 5 -1 20 -9 32 -20 28 -20 38 -1 38 9 0 15 -9
15 -22 1 -53 18 -48 24 6 8 61 3 78 -21 74 -9 -2 -18 3 -20 10 -3 7 1 10 11 6
25 -10 19 13 -10 33 -24 18 -26 24 -19 62 6 35 10 41 26 36 21 -7 27 10 7 18
-10 3 -10 7 -1 17 6 7 9 27 6 46 -5 29 -3 34 14 34 15 0 22 9 27 31 3 16 13
37 21 46 22 21 14 48 -12 47 -12 0 -20 3 -17 8 3 4 20 8 39 8 35 0 38 3 90 83
21 31 23 41 13 57 -31 50 -112 50 -123 1 -5 -22 -11 -28 -25 -24 -10 3 -20 13
-23 24 -6 24 -27 25 -27 1 0 -10 -7 -27 -15 -38 -14 -18 -14 -17 -5 9 16 44
13 97 -6 104 -23 9 -49 -11 -47 -35 1 -11 -5 -23 -13 -26 -13 -5 -15 -1 -10
19 5 18 2 25 -8 25 -8 0 -16 -6 -19 -12 -3 -10 -7 -10 -20 1 -17 14 -90 12
-132 -4 -19 -8 -19 -7 -2 11 14 15 32 19 82 19 36 0 65 3 65 6 0 4 13 9 28 12
48 10 69 80 30 97 -36 15 -58 36 -58 55 0 14 -7 16 -52 11 -30 -3 -42 -2 -28
2 41 13 38 46 -8 70 -39 20 -172 30 -172 12z"/>
<path d="M2209 5184 c-13 -12 -21 -13 -35 -6 -21 11 -74 5 -74 -8 0 -5 -8 -6
-18 -3 -10 2 -24 -3 -31 -11 -8 -9 -20 -16 -28 -16 -18 0 -46 -67 -38 -88 4
-11 -1 -10 -18 6 -27 26 -47 29 -47 7 0 -9 -7 -18 -15 -21 -8 -4 -15 -12 -15
-20 0 -8 -10 -14 -25 -14 -14 0 -28 -7 -31 -15 -4 -8 -12 -15 -18 -15 -13 0
-56 -41 -56 -53 0 -12 35 -8 49 6 11 10 11 8 2 -10 -7 -15 -8 -23 -2 -23 7 0
7 -9 2 -22 -10 -28 -4 -48 14 -48 7 0 15 -9 18 -19 6 -23 62 -41 128 -41 36 0
54 6 84 30 46 36 62 39 20 4 -54 -46 -89 -64 -128 -64 -24 0 -40 -5 -43 -15
-10 -24 -22 -17 -26 13 -2 20 -10 29 -34 36 -22 7 -34 20 -47 50 -9 23 -17 47
-17 53 0 14 -47 29 -57 19 -3 -3 0 -12 6 -20 10 -12 8 -17 -11 -27 -33 -17
-33 -17 -13 -39 18 -19 17 -20 -5 -20 -16 0 -20 -4 -16 -15 3 -8 1 -15 -4 -15
-14 0 -12 -27 3 -33 6 -3 2 -6 -10 -6 -26 -1 -28 -8 -11 -65 14 -47 22 -55 54
-51 28 3 30 -3 8 -20 -15 -11 -15 -16 0 -62 11 -32 24 -53 35 -56 29 -7 71 4
71 19 0 7 5 16 12 20 7 5 9 0 6 -14 -4 -15 0 -22 18 -26 32 -8 31 -25 -1 -18
-30 5 -40 -14 -26 -49 7 -21 5 -28 -10 -37 -11 -7 -19 -23 -19 -39 0 -25 -1
-25 -18 -10 -10 10 -28 17 -39 17 -12 0 -23 7 -27 15 -6 17 -86 22 -86 5 0 -6
10 -24 22 -40 16 -23 30 -30 55 -30 l33 0 0 -65 0 -64 38 -6 c20 -4 47 -10 60
-16 30 -12 45 -11 79 3 15 6 38 10 50 9 25 -3 83 25 83 39 0 6 -4 10 -10 10
-5 0 -10 7 -10 15 0 28 -52 38 -164 34 -16 0 -39 5 -52 12 -22 11 -23 14 -9
30 14 14 22 15 56 6 30 -7 43 -7 48 1 9 15 63 10 77 -7 16 -20 57 -6 71 24 13
30 7 59 -12 52 -6 -3 -12 1 -12 9 0 8 6 14 14 14 8 0 13 11 13 29 0 23 6 30
26 35 17 5 24 12 20 21 -3 8 -2 15 2 15 4 0 13 15 20 33 11 28 10 34 -5 45
-16 11 -16 12 0 12 11 0 17 8 17 21 0 16 -4 20 -17 15 -14 -5 -14 -3 2 9 11 8
25 19 32 25 7 5 21 10 33 10 11 0 20 6 20 13 0 25 25 67 40 67 8 0 30 22 48
49 18 26 49 63 68 82 19 18 34 38 34 45 0 17 -21 23 -45 12 -20 -9 -20 -9 -1
6 11 9 28 16 37 16 23 0 92 84 87 107 -2 10 -13 22 -25 27 -12 6 -25 24 -30
40 -7 26 -14 31 -38 31 -17 0 -34 6 -38 13 -4 6 -18 12 -30 12 -13 0 -27 4
-32 9 -21 19 -70 22 -86 5z"/>
<path d="M6606 4821 c-16 -17 -27 -40 -28 -64 -2 -28 -7 -37 -20 -37 -14 0
-18 -8 -18 -36 0 -33 2 -36 24 -32 19 4 22 1 18 -14 -3 -12 1 -18 12 -18 9 0
16 -8 16 -19 0 -24 80 -65 109 -56 18 5 19 14 18 90 -1 46 -6 87 -10 91 -4 5
-24 7 -45 6 -30 -2 -34 0 -19 9 9 5 17 20 17 32 -1 70 -33 91 -74 48z"/>
<path d="M4988 4768 c-3 -7 -15 -13 -29 -13 -21 0 -24 -4 -24 -39 0 -34 -4
-41 -28 -51 -27 -11 -27 -12 -9 -28 10 -9 26 -17 35 -17 9 0 19 -4 22 -10 3
-5 15 -10 26 -10 10 0 19 5 19 10 0 6 6 10 13 10 13 0 57 92 57 119 0 9 -8 12
-25 9 -19 -4 -25 -1 -25 13 0 21 -26 26 -32 7z"/>
<path d="M4705 4733 c-13 -30 -15 -113 -5 -134 8 -15 7 -19 -5 -19 -20 0 -19
-25 2 -61 18 -30 33 -38 33 -16 0 8 3 8 9 -2 8 -12 12 -12 25 -2 9 8 16 21 16
30 1 13 3 12 12 -3 9 -16 7 -22 -10 -34 -26 -17 -29 -49 -4 -55 16 -4 16 -5 0
-6 -27 -2 -22 -28 14 -72 37 -46 48 -49 48 -11 0 15 7 39 14 54 8 16 18 48 22
73 9 66 27 69 39 8 2 -10 4 -20 5 -23 1 -3 1 -15 0 -27 -1 -15 4 -23 13 -23 9
0 17 -5 19 -11 5 -14 38 0 38 17 0 8 7 14 15 14 21 0 19 17 -5 30 -11 6 -20
17 -20 25 0 8 -6 15 -14 15 -9 0 -12 7 -9 20 4 14 0 20 -11 20 -10 0 -13 6 -9
16 4 10 -1 17 -16 21 -11 3 -21 12 -21 19 0 8 -4 14 -8 14 -12 0 -32 62 -32
97 0 19 -6 33 -16 37 -23 9 -44 -11 -44 -41 0 -22 -2 -23 -15 -9 -8 8 -15 19
-15 25 0 11 -32 31 -48 31 -6 0 -13 -8 -17 -17z"/>
<path d="M6776 4614 c-9 -8 -19 -27 -22 -42 -4 -15 -10 -31 -14 -37 -5 -5 -11
-27 -15 -47 -8 -42 4 -49 39 -23 10 8 22 12 26 10 4 -3 21 0 38 6 39 13 48 53
20 91 -10 16 -24 28 -29 28 -5 0 -9 7 -9 15 0 19 -14 19 -34 -1z"/>
<path d="M1451 4611 c-19 -12 -5 -71 17 -71 15 -1 15 -2 -1 -11 -13 -8 -15
-14 -7 -28 12 -24 41 -35 51 -19 6 9 11 9 23 -1 22 -18 20 -30 -4 -24 -14 4
-20 0 -20 -11 0 -13 8 -16 38 -13 l37 3 0 53 c0 49 -3 55 -35 81 -32 24 -74
50 -82 50 -2 0 -9 -4 -17 -9z"/>
<path d="M6813 4428 c-21 -10 -36 -38 -47 -90 -5 -21 -12 -28 -31 -28 -18 0
-25 -5 -25 -19 0 -11 5 -23 10 -26 6 -3 10 -14 10 -23 -1 -16 -1 -16 -11 1 -5
9 -19 17 -31 17 -17 0 -19 4 -14 25 8 31 -16 34 -41 6 -9 -11 -20 -18 -24 -15
-30 18 -204 -119 -210 -166 -3 -20 -14 -28 -51 -40 -46 -14 -48 -17 -48 -52 0
-25 8 -46 28 -69 20 -25 23 -31 9 -26 -10 4 -20 7 -22 7 -2 0 -9 16 -15 35 -8
24 -18 35 -31 35 -10 0 -19 5 -19 10 0 6 -7 10 -15 10 -8 0 -15 -7 -15 -15 0
-8 5 -15 10 -15 6 0 10 -4 10 -10 0 -16 -37 -12 -44 5 -8 22 -26 18 -26 -6 0
-11 -9 -32 -20 -46 -21 -26 -26 -54 -12 -67 4 -5 7 -38 7 -74 0 -55 3 -66 15
-63 54 14 59 13 73 -16 11 -20 12 -34 5 -46 -5 -10 -7 -25 -4 -33 3 -8 1 -14
-4 -14 -6 0 -10 20 -10 45 0 32 -5 47 -15 52 -20 7 -57 -26 -51 -46 8 -24 -37
-106 -60 -109 -10 -1 -28 4 -39 12 -19 15 -19 15 11 16 37 0 48 11 65 68 9 32
10 45 1 54 -7 7 -12 41 -12 78 0 36 -4 72 -9 79 -5 8 -6 22 -2 30 5 9 11 35
15 59 6 42 6 42 -26 43 -18 1 -25 3 -15 6 12 3 17 12 15 26 -4 29 -32 28 -36
0 -2 -12 -10 -27 -18 -33 -8 -7 -14 -21 -14 -32 0 -24 -26 -75 -41 -80 -8 -3
-13 -28 -14 -63 -2 -49 2 -65 21 -91 35 -45 29 -46 -18 -2 -28 25 -55 40 -81
45 -21 3 -51 16 -67 29 -15 13 -31 24 -34 24 -14 0 -4 -40 13 -52 22 -16 39
-68 23 -68 -6 0 -14 5 -17 10 -4 7 -13 6 -27 -1 -11 -6 -31 -12 -44 -14 -13
-1 -32 -11 -41 -22 -10 -10 -15 -14 -12 -8 12 20 17 55 9 55 -5 0 -32 -13 -60
-30 -28 -16 -55 -30 -61 -30 -5 0 -12 -14 -16 -31 -7 -38 -31 -49 -50 -23 -12
16 -11 20 4 32 22 16 8 42 -31 55 -33 11 -41 5 -28 -19 7 -12 6 -25 -1 -41 -7
-16 -7 -26 3 -38 17 -21 5 -52 -15 -35 -11 9 -21 6 -50 -15 -38 -29 -40 -36
-25 -65 9 -18 8 -18 -30 -3 -27 11 -44 13 -51 6 -13 -13 -1 -43 17 -43 8 0 14
-4 14 -10 0 -16 -15 -12 -43 13 -20 17 -27 32 -27 59 0 24 -6 41 -17 48 -15
10 -14 10 7 5 97 -25 102 -25 128 -13 24 12 27 19 27 63 0 46 -2 51 -31 66
-18 8 -46 27 -64 42 -17 15 -42 27 -55 27 -14 0 -29 9 -35 21 -9 16 -17 19
-43 14 -26 -6 -30 -5 -19 6 6 7 12 18 12 25 0 17 -64 55 -92 55 -13 0 -33 -1
-45 -1 -13 0 -23 -6 -23 -13 0 -9 -2 -9 -8 1 -10 15 -42 5 -42 -13 0 -7 6 -16
13 -18 6 -3 -1 -6 -17 -6 -21 -1 -27 -5 -22 -16 6 -17 -19 -21 -29 -5 -9 14
-53 -33 -61 -65 -3 -14 -10 -23 -14 -20 -11 7 -33 -22 -26 -34 6 -9 -23 -69
-46 -98 -5 -6 -11 -22 -12 -35 -5 -36 -18 -61 -43 -85 -13 -12 -23 -29 -23
-38 0 -8 -7 -15 -15 -15 -8 0 -15 -7 -15 -15 0 -8 -11 -17 -24 -21 -36 -9 -52
-41 -54 -107 -1 -44 3 -59 14 -64 13 -5 13 -7 2 -15 -10 -7 -8 -13 11 -28 30
-26 34 -26 76 11 32 28 35 29 35 11 0 -12 5 -24 10 -27 6 -3 10 -17 10 -30 0
-13 5 -27 10 -30 16 -10 12 -22 -9 -28 -14 -3 -18 -1 -14 9 3 8 1 14 -5 14 -5
0 -7 11 -4 25 5 30 -5 31 -36 5 -24 -20 -31 -56 -19 -106 7 -29 6 -31 -30 -40
-27 -6 -45 -19 -62 -46 -17 -26 -32 -38 -48 -38 -21 0 -22 2 -11 20 11 18 10
23 -8 38 -12 9 -25 27 -29 40 -3 12 -11 22 -16 22 -6 0 -15 14 -20 30 -6 17
-16 30 -21 30 -6 0 -3 11 6 25 22 34 20 45 -9 45 -23 0 -24 2 -15 20 10 18 8
20 -19 20 -38 0 -81 -19 -81 -37 0 -15 11 -17 28 -3 7 5 6 3 -2 -6 -11 -13
-12 -22 -4 -40 6 -13 15 -24 20 -24 4 0 8 -13 8 -30 0 -20 5 -30 15 -30 22 0
31 -31 13 -44 -19 -14 -31 -63 -17 -71 7 -5 5 -15 -5 -31 -9 -13 -16 -26 -16
-29 0 -6 49 4 65 13 5 4 16 7 25 9 8 1 30 5 48 9 19 4 32 2 32 -4 0 -16 -48
-42 -66 -35 -14 5 -16 2 -12 -15 5 -19 2 -21 -29 -19 -47 3 -53 -18 -14 -40
37 -22 61 -68 54 -105 -5 -26 -6 -27 -72 -21 -101 8 -107 3 -105 -101 2 -93 6
-106 33 -106 18 0 41 -18 41 -33 0 -5 -20 -28 -45 -53 -36 -35 -45 -50 -45
-78 0 -30 -5 -38 -32 -52 -34 -17 -77 -61 -78 -80 0 -6 -13 -28 -30 -50 -31
-42 -37 -63 -19 -81 15 -15 15 -99 1 -116 -19 -23 -2 -76 37 -119 122 -134
154 -154 216 -137 21 6 53 8 71 4 24 -4 48 0 80 15 60 26 80 25 100 -4 12 -19
26 -26 57 -28 46 -3 49 -11 34 -90 -7 -33 -4 -41 28 -76 19 -22 35 -46 35 -55
0 -9 4 -18 9 -22 5 -3 15 -30 21 -60 9 -44 9 -58 -4 -77 -8 -13 -17 -44 -21
-69 -6 -39 -2 -55 25 -109 17 -34 36 -90 41 -124 6 -34 18 -70 29 -81 12 -13
21 -43 26 -83 7 -70 26 -97 58 -87 12 3 52 10 90 15 63 7 72 11 119 56 78 76
86 86 99 130 8 28 21 47 41 59 30 18 31 24 14 119 -1 5 18 24 43 42 98 73 91
61 81 134 -5 36 -15 88 -21 115 -9 42 -8 56 6 88 9 20 22 37 29 37 6 0 24 17
38 38 15 20 44 48 65 62 64 44 155 230 111 230 -6 0 -18 -4 -27 -9 -10 -5 -41
-12 -69 -15 -43 -5 -54 -3 -62 11 -7 14 -3 20 21 30 17 7 38 13 48 13 24 0
130 49 130 61 0 5 12 12 28 15 28 8 92 53 92 67 0 4 9 18 20 30 27 29 22 57
-15 77 -16 9 -31 23 -33 32 -2 13 5 14 45 7 26 -4 76 -8 110 -8 54 -1 66 -5
90 -28 15 -16 35 -41 43 -58 12 -23 21 -30 43 -28 18 1 27 -3 27 -13 0 -23 56
-187 80 -233 27 -55 45 -60 75 -25 17 20 27 46 31 87 6 54 10 61 58 103 28 25
61 50 73 56 12 6 23 18 25 26 2 8 23 20 50 27 43 11 48 10 53 -6 3 -9 19 -33
34 -53 20 -25 27 -43 24 -61 -6 -27 13 -33 47 -15 16 9 21 4 35 -41 14 -41 15
-56 6 -76 -14 -30 -6 -59 24 -93 12 -14 25 -36 27 -50 3 -14 9 -34 13 -45 6
-14 -3 -10 -31 16 -37 34 -92 64 -101 56 -9 -10 18 -56 46 -80 17 -14 31 -29
31 -32 0 -3 11 -21 25 -39 14 -18 25 -37 25 -42 0 -18 90 -95 103 -88 7 4 9 4
5 -1 -12 -13 19 -35 51 -35 16 0 40 -4 53 -9 13 -4 65 -11 116 -15 79 -5 92
-4 92 9 0 13 -7 15 -34 10 -33 -7 -73 6 -87 28 -4 5 -31 10 -60 11 -30 1 -62
6 -71 10 -10 5 -25 5 -34 2 -13 -5 -15 1 -13 35 3 30 -1 43 -13 50 -9 5 -24
23 -32 41 -20 38 -20 39 -1 32 18 -7 18 -1 2 53 -7 25 -28 56 -50 77 -20 18
-37 41 -37 50 0 9 -4 16 -10 16 -11 0 14 63 28 68 5 1 18 -7 29 -20 10 -13 28
-28 38 -34 13 -8 19 -19 16 -35 l-3 -24 23 20 c13 11 26 22 29 25 3 3 17 11
32 19 50 26 47 90 -9 155 -18 22 -33 45 -33 51 0 17 33 45 53 45 23 0 29 -16
12 -30 -23 -19 -18 -40 9 -40 26 0 41 26 31 52 -5 12 3 17 29 22 20 4 36 11
36 15 0 5 19 13 43 19 47 13 100 62 111 104 3 16 13 28 20 28 16 0 32 53 18
58 -5 1 -7 13 -5 26 3 14 -5 37 -21 61 -14 21 -26 41 -26 44 1 16 29 40 53 46
15 4 27 11 27 15 0 10 -53 20 -76 14 -12 -3 -24 3 -32 16 -7 11 -8 20 -4 20 5
0 21 11 36 25 29 26 57 36 38 12 -18 -21 1 -41 26 -28 36 19 53 14 46 -13 -4
-18 -1 -26 14 -30 16 -5 19 -14 16 -51 -1 -25 0 -46 4 -48 4 -3 22 2 40 9 27
12 32 19 32 49 0 39 -18 85 -33 85 -6 0 -1 9 11 20 12 11 28 33 37 49 16 33
34 42 64 34 16 -4 33 7 74 49 67 71 98 123 104 173 13 119 26 109 24 -18 l-2
-94 26 0 c28 0 29 4 15 41 -12 32 -3 57 17 49 12 -5 13 1 7 33 -4 22 -13 56
-20 78 -8 21 -14 54 -14 72 0 28 -4 34 -21 34 -14 0 -19 -5 -16 -15 10 -24
-11 -28 -30 -5 -18 21 -53 28 -53 10 0 -6 -12 -4 -29 4 l-28 15 61 64 c33 35
71 75 83 90 21 27 25 27 87 21 42 -4 70 -3 79 4 15 13 31 4 40 -21 5 -14 11
-16 26 -7 11 5 33 10 50 10 32 0 51 18 31 30 -9 5 -7 11 7 21 11 8 26 27 34
44 17 36 49 46 49 16 0 -25 17 -27 42 -4 15 14 18 14 18 1 0 -13 -80 -114
-113 -143 -35 -30 -49 -77 -43 -139 4 -33 12 -76 19 -94 10 -29 9 -36 -6 -47
-21 -15 -23 -37 -2 -29 8 4 15 13 15 21 0 8 5 11 11 8 15 -10 38 25 39 58 0
17 5 27 14 27 8 0 16 10 18 23 2 12 13 26 26 32 13 6 22 18 22 33 0 12 7 25
15 28 16 6 21 34 7 34 -14 0 -7 83 9 108 13 20 29 27 53 23 5 -1 19 8 32 20
20 19 24 20 24 6 0 -27 16 -20 72 33 61 57 105 82 135 74 11 -3 24 0 28 6 10
17 -25 79 -42 73 -8 -3 -13 3 -13 17 0 16 4 20 15 16 24 -9 65 15 65 38 0 15
3 17 12 8 7 -7 22 -12 34 -12 13 0 24 -8 27 -20 3 -11 14 -20 24 -20 10 0 24
-5 29 -10 20 -20 44 0 37 31 -5 26 -3 29 20 29 29 0 43 26 25 49 -27 34 -37
41 -62 41 -19 0 -26 5 -26 20 0 15 -7 20 -25 20 -14 0 -28 7 -31 15 -4 8 -11
15 -17 15 -5 0 -42 24 -81 53 -64 48 -78 54 -133 59 -69 7 -73 3 -65 -52 l4
-35 -23 24 c-17 16 -20 25 -11 28 12 5 18 43 6 43 -3 0 -15 -6 -27 -12 -12 -7
-47 -13 -77 -13 -30 0 -61 -3 -68 -5 -14 -5 -22 4 -44 55 -13 30 -14 30 -95
30 -90 0 -102 6 -112 56 -6 30 -11 33 -71 50 -68 19 -119 23 -158 12 -20 -5
-23 -11 -20 -38 3 -27 1 -31 -14 -27 -13 3 -18 -1 -18 -18 0 -19 -2 -20 -15
-6 -22 22 -54 29 -70 16 -10 -9 -15 -7 -20 9 -11 37 -35 17 -35 -29 0 -34 -18
-31 -40 7 -16 27 -20 47 -16 72 4 26 0 39 -17 57 -12 13 -30 24 -40 24 -10 0
-32 7 -48 16 -42 21 -60 13 -53 -26 6 -28 5 -30 -24 -30 -20 0 -35 7 -41 19
-7 12 -31 22 -72 30 -34 7 -70 18 -80 24 -20 13 -26 37 -9 37 6 0 10 7 10 15
0 8 -9 15 -20 15 -13 0 -20 -7 -20 -20 0 -11 -4 -20 -10 -20 -5 0 -25 -16 -45
-35 -22 -22 -35 -30 -35 -21 0 17 89 105 107 106 7 0 17 9 23 20 15 28 17 127
3 141 -20 20 -135 21 -157 1 -11 -9 -16 -11 -12 -4 4 7 10 32 12 55 4 38 2 44
-23 58 -21 12 -34 14 -50 7z m-1793 -919 c0 -6 -20 -39 -45 -73 -43 -61 -44
-65 -38 -117 3 -29 14 -62 24 -72 16 -18 21 -18 76 -4 63 16 68 15 60 -8 -5
-10 -20 -15 -53 -15 -37 0 -47 -4 -51 -20 -3 -11 -14 -20 -24 -20 -11 0 -19
-7 -19 -15 0 -18 21 -20 37 -4 8 8 13 5 18 -11 9 -29 2 -34 -25 -18 -18 11
-23 11 -36 -6 -8 -11 -14 -32 -14 -46 0 -58 -30 -70 -173 -71 -64 -1 -77 5
-59 23 9 9 12 9 12 0 0 -7 7 -12 15 -12 8 0 15 4 15 9 0 5 9 7 19 4 13 -3 23
2 30 16 7 12 18 21 25 21 14 0 26 29 26 64 0 10 11 31 25 48 31 36 32 73 4 88
-34 19 -10 89 53 154 15 15 28 38 28 50 0 12 5 27 12 34 15 15 58 16 58 1z
m655 -789 c0 -8 -10 -19 -22 -25 -13 -5 -23 -15 -23 -22 0 -6 -6 -14 -12 -17
-10 -5 -10 -7 0 -12 6 -3 12 -10 12 -16 0 -6 7 -16 16 -22 8 -7 15 -27 16 -46
0 -19 6 -44 13 -56 7 -11 15 -31 17 -45 2 -20 -1 -24 -27 -27 -18 -1 -40 6
-54 17 -22 17 -23 21 -12 49 11 25 10 35 -3 58 -9 16 -20 36 -25 44 -40 74
-38 87 22 118 47 24 82 25 82 2z m-481 -6 c8 -3 13 -11 11 -17 -3 -7 2 -20 9
-30 11 -14 21 -16 52 -9 42 9 88 -7 98 -33 3 -8 12 -15 20 -15 20 0 32 -40 15
-51 -21 -13 -71 -10 -99 6 -29 16 -106 20 -115 5 -3 -5 -21 -10 -40 -10 -24 0
-35 5 -37 18 -5 22 13 75 30 85 6 4 12 14 12 20 0 7 5 18 12 25 14 14 12 14
32 6z m-411 -58 c10 -13 40 -39 67 -57 43 -29 50 -39 50 -66 0 -22 6 -36 20
-43 11 -6 20 -19 20 -30 0 -19 25 -50 41 -50 5 0 9 7 9 16 0 9 9 18 20 21 25
7 25 9 -1 41 l-21 27 28 11 c16 7 33 10 39 7 13 -4 14 -45 1 -54 -22 -17 78
-87 107 -76 8 3 29 2 48 -3 24 -5 27 -8 12 -9 -14 -1 -23 -7 -23 -17 0 -25 43
-13 50 14 6 27 23 34 28 11 5 -26 -38 -129 -54 -129 -8 0 -23 5 -33 12 -15 9
-24 9 -41 -3 -20 -13 -30 -13 -85 1 -34 8 -69 21 -78 28 -25 22 -71 2 -75 -31
-3 -27 -25 -36 -37 -17 -3 6 -14 10 -24 10 -10 0 -25 9 -32 20 -8 12 -30 23
-54 27 -41 7 -72 27 -56 37 5 3 9 22 8 41 -1 28 -6 37 -23 41 -13 3 -28 3 -33
-1 -6 -3 -41 -6 -79 -6 -50 0 -81 -6 -121 -25 -56 -25 -105 -31 -116 -14 -6
11 0 14 48 25 34 7 80 53 73 72 -8 21 5 44 31 54 13 5 29 22 35 39 9 26 15 30
42 28 17 -1 45 6 62 16 l30 18 84 -81 c90 -87 94 -103 26 -103 -44 0 -46 -12
-6 -33 38 -19 40 -19 40 7 0 12 3 18 7 15 12 -12 33 15 33 43 0 23 4 27 20 23
11 -3 20 -2 20 3 0 13 -32 44 -47 44 -7 0 -13 5 -13 10 0 6 -7 10 -15 10 -8 0
-21 14 -30 30 -9 17 -20 30 -25 30 -6 0 -10 9 -10 20 0 27 11 25 33 -4z"/>
<path d="M1175 4410 c-3 -5 -15 -10 -25 -10 -10 0 -29 -15 -41 -32 -12 -18
-33 -44 -46 -56 -36 -35 -27 -57 23 -56 35 0 40 -2 36 -18 -5 -20 17 -25 35
-7 7 7 9 3 6 -14 -4 -19 0 -26 16 -31 12 -3 30 -9 41 -12 15 -4 20 -1 20 13 0
15 2 15 9 4 7 -10 5 -18 -6 -26 -14 -10 -13 -13 2 -29 20 -20 62 -14 80 10 6
9 30 17 52 19 58 5 63 10 63 66 0 46 -2 49 -25 49 -14 0 -25 6 -25 13 0 14
-31 47 -43 47 -3 0 -12 -10 -18 -22 -10 -18 -8 -24 7 -35 10 -7 12 -13 6 -13
-7 0 -12 -7 -12 -15 0 -22 -15 -18 -36 10 -10 14 -24 25 -31 25 -7 0 -13 7
-13 15 0 21 -47 19 -59 -2 -6 -10 -11 -13 -11 -7 0 5 4 14 10 20 5 5 11 18 13
29 1 11 6 26 11 33 4 7 2 19 -4 27 -14 17 -26 19 -35 5z"/>
<path d="M5988 4364 c-41 -50 -62 -64 -97 -63 -54 2 -61 0 -61 -16 0 -9 -8
-19 -17 -22 -10 -4 -28 -18 -41 -32 -12 -14 -29 -33 -37 -42 -8 -9 -15 -23
-15 -32 0 -8 -12 -30 -27 -47 -24 -30 -25 -33 -9 -42 16 -9 16 -11 -5 -29 -12
-10 -23 -31 -25 -45 -1 -15 -7 -31 -13 -37 -14 -14 -14 -57 -1 -57 6 0 10 -7
10 -15 0 -19 83 -57 105 -49 20 8 19 21 -5 51 -21 27 -28 97 -10 108 6 3 10
15 10 26 0 10 3 19 8 19 4 0 15 17 24 39 9 21 30 50 45 65 83 77 109 96 139
96 38 0 63 26 68 71 7 57 -19 86 -46 53z"/>
<path d="M1443 4324 c-3 -9 3 -23 16 -35 11 -11 21 -26 21 -33 0 -8 13 -19 30
-26 16 -7 32 -21 35 -31 9 -28 75 -27 75 1 0 13 5 18 15 14 8 -4 12 -10 9 -16
-9 -13 36 -58 58 -58 14 0 18 8 18 38 0 48 -14 62 -63 62 -35 0 -39 2 -34 21
3 12 3 34 0 49 -5 26 -9 28 -52 27 -25 0 -49 -4 -52 -10 -4 -5 -14 -5 -27 2
-28 15 -42 14 -49 -5z"/>
<path d="M7593 4262 c-7 -4 -14 -19 -15 -32 -2 -14 -7 -28 -12 -31 -13 -10 35
-69 56 -69 10 0 18 5 18 10 0 6 18 10 39 10 53 0 71 8 82 38 11 27 -3 52 -29
52 -8 0 -24 8 -34 17 -17 15 -19 15 -33 -3 -14 -18 -16 -18 -26 -1 -11 18 -27
21 -46 9z"/>
<path d="M1032 4124 c-13 -9 -21 -22 -18 -30 3 -7 -1 -47 -9 -89 -14 -72 -14
-76 5 -95 11 -11 20 -24 20 -30 0 -5 11 -10 25 -10 14 0 25 5 25 10 0 6 9 10
19 10 11 0 23 5 26 10 4 7 13 6 27 -1 15 -8 17 -13 8 -19 -8 -5 -9 -16 -5 -30
7 -21 12 -22 59 -18 54 6 76 2 76 -13 0 -5 -25 -9 -55 -9 -43 0 -55 -3 -55
-16 0 -30 20 -54 46 -54 17 0 28 -7 31 -20 4 -16 14 -20 52 -20 26 0 53 6 61
13 12 10 12 9 1 -5 -7 -9 -10 -26 -6 -37 3 -10 1 -22 -5 -26 -5 -3 -10 -2 -10
3 0 17 -27 21 -58 10 -16 -6 -37 -8 -46 -5 -14 5 -14 10 -4 26 16 26 -6 54
-39 48 -13 -2 -28 2 -34 9 -14 17 -118 56 -130 49 -5 -4 -9 -1 -9 4 0 6 -4 11
-10 11 -5 0 -10 -9 -10 -21 0 -28 -16 -15 -40 32 -23 44 -46 53 -36 15 6 -25
-14 -51 -22 -28 -5 17 -27 15 -42 -3 -7 -8 -16 -13 -20 -10 -4 3 -13 -2 -20
-10 -8 -10 -21 -13 -33 -9 -17 5 -19 3 -14 -15 3 -12 0 -21 -6 -22 -7 0 -20
-2 -29 -4 -10 -2 -26 8 -37 21 -10 13 -27 24 -36 24 -9 0 -31 6 -48 14 -18 8
-54 17 -82 20 -87 9 -165 29 -165 44 0 9 -7 11 -20 7 -11 -4 -20 -2 -20 4 0 6
-8 11 -18 11 -10 0 -23 5 -30 12 -10 10 -16 7 -28 -10 -8 -12 -26 -22 -38 -22
-13 0 -29 -7 -36 -15 -7 -8 -19 -15 -27 -15 -8 0 -23 -22 -35 -50 -18 -43 -25
-50 -48 -50 -44 0 -45 -26 -2 -75 20 -25 43 -44 50 -45 6 0 12 -9 12 -19 0
-11 6 -22 13 -24 6 -3 2 -6 -10 -6 -17 -1 -23 5 -23 19 0 28 -20 25 -68 -12
-40 -31 -52 -48 -33 -48 5 0 14 -13 21 -30 11 -27 17 -30 56 -30 23 0 46 5 49
10 11 17 21 11 23 -15 2 -27 -29 -51 -63 -47 -15 2 -25 -8 -37 -38 -23 -53
-23 -67 5 -82 12 -7 22 -22 22 -33 0 -12 8 -21 20 -24 26 -4 37 -22 24 -37 -8
-9 4 -12 49 -10 l60 3 -9 -31 c-5 -17 -9 -32 -9 -33 0 -1 -20 -14 -45 -29 -48
-28 -63 -61 -22 -49 66 20 203 135 193 162 -5 11 21 73 29 73 3 0 2 -13 -2
-30 -7 -36 0 -37 61 -10 46 19 57 34 34 43 -8 3 -7 6 4 6 9 1 20 -3 23 -9 3
-5 15 -10 26 -10 10 0 19 -4 19 -9 0 -5 24 -12 54 -15 33 -5 57 -13 60 -22 3
-8 12 -14 21 -14 8 0 15 -6 15 -13 0 -7 10 -17 22 -22 12 -6 31 -28 42 -50 20
-38 20 -39 27 -15 6 25 6 25 13 -5 17 -67 17 -67 42 -62 21 4 35 -12 39 -43 0
-3 14 -19 30 -35 29 -29 38 -75 14 -75 -20 0 -7 -20 33 -49 23 -17 44 -39 47
-48 2 -10 3 -69 2 -131 -2 -111 -2 -114 34 -183 51 -101 56 -108 88 -115 24
-5 35 -18 59 -70 16 -35 36 -67 43 -72 8 -4 13 -16 12 -27 -1 -12 7 -24 21
-30 13 -5 25 -20 28 -31 8 -31 60 -79 69 -64 4 6 1 19 -7 28 -8 9 -21 33 -30
53 -9 20 -30 52 -46 70 -32 38 -46 69 -32 69 5 0 19 -18 30 -40 11 -22 34 -49
50 -62 17 -12 30 -28 30 -35 0 -7 8 -17 18 -22 33 -18 74 -86 67 -113 -8 -31
9 -42 128 -92 70 -29 92 -34 108 -26 21 12 37 6 56 -21 7 -9 33 -22 57 -28 47
-12 116 -63 116 -86 0 -8 9 -17 20 -20 11 -3 20 -11 20 -16 0 -5 11 -9 25 -9
14 0 25 -4 25 -10 0 -5 11 -10 25 -10 16 0 25 6 25 15 0 25 24 17 38 -12 17
-38 16 -92 -3 -99 -8 -4 -15 -12 -15 -18 0 -7 -11 -23 -25 -36 -17 -16 -25
-34 -25 -56 0 -18 -4 -36 -10 -39 -13 -8 -13 -45 0 -45 5 0 22 -19 36 -42 15
-24 35 -54 44 -68 9 -14 20 -41 24 -61 7 -40 31 -65 94 -99 23 -13 42 -28 43
-34 5 -53 -10 -205 -23 -239 -6 -15 -8 -45 -4 -66 4 -27 -1 -56 -15 -97 -12
-33 -23 -83 -24 -111 -2 -29 -6 -74 -10 -99 -6 -40 -4 -46 9 -41 12 5 14 -1
10 -30 -5 -44 -11 -54 -28 -47 -16 6 -30 -37 -16 -46 14 -9 24 -202 11 -210
-6 -3 0 -17 15 -33 25 -27 44 -35 44 -17 0 5 6 7 14 4 9 -3 16 6 20 28 7 29 9
30 15 13 5 -11 4 -23 -2 -26 -5 -4 -6 -12 -3 -18 4 -6 0 -11 -8 -11 -9 0 -16
-4 -16 -10 0 -5 5 -10 11 -10 7 0 18 -8 25 -17 9 -11 17 -14 21 -8 5 6 21 11
37 12 56 4 61 12 26 36 -44 29 -70 109 -46 136 9 10 16 24 16 33 0 8 11 27 25
42 31 34 31 41 1 62 -27 17 -25 40 3 49 26 8 56 82 44 108 -9 20 -7 22 21 22
26 0 31 4 36 30 5 27 10 31 49 36 29 4 51 14 63 28 18 24 24 51 10 51 -4 0 -8
8 -8 19 0 11 6 17 16 14 24 -6 70 14 77 34 3 10 21 37 40 60 18 23 33 46 33
52 0 7 7 14 15 17 10 4 15 19 15 43 0 26 7 43 23 57 40 36 76 54 106 54 27 0
34 7 56 50 14 28 28 77 32 112 3 34 12 69 19 77 7 9 29 36 49 61 31 37 36 49
31 79 -6 37 -19 51 -52 51 -12 0 -27 7 -34 15 -7 8 -22 15 -34 15 -27 0 -98
22 -159 50 -26 11 -52 18 -57 15 -6 -3 -10 3 -10 15 0 55 -92 140 -135 124
-10 -4 -31 5 -55 25 -21 17 -44 31 -49 31 -11 0 -15 13 -12 36 1 6 -29 10 -79
11 -48 0 -86 5 -95 13 -8 7 -25 10 -40 6 -18 -5 -25 -2 -25 9 0 8 -6 15 -13
15 -25 0 -97 -41 -97 -55 0 -21 -15 -26 -47 -14 -20 6 -38 6 -55 0 -22 -8 -31
-6 -53 13 -25 22 -27 27 -20 75 6 48 5 51 -18 60 -14 6 -42 7 -63 4 -31 -5
-36 -4 -31 10 3 8 9 32 13 51 3 20 10 39 15 42 5 3 9 12 9 20 0 12 -10 14 -42
12 -36 -3 -45 -8 -58 -33 -12 -25 -22 -31 -56 -33 -36 -3 -44 0 -61 25 -28 40
-41 85 -32 108 4 11 8 34 8 51 1 17 10 39 21 49 23 21 95 36 109 22 6 -6 20
-3 39 8 23 14 41 16 85 11 53 -7 56 -9 68 -44 13 -40 48 -92 61 -92 14 0 9 83
-7 114 -8 15 -15 34 -15 42 0 17 57 74 93 93 28 15 44 50 33 76 -3 8 -2 15 2
15 4 0 18 23 31 50 13 28 29 50 35 50 7 0 24 5 38 12 19 9 25 19 24 41 -1 24
6 33 37 49 20 11 37 24 37 29 0 5 8 9 18 9 14 0 14 -2 3 -9 -17 -11 -7 -41 14
-41 9 0 18 7 21 15 4 8 16 15 28 15 28 0 66 35 66 60 0 24 -9 25 -25 4 -9 -12
-20 -15 -44 -9 -33 7 -33 7 -27 55 6 43 4 49 -13 55 -11 3 -31 1 -43 -6 l-23
-11 21 22 c19 19 33 23 99 24 61 1 78 5 86 19 6 9 16 17 24 17 11 0 8 -11 -10
-46 -35 -67 -33 -84 10 -84 24 0 35 -5 35 -15 0 -18 21 -20 38 -3 9 9 12 9 12
0 0 -7 9 -12 20 -12 23 0 24 8 8 61 -8 28 -17 39 -30 39 -25 0 -51 26 -42 41
4 7 8 34 8 61 2 44 -1 51 -22 59 -13 5 -20 13 -17 19 3 5 -6 16 -22 22 -32 15
-69 49 -65 61 1 4 -9 31 -22 60 -13 29 -30 67 -37 85 -8 17 -18 32 -22 32 -5
0 -16 -18 -24 -39 -17 -43 -30 -53 -62 -44 -21 5 -26 25 -21 81 1 12 -4 22
-12 22 -7 0 -28 16 -46 34 -26 27 -44 36 -83 41 -31 4 -55 3 -61 -3 -13 -13
-18 -80 -7 -108 5 -14 2 -29 -7 -43 -14 -20 -14 -26 5 -64 26 -54 26 -68 0
-101 -21 -26 -23 -67 -5 -107 4 -10 0 -23 -11 -34 -15 -16 -18 -16 -21 -3 -2
8 -13 20 -25 26 l-22 11 24 0 c20 1 21 3 11 16 -7 8 -21 15 -32 15 -18 0 -19
5 -14 35 7 35 7 35 -29 35 -26 0 -45 9 -74 35 -21 19 -45 35 -54 35 -9 0 -19
5 -23 11 -3 6 -15 9 -25 6 -14 -4 -19 0 -19 16 0 29 -11 44 -34 48 -24 5 -27
25 -11 73 7 20 11 46 8 56 -4 15 0 20 16 20 11 0 20 6 18 12 -1 7 8 14 20 16
15 2 24 13 28 33 5 22 12 29 30 29 17 0 24 7 29 30 8 43 46 91 66 85 9 -3 30
6 46 20 16 14 32 25 37 25 12 0 8 48 -5 71 -10 17 -10 23 0 26 14 5 17 53 3
53 -5 0 -11 8 -13 18 -4 14 -16 19 -47 20 -43 2 -48 -5 -31 -39 7 -13 7 -19 0
-19 -5 0 -10 -9 -10 -20 0 -17 -10 -42 -28 -70 -9 -14 -21 30 -16 58 11 59
-37 87 -52 30 l-8 -33 -3 33 c-3 18 -11 36 -19 39 -9 3 -12 13 -8 30 5 16 0
33 -13 51 -26 36 -44 90 -32 97 5 4 6 17 3 30 -5 19 -1 24 17 27 16 2 28 16
42 51 11 26 17 50 14 54 -3 3 -31 8 -61 10 l-54 5 -11 -52 c-6 -28 -9 -56 -5
-61 9 -15 -1 -10 -27 12 -14 12 -19 23 -13 27 13 9 15 50 3 58 -5 3 -17 0 -26
-8 -13 -10 -17 -10 -20 0 -3 6 -16 12 -29 12 -20 0 -24 -5 -24 -29 0 -16 6
-31 15 -35 8 -3 15 -13 15 -23 0 -15 -4 -14 -20 7 -17 21 -21 23 -30 10 -17
-27 8 -95 39 -105 11 -3 23 -15 26 -26 8 -23 15 -24 54 -1 20 11 31 25 31 39
0 29 16 38 23 13 3 -11 1 -20 -5 -20 -6 0 -8 -9 -5 -20 3 -11 1 -18 -4 -14
-11 6 -29 -38 -29 -71 0 -14 12 -34 31 -49 24 -20 28 -29 20 -43 -9 -17 -10
-17 -17 2 -4 11 -18 30 -32 43 -27 24 -42 17 -42 -20 0 -10 -7 -18 -15 -18
-23 0 -18 -18 10 -33 21 -11 23 -15 13 -29 -19 -23 -82 -32 -98 -13 -7 8 -21
15 -31 15 -10 0 -21 5 -25 11 -9 15 13 28 37 22 26 -7 51 15 44 38 -4 13 -1
19 9 19 9 0 16 9 16 20 0 12 -7 20 -16 20 -9 0 -29 12 -45 27 -26 25 -29 35
-29 88 0 34 -5 66 -12 73 -8 8 -8 12 -1 12 15 0 36 61 24 73 -5 5 -21 7 -37 5
-21 -2 -29 -8 -29 -23 0 -11 -8 -23 -19 -28 -12 -5 -16 -13 -11 -25 4 -9 9
-37 11 -62 l4 -45 -15 50 c-13 47 -55 99 -63 77 -1 -5 -11 -8 -21 -5 -12 3
-20 -2 -24 -16 -3 -12 -11 -21 -17 -21 -10 0 -10 3 0 15 14 17 7 45 -12 45 -7
0 -24 14 -37 30 -13 17 -31 30 -40 30 -9 0 -29 7 -45 15 -37 19 -66 19 -94 -1z"/>
<path d="M1900 4093 c-39 -5 -92 -48 -88 -73 1 -8 -1 -28 -5 -43 -8 -29 10
-97 25 -97 4 0 8 -6 8 -13 0 -22 60 -66 98 -73 20 -3 47 -12 59 -20 29 -18 53
-18 53 1 0 21 8 19 46 -10 18 -14 40 -25 48 -25 10 0 16 -9 16 -23 0 -13 5
-28 11 -34 18 -18 17 -65 -3 -85 -15 -15 -16 -22 -7 -40 10 -19 9 -20 -22 -15
-51 7 -65 -5 -64 -55 l0 -43 58 3 c47 3 57 1 57 -12 0 -9 7 -16 16 -16 8 0 12
-5 9 -11 -9 -14 30 -46 66 -54 16 -4 31 -10 34 -15 12 -19 69 -40 79 -30 8 8
6 14 -5 20 -9 5 -24 22 -33 37 l-17 28 20 -22 c23 -27 46 -31 37 -6 -4 9 -1
20 6 24 10 6 7 18 -12 54 -13 25 -30 45 -36 45 -12 0 -24 31 -24 64 0 16 5 13
25 -14 29 -39 65 -58 65 -35 0 7 9 17 20 20 12 4 20 14 18 23 -1 9 1 23 6 31
9 14 -11 34 -26 25 -4 -3 -8 0 -8 5 0 6 -6 11 -14 11 -7 0 -16 9 -19 20 -3 11
-13 23 -23 27 -10 3 -26 15 -37 26 -16 16 -18 24 -9 38 7 10 8 20 3 23 -4 3
-6 19 -3 36 2 18 0 30 -7 30 -6 0 -11 6 -11 14 0 8 -14 19 -30 25 -17 5 -33
17 -36 26 -3 8 -15 15 -26 15 -11 0 -37 18 -59 40 -41 41 -83 52 -107 28 -9
-9 -12 -8 -12 5 0 13 9 17 40 17 44 0 50 13 31 64 -8 21 -19 26 -67 32 -37 4
-64 3 -76 -5 -24 -15 -29 -14 -22 4 4 8 2 14 -2 13 -5 0 -25 -3 -44 -5z"/>
<path d="M4066 3554 c-4 -11 -13 -14 -31 -10 -14 4 -25 2 -25 -3 0 -6 -7 -8
-15 -5 -9 4 -15 1 -15 -7 0 -7 -7 -3 -16 9 -8 12 -19 22 -25 22 -12 0 -49 -37
-49 -50 0 -5 9 -10 20 -10 11 0 20 -4 20 -10 0 -5 -7 -10 -15 -10 -8 0 -15 -4
-15 -10 0 -5 9 -10 19 -10 27 0 35 -17 14 -29 -20 -11 -22 -9 48 -31 32 -9 41
-8 70 10 19 11 41 23 49 26 8 3 23 16 33 30 17 23 17 25 0 57 -10 17 -18 33
-18 33 0 1 -10 4 -21 8 -15 5 -24 2 -28 -10z"/>
<path d="M7706 2651 c-3 -21 -13 -41 -21 -45 -11 -4 -15 -21 -15 -66 0 -53 -3
-64 -27 -86 -19 -18 -29 -21 -34 -12 -5 8 -11 4 -20 -14 -8 -19 -22 -28 -48
-33 -20 -3 -53 -20 -74 -38 -33 -29 -36 -35 -29 -62 11 -39 39 -45 48 -11 3
14 10 23 15 21 5 -3 19 1 32 10 13 8 31 13 39 10 9 -4 18 1 21 9 4 9 15 16 26
16 11 0 26 7 34 15 12 11 17 12 20 2 9 -21 27 15 27 56 0 20 5 37 11 37 12 0
8 72 -6 104 -7 17 -5 18 18 12 19 -4 33 -1 46 11 11 10 27 24 35 31 25 21 19
32 -19 32 -24 0 -39 6 -47 20 -18 29 -25 25 -32 -19z"/>
<path d="M7091 1635 c-24 -25 -50 -45 -57 -45 -7 0 -17 -7 -22 -17 -6 -9 -16
-14 -25 -10 -23 9 -30 -21 -15 -70 11 -38 15 -42 53 -49 22 -3 47 -10 56 -14
25 -14 39 0 80 78 7 12 18 22 26 22 7 0 13 5 13 10 0 6 -3 10 -7 10 -5 0 -13
11 -20 25 -10 22 -8 27 8 35 23 13 25 40 4 40 -9 0 -18 7 -21 15 -10 24 -26
17 -73 -30z"/>
<path d="M7460 1504 c8 -10 22 -24 30 -31 8 -7 11 -13 7 -13 -4 0 -3 -9 3 -20
7 -13 18 -19 28 -16 23 8 107 -36 106 -54 -1 -8 -5 -22 -8 -31 -6 -13 -2 -16
18 -12 15 3 32 -1 41 -11 19 -18 65 -12 78 11 12 20 33 16 59 -11 24 -25 95
-53 106 -41 4 3 -11 21 -33 39 -25 21 -40 42 -40 57 0 15 -7 25 -18 27 -10 2
-28 14 -41 27 -13 13 -42 29 -65 35 -22 6 -41 15 -41 20 0 5 -6 7 -14 4 -8 -3
-25 0 -37 7 -17 9 -24 9 -27 0 -2 -6 -13 -11 -23 -11 -11 0 -17 -4 -14 -10 3
-5 0 -7 -8 -4 -8 3 -17 14 -20 25 -4 13 -14 19 -35 19 -17 0 -39 3 -49 7 -16
6 -17 5 -3 -13z"/>
<path d="M7716 1258 c-3 -13 -6 -36 -6 -53 -1 -74 -24 -93 -71 -57 -13 10 -32
22 -42 25 -16 6 -17 9 -2 37 17 33 13 52 -10 44 -8 -4 -29 -1 -47 5 -22 8 -34
8 -36 1 -2 -5 -12 -10 -22 -10 -10 0 -30 -14 -43 -32 -21 -27 -28 -30 -41 -19
-12 10 -21 9 -50 -4 -20 -10 -36 -23 -36 -30 0 -7 -13 -18 -30 -24 -20 -6 -30
-17 -30 -30 0 -26 -31 -47 -91 -62 -75 -20 -99 -44 -103 -108 -3 -39 1 -63 14
-86 25 -44 35 -112 20 -131 -10 -12 -9 -18 5 -34 21 -23 50 -25 85 -5 14 8 44
14 67 15 25 0 45 6 50 14 8 14 81 27 165 28 48 1 65 -9 87 -50 13 -25 31 -29
31 -8 0 8 5 18 10 21 7 4 8 -3 4 -21 -5 -19 -4 -25 5 -20 6 4 11 2 11 -3 0 -6
7 -11 15 -11 8 0 21 -15 29 -34 15 -37 39 -49 89 -45 18 2 37 0 43 -3 13 -9
54 1 54 13 0 4 12 9 27 11 23 3 29 10 39 53 8 29 23 58 37 70 44 36 62 145 34
207 -14 30 -66 96 -114 142 -17 17 -39 51 -49 76 -9 25 -22 50 -29 55 -7 6
-16 21 -20 35 -15 51 -39 64 -49 28z"/>
<path d="M5589 1245 c-1 -3 -2 -10 -3 -16 0 -6 -9 -16 -18 -23 -10 -7 -18 -18
-18 -25 0 -6 -8 -11 -18 -11 -10 0 -29 -11 -41 -24 -21 -22 -22 -29 -12 -57 9
-27 8 -35 -5 -50 -12 -13 -14 -28 -9 -63 9 -59 25 -73 65 -56 26 11 33 23 51
84 11 39 27 92 35 118 17 57 18 100 2 116 -12 12 -27 16 -29 7z"/>
<path d="M8355 486 c-8 -18 -27 -45 -43 -58 -16 -13 -37 -37 -47 -52 -17 -26
-17 -27 1 -41 36 -28 76 -12 93 36 6 17 19 33 30 36 26 7 42 90 20 104 -25 16
-40 9 -54 -25z"/>
</g>
</svg>
